<?xml version="1.0" encoding="UTF-8"?>
<svg id="Layer_1" data-name="Layer 1" xmlns="http://www.w3.org/2000/svg" viewBox="0 0 1464 1635.5">
  <defs>
    <style>
      .cls-1 {
        fill: #f7f4e7;
      }

      .cls-2 {
        fill: #d4ed08;
      }

      .cls-3 {
        fill: #7b59f2;
      }
    </style>
  </defs>
  <path class="cls-1" d="M172.26,174.37v-55.98c0-12.95-.49-22-1.95-32.26h17.35c-1.47,10.27-1.95,19.31-1.95,32.26v56.22c0,21.02,9.78,32.51,26.64,32.51,15.64,0,31.04-11,41.07-28.11v-60.62c0-12.95-.49-22-1.96-32.26h17.11c-1.47,10.27-1.96,19.31-1.96,32.26v60.38c0,12.96,.49,22,1.96,32.27h-17.11c1.22-8.8,1.71-16.62,1.96-26.64-11.25,18.33-29.09,29.82-47.91,29.82-20.29,0-33.24-13.69-33.24-39.84Z"/>
  <path class="cls-1" d="M385.16,178.77v-56.22c0-21.27-9.78-32.51-26.64-32.51-15.64,0-31.04,11-41.07,28.11v60.62c0,12.96,.49,22,1.96,32.27h-17.36c1.47-10.27,1.96-19.31,1.96-32.27v-60.38c0-12.95-.49-22-1.96-32.26h17.36c-1.22,8.8-1.71,16.62-1.96,26.64,11.25-18.33,29.09-29.82,47.91-29.82,20.29,0,33.24,13.69,33.24,39.6v56.22c0,12.96,.49,22,1.95,32.27h-17.35c1.47-10.27,1.95-19.31,1.95-32.27Z"/>
  <path class="cls-1" d="M473.64,147.97c0-37.4,26.4-65.02,58.42-65.02,28.35,0,50.35,21.27,51.33,49.87h-94.35c-.49,3.91-.73,8.07-.73,12.22,0,34.95,20.29,62.33,48.89,62.33,23.71,0,43.26-19.07,48.64-44.98l2.69,.49c-6.35,31.04-28.84,51.33-55.73,51.33-32.27,0-59.15-28.6-59.15-66.24Zm94.84-19.07c-.98-25.42-15.64-42.78-36.42-42.78s-37.4,17.11-42.29,42.78h78.71Z"/>
  <path class="cls-1" d="M602.95,172.41c1.47-3.18,3.91-4.64,6.6-4.64,3.67,0,7.09,2.44,8.31,7.09,4.64,25.18,22.73,35.93,40.58,35.93,16.38,0,30.8-9.04,30.8-24.44,0-35.2-76.51-34.22-76.51-74.06,0-18.58,16.38-29.33,37.4-29.33,18.58,0,37.4,8.31,49.87,24.44-.49,4.16-2.93,7.09-6.85,7.09-4.15,0-6.84-2.69-9.29-7.09-6.6-12.71-18.09-21.27-33.24-21.27s-27.62,8.31-27.62,21.75c0,33.24,77.73,33.24,77.73,72.84,0,20.53-21.51,33.49-44.49,33.49s-46.2-12.22-53.29-41.8Z"/>
  <path class="cls-1" d="M741.3,181.46v54.75c0,12.95,.49,22,1.95,32.27h-17.35c1.47-10.27,1.95-19.31,1.95-32.27V118.39c0-12.95-.49-22-1.95-32.26h17.35c-1.22,8.55-1.71,16.38-1.95,26.15,11.49-19.31,27.62-29.33,45.95-29.33,33,0,50.6,32.75,50.6,65.75s-17.6,65.51-51.33,65.51c-20.53,0-37.15-12.22-45.22-32.75Zm40.82,26.89c27.13,0,41.07-29.58,41.07-58.91s-13.93-59.15-41.55-59.15c-15.64,0-30.55,10.27-40.33,27.87v54.02c5.87,23.22,22.98,36.18,40.82,36.18Z"/>
  <path class="cls-1" d="M854.96,182.92c0-22.24,20.53-30.31,43.02-37.64,20.04-6.35,43.27-11.98,43.27-34.46,0-15.4-11.25-24.69-26.64-24.69-19.31,0-31.04,14.18-35.44,19.31-3.67,4.16-6.11,6.11-10.27,6.11s-6.84-2.93-7.33-8.56c15.89-11.24,35.44-20.04,53.29-20.04,22.49,0,39.11,12.47,39.11,37.89v54.02c0,18.58,1.22,23.95,4.16,36.18h-16.13c-.98-13.93-1.22-28.35-1.22-42.78-8.56,32.75-30.8,45.95-50.35,45.95s-35.44-11.98-35.44-31.29Zm40.82,24.2c20.04,0,44.98-18.58,44.98-63.31v-17.84c-6.6,12.47-22.24,17.11-38.38,22.49-17.84,6.35-33.98,13.44-33.98,32.27,0,16.87,12.47,26.4,27.38,26.4Z"/>
  <path class="cls-1" d="M981.32,148.21c0-40.09,28.84-65.26,61.11-65.26,18.09,0,36.42,8.8,48.64,25.42-.73,4.89-3.42,7.33-7.09,7.33-4.4,0-7.09-3.42-9.29-8.31-6.35-13.2-17.6-21.27-32.75-21.27-22,0-45.71,19.31-45.71,59.4,0,36.67,21.27,61.84,48.64,61.84,23.71,0,43.27-19.07,48.64-44.49l2.69,.73c-6.11,29.58-28.11,50.6-55.73,50.6-33.49,0-59.15-29.58-59.15-66Z"/>
  <path class="cls-1" d="M1125.3,39.93l12.22,12.22-12.22,12.47-12.46-12.47,12.46-12.22Zm-7.09,138.84v-60.38c0-12.95-.49-22-1.95-32.26h17.35c-1.47,10.27-1.95,19.31-1.95,32.26v60.38c0,12.96,.49,22,1.95,32.27h-17.35c1.47-10.27,1.95-19.31,1.95-32.27Z"/>
  <path class="cls-1" d="M1159.76,148.46c0-39.35,27.38-65.51,62.82-65.51s62.82,26.4,62.82,65.51-27.38,65.75-62.82,65.75-62.82-26.4-62.82-65.75Zm62.82,62.58c28.6,0,47.42-23.95,47.42-62.82s-18.58-62.09-47.42-62.09-47.42,23.47-47.42,62.09,18.58,62.82,47.42,62.82Z"/>
  <path class="cls-1" d="M280.17,406.35c0-37.15,21.76-66.49,51.58-66.49,18.33,0,34.95,11.24,46.2,31.53v-62.58c0-12.96-.49-22-1.95-32.27h17.11c-1.47,10.27-1.95,19.31-1.95,32.27v123.68c0,19.07,1.22,24.2,4.15,36.18h-16.38c-.98-14.18-.98-20.78-.98-32.02-7.58,22.73-25.42,35.93-45.46,35.93-27.13,0-52.31-23.95-52.31-66.24Zm56.22,60.13c18.82,0,37.15-14.91,41.55-42.04v-47.67c-9.78-18.58-24.93-29.33-41.55-29.33-24.69,0-41.31,25.18-41.31,60.62,0,38.87,20.29,58.42,41.31,58.42Z"/>
  <path class="cls-1" d="M419.74,406.1c0-39.35,27.38-65.51,62.82-65.51s62.82,26.4,62.82,65.51-27.38,65.75-62.82,65.75-62.82-26.4-62.82-65.75Zm62.82,62.58c28.6,0,47.42-23.95,47.42-62.82s-18.58-62.09-47.42-62.09-47.42,23.47-47.42,62.09,18.58,62.82,47.42,62.82Z"/>
  <path class="cls-1" d="M654.4,436.41v-56.22c0-21.27-9.78-32.51-26.64-32.51-15.64,0-31.04,11-41.06,28.11v60.62c0,12.96,.49,22,1.95,32.27h-17.35c1.47-10.27,1.95-19.31,1.95-32.27v-60.38c0-12.95-.49-22-1.95-32.26h17.35c-1.22,8.8-1.71,16.62-1.95,26.64,11.24-18.33,29.09-29.82,47.91-29.82,20.29,0,33.24,13.69,33.24,39.6v56.22c0,12.96,.49,22,1.96,32.27h-17.36c1.47-10.27,1.96-19.31,1.96-32.27Z"/>
  <path class="cls-1" d="M695.71,406.35c0-37.15,21.75-66.49,51.58-66.49,18.33,0,34.95,11.24,46.2,31.53v-62.58c0-12.96-.49-22-1.96-32.27h17.11c-1.47,10.27-1.96,19.31-1.96,32.27v123.68c0,19.07,1.22,24.2,4.16,36.18h-16.38c-.98-14.18-.98-20.78-.98-32.02-7.58,22.73-25.42,35.93-45.47,35.93-27.13,0-52.31-23.95-52.31-66.24Zm56.22,60.13c18.82,0,37.15-14.91,41.55-42.04v-47.67c-9.78-18.58-24.93-29.33-41.55-29.33-24.69,0-41.31,25.18-41.31,60.62,0,38.87,20.29,58.42,41.31,58.42Z"/>
  <path class="cls-1" d="M835.28,405.62c0-37.4,26.4-65.02,58.42-65.02,28.35,0,50.35,21.27,51.33,49.87h-94.35c-.49,3.91-.73,8.07-.73,12.22,0,34.95,20.29,62.33,48.89,62.33,23.71,0,43.26-19.07,48.64-44.98l2.69,.49c-6.35,31.04-28.84,51.33-55.73,51.33-32.27,0-59.15-28.6-59.15-66.24Zm94.84-19.07c-.98-25.42-15.64-42.78-36.42-42.78s-37.4,17.11-42.29,42.78h78.71Z"/>
  <path class="cls-1" d="M1024.71,436.41v-127.59c0-12.96-.49-22-1.96-32.27h17.36c-1.47,10.27-1.96,19.31-1.96,32.27v127.59c0,12.96,.49,22,1.96,32.27h-17.36c1.47-10.27,1.96-19.31,1.96-32.27Z"/>
  <path class="cls-1" d="M1066.27,406.1c0-39.35,27.38-65.51,62.82-65.51s62.82,26.4,62.82,65.51-27.38,65.75-62.82,65.75-62.82-26.4-62.82-65.75Zm62.82,62.58c28.6,0,47.42-23.95,47.42-62.82s-18.58-62.09-47.42-62.09-47.42,23.47-47.42,62.09,18.58,62.82,47.42,62.82Z"/>
  <path class="cls-1" d="M276.55,1030.58c.98-5.13,3.91-7.82,7.82-7.82,8.56,0,12.96,11,26.15,11s22.73-10.27,33.49-39.35l5.38-14.42h-5.13l-33.49-94.6c-4.15-11.98-8.31-21.51-12.95-30.31h19.31c.98,8.8,4.89,22,7.33,29.09l30.07,83.11,22.24-59.4c4.89-12.22,6.85-20.53,6.85-27.62,0-10.02-5.13-13.44-5.13-20.04,0-4.64,2.69-7.09,6.6-7.09,2.2,0,4.4,.73,6.35,2.45,.49,7.33,.25,7.09,.25,9.78-.25,11-2.45,20.04-8.55,36.42l-36.67,96.31c-12.22,32.02-22.73,42.29-42.29,42.29-10.02,0-18.82-3.42-27.62-9.78Z"/>
  <path class="cls-1" d="M466.47,947.71v-127.59c0-12.96-.49-22-1.95-32.27h17.35c-1.47,10.27-1.95,19.31-1.95,32.27v127.59c0,12.96,.49,22,1.95,32.27h-17.35c1.47-10.27,1.95-19.31,1.95-32.27Z"/>
  <path class="cls-1" d="M505.09,951.87c0-22.24,20.53-30.31,43.02-37.64,20.04-6.35,43.27-11.98,43.27-34.46,0-15.4-11.25-24.69-26.64-24.69-19.31,0-31.04,14.18-35.44,19.31-3.67,4.16-6.11,6.11-10.27,6.11s-6.84-2.93-7.33-8.56c15.89-11.24,35.44-20.04,53.29-20.04,22.49,0,39.11,12.47,39.11,37.89v54.02c0,18.58,1.22,23.95,4.16,36.18h-16.13c-.98-13.93-1.22-28.35-1.22-42.78-8.56,32.75-30.8,45.95-50.35,45.95s-35.44-11.98-35.44-31.29Zm40.82,24.2c20.04,0,44.98-18.58,44.98-63.31v-17.84c-6.6,12.47-22.24,17.11-38.38,22.49-17.84,6.35-33.98,13.44-33.98,32.27,0,16.87,12.47,26.4,27.38,26.4Z"/>
  <path class="cls-1" d="M.02,1456.65c1.47-3.18,3.91-4.64,6.6-4.64,3.67,0,7.09,2.44,8.31,7.09,4.64,25.18,22.73,35.93,40.58,35.93,16.38,0,30.8-9.04,30.8-24.44,0-35.2-76.51-34.22-76.51-74.06,0-18.58,16.38-29.33,37.4-29.33,18.58,0,37.4,8.31,49.87,24.44-.49,4.15-2.93,7.09-6.85,7.09-4.15,0-6.84-2.69-9.29-7.09-6.6-12.71-18.09-21.27-33.24-21.27s-27.62,8.31-27.62,21.76c0,33.24,77.73,33.24,77.73,72.84,0,20.53-21.51,33.49-44.49,33.49S7.1,1486.23,.02,1456.65Z"/>
  <path class="cls-1" d="M115.39,1432.21c0-37.4,26.4-65.02,58.42-65.02,28.35,0,50.35,21.27,51.33,49.87h-94.35c-.49,3.91-.73,8.07-.73,12.22,0,34.95,20.29,62.33,48.89,62.33,23.71,0,43.26-19.07,48.64-44.98l2.69,.49c-6.35,31.04-28.84,51.33-55.73,51.33-32.27,0-59.15-28.6-59.15-66.24Zm94.84-19.07c-.98-25.42-15.64-42.78-36.42-42.78s-37.4,17.11-42.29,42.78h78.71Z"/>
  <path class="cls-1" d="M288.53,1432.21c0-37.4,26.4-65.02,58.42-65.02,28.35,0,50.35,21.27,51.33,49.87h-94.35c-.49,3.91-.73,8.07-.73,12.22,0,34.95,20.29,62.33,48.89,62.33,23.71,0,43.27-19.07,48.64-44.98l2.69,.49c-6.36,31.04-28.84,51.33-55.73,51.33-32.26,0-59.15-28.6-59.15-66.24Zm94.84-19.07c-.98-25.42-15.64-42.78-36.42-42.78s-37.4,17.11-42.29,42.78h78.71Z"/>
  <path class="cls-1" d="M509.02,1463.01v-56.22c0-21.27-9.78-32.51-26.64-32.51-15.64,0-31.04,11-41.07,28.11v60.62c0,12.95,.49,22,1.96,32.27h-17.36c1.47-10.27,1.96-19.31,1.96-32.27v-60.38c0-12.96-.49-22-1.96-32.27h17.36c-1.22,8.8-1.71,16.62-1.96,26.64,11.25-18.33,29.09-29.82,47.91-29.82,20.29,0,33.24,13.69,33.24,39.6v56.22c0,12.95,.49,22,1.95,32.27h-17.35c1.47-10.27,1.95-19.31,1.95-32.27Z"/>
  <path class="cls-1" d="M549.34,1432.45c0-40.09,28.84-65.26,61.11-65.26,18.09,0,36.42,8.8,48.64,25.42-.73,4.89-3.42,7.33-7.09,7.33-4.4,0-7.09-3.42-9.29-8.31-6.35-13.2-17.6-21.27-32.75-21.27-22,0-45.71,19.31-45.71,59.4,0,36.67,21.27,61.84,48.64,61.84,23.71,0,43.27-19.07,48.64-44.49l2.69,.73c-6.11,29.58-28.11,50.6-55.73,50.6-33.49,0-59.15-29.58-59.15-66Z"/>
  <path class="cls-1" d="M686.23,1458.61v-55.98c0-12.96-.49-22-1.95-32.27h17.35c-1.47,10.27-1.95,19.31-1.95,32.27v56.22c0,21.02,9.78,32.51,26.64,32.51,15.64,0,31.04-11,41.07-28.11v-60.62c0-12.96-.49-22-1.96-32.27h17.11c-1.47,10.27-1.96,19.31-1.96,32.27v60.38c0,12.95,.49,22,1.96,32.27h-17.11c1.22-8.8,1.71-16.62,1.96-26.64-11.25,18.33-29.09,29.82-47.91,29.82-20.29,0-33.24-13.69-33.24-39.84Z"/>
  <path class="cls-1" d="M808.69,1432.21c0-37.4,26.4-65.02,58.42-65.02,28.35,0,50.35,21.27,51.33,49.87h-94.35c-.49,3.91-.73,8.07-.73,12.22,0,34.95,20.29,62.33,48.89,62.33,23.71,0,43.27-19.07,48.64-44.98l2.69,.49c-6.36,31.04-28.84,51.33-55.73,51.33-32.26,0-59.15-28.6-59.15-66.24Zm94.84-19.07c-.98-25.42-15.64-42.78-36.42-42.78s-37.4,17.11-42.29,42.78h78.71Z"/>
  <path class="cls-1" d="M1029.17,1463.01v-56.22c0-21.27-9.78-32.51-26.64-32.51-15.64,0-31.04,11-41.07,28.11v60.62c0,12.95,.49,22,1.96,32.27h-17.36c1.47-10.27,1.96-19.31,1.96-32.27v-60.38c0-12.96-.49-22-1.96-32.27h17.36c-1.22,8.8-1.71,16.62-1.96,26.64,11.25-18.33,29.09-29.82,47.91-29.82,20.29,0,33.24,13.69,33.24,39.6v56.22c0,12.95,.49,22,1.95,32.27h-17.35c1.47-10.27,1.95-19.31,1.95-32.27Z"/>
  <path class="cls-1" d="M1079.28,1463.74v-88.98h-21.02v-4.4h3.67c23.95,0,22.73-19.07,22.73-47.42h13.45c0,21.51-2.69,41.07-22,47.42h59.64v4.4h-43.02v86.04c0,19.55,7.58,30.8,20.53,30.8,15.15,0,24.69-15.15,27.87-44.98h2.93c-3.67,34.71-15.4,51.82-35.93,51.82-18.09,0-28.84-12.95-28.84-34.71Z"/>
  <path class="cls-1" d="M1166.3,1463.01v-60.38c0-12.96-.49-22-1.95-32.27h17.35c-1.47,10.27-1.95,19.31-1.95,32.27v2.69c7.09-25.18,27.86-37.15,49.38-37.15,.73,1.47,.98,3.18,.98,4.65,0,4.89-3.42,8.31-9.53,8.31-17.36,0-34.95,5.13-40.82,32.02v49.87c0,12.95,.49,22,1.95,32.27h-17.35c1.47-10.27,1.95-19.31,1.95-32.27Z"/>
  <path class="cls-1" d="M1232.54,1467.16c0-22.24,20.53-30.31,43.02-37.64,20.04-6.36,43.26-11.98,43.26-34.47,0-15.4-11.24-24.69-26.64-24.69-19.31,0-31.04,14.18-35.44,19.31-3.67,4.16-6.11,6.11-10.27,6.11s-6.85-2.93-7.33-8.55c15.89-11.24,35.44-20.04,53.29-20.04,22.49,0,39.11,12.47,39.11,37.89v54.02c0,18.58,1.22,23.96,4.15,36.18h-16.13c-.98-13.93-1.22-28.35-1.22-42.78-8.55,32.75-30.8,45.95-50.35,45.95s-35.44-11.98-35.44-31.29Zm40.82,24.2c20.04,0,44.98-18.58,44.98-63.31v-17.84c-6.6,12.47-22.24,17.11-38.38,22.49-17.84,6.36-33.98,13.44-33.98,32.27,0,16.87,12.46,26.4,27.38,26.4Z"/>
  <path class="cls-1" d="M1448.62,1463.01v-56.22c0-21.27-9.78-32.51-26.64-32.51-15.64,0-31.04,11-41.06,28.11v60.62c0,12.95,.49,22,1.95,32.27h-17.35c1.47-10.27,1.95-19.31,1.95-32.27v-60.38c0-12.96-.49-22-1.95-32.27h17.35c-1.22,8.8-1.71,16.62-1.95,26.64,11.24-18.33,29.09-29.82,47.91-29.82,20.29,0,33.24,13.69,33.24,39.6v56.22c0,12.95,.49,22,1.96,32.27h-17.36c1.47-10.27,1.96-19.31,1.96-32.27Z"/>
  <path class="cls-3" d="M198.78,650.03c0-39.51,27.89-68.68,61.71-68.68,29.95,0,53.19,22.46,54.22,52.67h-99.67c-.52,4.13-.77,8.52-.77,12.91,0,36.92,21.43,65.84,51.64,65.84,25.05,0,45.7-20.14,51.38-47.51l2.84,.52c-6.71,32.79-30.47,54.22-58.87,54.22-34.08,0-62.49-30.21-62.49-69.97Zm100.18-20.14c-1.03-26.85-16.52-45.18-38.47-45.18s-39.5,18.07-44.67,45.18h83.14Z"/>
  <path class="cls-3" d="M335.36,675.85c1.55-3.36,4.13-4.9,6.97-4.9,3.87,0,7.49,2.58,8.78,7.49,4.91,26.59,24.01,37.96,42.86,37.96,17.3,0,32.53-9.55,32.53-25.82,0-37.18-80.82-36.15-80.82-78.23,0-19.62,17.3-30.98,39.5-30.98,19.62,0,39.5,8.78,52.67,25.82-.52,4.39-3.1,7.49-7.23,7.49-4.39,0-7.23-2.84-9.81-7.49-6.97-13.43-19.11-22.46-35.11-22.46s-29.18,8.78-29.18,22.98c0,35.11,82.11,35.11,82.11,76.94,0,21.69-22.72,35.37-46.99,35.37s-48.8-12.91-56.29-44.15Z"/>
  <path class="cls-3" d="M457.23,650.54c0-41.57,28.92-69.2,66.36-69.2s66.36,27.89,66.36,69.2-28.92,69.46-66.36,69.46-66.36-27.89-66.36-69.46Zm66.36,66.1c30.21,0,50.09-25.3,50.09-66.36s-19.62-65.58-50.09-65.58-50.09,24.79-50.09,65.58,19.62,66.36,50.09,66.36Z"/>
  <path class="cls-3" d="M621.71,683.34v-93.98h-22.2v-4.65h3.87c25.3,0,24.01-20.14,24.01-50.09h14.2c0,22.72-2.84,43.38-23.24,50.09h63v4.65h-45.44v90.89c0,20.66,8,32.53,21.69,32.53,16.01,0,26.08-16.01,29.43-47.51h3.1c-3.87,36.66-16.27,54.74-37.96,54.74-19.11,0-30.47-13.68-30.47-36.66Z"/>
  <path class="cls-3" d="M705.62,650.03c0-39.51,27.89-68.68,61.71-68.68,29.95,0,53.19,22.46,54.22,52.67h-99.67c-.52,4.13-.77,8.52-.77,12.91,0,36.92,21.43,65.84,51.64,65.84,25.05,0,45.7-20.14,51.38-47.51l2.84,.52c-6.71,32.79-30.47,54.22-58.87,54.22-34.08,0-62.49-30.21-62.49-69.97Zm100.18-20.14c-1.03-26.85-16.52-45.18-38.47-45.18s-39.5,18.07-44.67,45.18h83.14Zm-35.63-101.99h17.56l-32.53,43.89h-2.58l17.56-43.89Z"/>
  <path class="cls-3" d="M852.8,682.56v-63.78c0-13.69-.52-23.24-2.07-34.08h18.33c-1.55,10.84-2.07,20.4-2.07,34.08v2.84c7.49-26.59,29.43-39.25,52.16-39.25,.77,1.55,1.03,3.36,1.03,4.91,0,5.16-3.62,8.78-10.07,8.78-18.33,0-36.92,5.42-43.12,33.82v52.67c0,13.69,.52,23.24,2.07,34.08h-18.33c1.55-10.84,2.07-20.4,2.07-34.08Z"/>
  <path class="cls-3" d="M946,535.9l12.91,12.91-12.91,13.17-13.17-13.17,13.17-12.91Zm-7.49,146.66v-63.78c0-13.69-.52-23.24-2.07-34.08h18.33c-1.55,10.84-2.07,20.4-2.07,34.08v63.78c0,13.69,.52,23.24,2.07,34.08h-18.33c1.55-10.84,2.07-20.4,2.07-34.08Z"/>
  <path class="cls-3" d="M982.41,650.29c0-42.34,30.47-68.94,64.55-68.94,19.11,0,38.47,9.3,51.38,26.85-.77,5.17-3.62,7.75-7.49,7.75-4.65,0-7.49-3.61-9.81-8.78-6.71-13.94-18.59-22.46-34.6-22.46-23.24,0-48.28,20.4-48.28,62.74,0,38.73,22.46,65.32,51.38,65.32,25.05,0,45.7-20.14,51.38-46.99l2.84,.77c-6.46,31.24-29.69,53.45-58.87,53.45-35.37,0-62.49-31.24-62.49-69.71Z"/>
  <path class="cls-3" d="M1119.77,650.54c0-41.57,28.92-69.2,66.36-69.2s66.36,27.89,66.36,69.2-28.92,69.46-66.36,69.46-66.36-27.89-66.36-69.46Zm66.36,66.1c30.21,0,50.09-25.3,50.09-66.36s-19.62-65.58-50.09-65.58-50.09,24.79-50.09,65.58,19.62,66.36,50.09,66.36Z"/>
  <path class="cls-2" d="M248.96,1209.34v-61.32c0-23.2-10.66-35.46-29.06-35.46-17.06,0-33.86,12-44.79,30.66v66.12c0,14.13,.53,24,2.13,35.19h-18.93c1.6-11.2,2.13-21.06,2.13-35.19v-65.85c0-14.13-.53-24-2.13-35.19h18.93c-1.33,9.6-1.87,18.13-2.13,29.06,12.26-20,31.73-32.53,52.26-32.53,22.13,0,36.26,14.93,36.26,43.19v61.32c0,14.13,.53,24,2.13,35.19h-18.93c1.6-11.2,2.13-21.06,2.13-35.19Z"/>
  <path class="cls-2" d="M289.76,1213.87c0-24.26,22.4-33.06,46.92-41.06,21.86-6.93,47.19-13.06,47.19-37.59,0-16.8-12.26-26.93-29.06-26.93-21.06,0-33.86,15.46-38.66,21.06-4,4.53-6.67,6.67-11.2,6.67s-7.47-3.2-8-9.33c17.33-12.27,38.66-21.86,58.12-21.86,24.53,0,42.66,13.6,42.66,41.33v58.92c0,20.26,1.33,26.13,4.53,39.46h-17.6c-1.07-15.2-1.33-30.93-1.33-46.66-9.33,35.73-33.59,50.12-54.92,50.12s-38.66-13.07-38.66-34.13Zm44.52,26.4c21.86,0,49.06-20.26,49.06-69.05v-19.46c-7.2,13.6-24.26,18.66-41.86,24.53-19.46,6.93-37.06,14.67-37.06,35.19,0,18.4,13.6,28.8,29.86,28.8Z"/>
  <path class="cls-2" d="M437.99,1210.14v-97.05h-22.93v-4.8h4c26.13,0,24.79-20.8,24.79-51.72h14.66c0,23.46-2.93,44.79-24,51.72h65.05v4.8h-46.93v93.85c0,21.33,8.26,33.59,22.4,33.59,16.53,0,26.93-16.53,30.39-49.06h3.2c-4,37.86-16.8,56.52-39.19,56.52-19.73,0-31.46-14.13-31.46-37.86Z"/>
  <path class="cls-2" d="M531.57,1204.54v-61.06c0-14.13-.53-24-2.13-35.19h18.93c-1.6,11.2-2.13,21.06-2.13,35.19v61.32c0,22.93,10.66,35.46,29.06,35.46,17.06,0,33.86-12,44.79-30.66v-66.12c0-14.13-.53-24-2.13-35.19h18.66c-1.6,11.2-2.13,21.06-2.13,35.19v65.85c0,14.13,.53,24,2.13,35.19h-18.66c1.33-9.6,1.87-18.13,2.13-29.06-12.27,20-31.73,32.53-52.26,32.53-22.13,0-36.26-14.93-36.26-43.46Z"/>
  <path class="cls-2" d="M675.28,1209.34v-65.85c0-14.13-.53-24-2.13-35.19h18.93c-1.6,11.2-2.13,21.06-2.13,35.19v2.93c7.73-27.46,30.39-40.53,53.86-40.53,.8,1.6,1.07,3.47,1.07,5.07,0,5.33-3.73,9.06-10.4,9.06-18.93,0-38.13,5.6-44.53,34.93v54.39c0,14.13,.53,24,2.13,35.19h-18.93c1.6-11.2,2.13-21.06,2.13-35.19Z"/>
  <path class="cls-2" d="M747.53,1213.87c0-24.26,22.4-33.06,46.92-41.06,21.86-6.93,47.19-13.06,47.19-37.59,0-16.8-12.26-26.93-29.06-26.93-21.06,0-33.86,15.46-38.66,21.06-4,4.53-6.67,6.67-11.2,6.67s-7.47-3.2-8-9.33c17.33-12.27,38.66-21.86,58.12-21.86,24.53,0,42.66,13.6,42.66,41.33v58.92c0,20.26,1.33,26.13,4.53,39.46h-17.6c-1.07-15.2-1.33-30.93-1.33-46.66-9.33,35.73-33.59,50.12-54.92,50.12s-38.66-13.07-38.66-34.13Zm44.52,26.4c21.86,0,49.06-20.26,49.06-69.05v-19.46c-7.2,13.6-24.26,18.66-41.86,24.53-19.46,6.93-37.06,14.67-37.06,35.19,0,18.4,13.6,28.8,29.86,28.8Z"/>
  <path class="cls-2" d="M894.7,1209.34v-139.17c0-14.13-.53-24-2.13-35.19h18.93c-1.6,11.2-2.13,21.06-2.13,35.19v139.17c0,14.13,.53,24,2.13,35.19h-18.93c1.6-11.2,2.13-21.06,2.13-35.19Z"/>
  <path class="cls-2" d="M940.03,1175.75c0-40.79,28.8-70.92,63.72-70.92,30.93,0,54.92,23.2,55.99,54.39h-102.92c-.53,4.26-.8,8.8-.8,13.33,0,38.13,22.13,67.99,53.32,67.99,25.86,0,47.19-20.8,53.06-49.06l2.93,.53c-6.93,33.86-31.46,55.99-60.79,55.99-35.19,0-64.52-31.2-64.52-72.25Zm103.45-20.8c-1.07-27.73-17.06-46.66-39.73-46.66s-40.79,18.66-46.13,46.66h85.85Z"/>
  <path class="cls-2" d="M1072,1240l85.58-128.24h-11.73c-17.6,0-39.46,1.33-62.39,6.4l-8.8-9.86h99.72v4.53l-84.52,128.24h26.93c24.79,0,51.19-3.47,64.52-8.8l-5.6,12.26h-103.71v-4.53Z"/>
  <path class="cls-2" d="M1192.51,1213.87c0-24.26,22.4-33.06,46.92-41.06,21.86-6.93,47.19-13.06,47.19-37.59,0-16.8-12.26-26.93-29.06-26.93-21.06,0-33.86,15.46-38.66,21.06-4,4.53-6.67,6.67-11.2,6.67s-7.47-3.2-8-9.33c17.33-12.27,38.66-21.86,58.12-21.86,24.53,0,42.66,13.6,42.66,41.33v58.92c0,20.26,1.33,26.13,4.53,39.46h-17.6c-1.07-15.2-1.33-30.93-1.33-46.66-9.33,35.73-33.59,50.12-54.92,50.12s-38.66-13.07-38.66-34.13Zm44.52,26.4c21.86,0,49.06-20.26,49.06-69.05v-19.46c-7.2,13.6-24.26,18.66-41.86,24.53-19.46,6.93-37.06,14.67-37.06,35.19,0,18.4,13.6,28.8,29.86,28.8Z"/>
  <path class="cls-1" d="M947.46,987.4c-1.21-17.51-2.42-35.02-3.63-52.53-.95-.36-1.89-.73-2.84-1.09-10.23,15.05-20.45,30.1-30.68,45.14-.64-.34-1.29-.68-1.93-1.01,6.42-13.01,12.84-26.02,19.26-39.03-.47-.57-.95-1.15-1.42-1.72-12.31,8.8-24.61,17.6-36.92,26.4-.93-1.21-1.86-2.41-2.79-3.62,14.53-12.87,29.06-25.74,43.58-38.62l-.85-1.5c-3.38,1.8-6.7,3.74-10.17,5.36-14.05,6.59-28.14,13.09-42.22,19.62-1.38,.64-2.73,1.65-4.16,1.8-1.59,.17-3.27-.43-4.92-.69,1.01-1.48,1.69-3.56,3.09-4.34,16.21-9.02,32.53-17.84,48.8-26.75,.92-.5,1.62-1.39,4.79-4.17h-49.6c-.06-1.21-.13-2.42-.19-3.62,13.8-1.71,27.6-3.41,41.24-5.1-5-4.64-4.98-4.87-30.4-6.36-10.7-.63-21.47-.1-31.85-.1,21.66-9.36,43.92-9.52,67.13-.8,.9-4.41,.88-7.78-5.74-9.82-14.8-4.54-26.59-13.84-35.79-26.54,16.05,7.59,32.1,15.18,48.15,22.77,.41-.48,.81-.96,1.22-1.43-15-14.13-30.01-28.27-45.01-42.4,.53-.62,1.06-1.23,1.59-1.85,15.59,12.42,31.18,24.84,46.78,37.26,.67-.37,1.34-.74,2.01-1.11-4.67-8.27-9.16-16.65-14.05-24.79-5.01-8.33-10.4-16.42-14.99-25.15,15.77,12.41,23.52,31.57,37.69,46.11,3.6-21.85,.35-43.87,4.62-65.12,1.09,0,2.18,0,3.28-.01,1.28,21.71,2.56,43.42,3.99,67.58,16.85-14.78,20.25-35.52,32.85-49.9,.86,.3,1.72,.61,2.57,.91-.86,3.06-1.38,6.27-2.64,9.17-5.8,13.36-11.85,26.6-17.65,39.96-.75,1.72-.53,3.86-.91,7.02,14.12-16.9,28.85-30.77,46.81-40.66,.54,.62,1.09,1.24,1.63,1.86-9.85,9.77-19.8,19.44-29.46,29.41-1.99,2.05-2.85,5.2-4.23,7.84,2.92-.36,6.09-.11,8.71-1.19,9.89-4.08,19.61-8.58,30.1-11.38-8.86,11.08-22.33,12.87-34.77,17.94-.42,5.83,1.57,8.23,8.23,7.85,12.17-.7,24.4-.48,36.61-.49,2.86,0,5.72,.59,8.58,.91,.01,.8,.03,1.61,.04,2.41-5.73,.68-11.45,1.55-17.2,2-9.72,.76-19.49,.98-29.17,2.06-2.35,.26-4.42,2.98-6.62,4.58,.42,.87,.84,1.74,1.26,2.62,12.87,1.42,25.74,2.84,38.61,4.27-14.76,6.81-31.13-.21-45.94,4.85-.16,.96-.33,1.92-.49,2.88,14.92,8.85,29.84,17.7,44.76,26.55-.55,1.09-1.09,2.17-1.64,3.26-16.91-7.91-33.81-15.82-50.72-23.74-.54,.42-1.08,.85-1.62,1.27,11.55,12.83,23.1,25.65,34.65,38.48-.4,.54-.8,1.08-1.19,1.61-2.35-1.36-4.94-2.43-7-4.14-9-7.49-17.99-15.01-26.65-22.89-1.97-1.79-2.6-5.06-4.77-7.3,1.91,17.34,15.28,31.06,16.37,48.71-8.34-11.75-10.5-27.53-25.13-35.3-.19,.47,.49-.39,.43-1.19-.18-2.44-.46-4.92-1.19-7.22-.12-.38-3.82-.37-4.03,.18-.77,1.98-.97,4.26-1.03,6.44-.41,15.82-.72,31.65-1.07,47.47-1.39,.05-2.79,.11-4.18,.16Zm-17.28-76.24c8,10.15,20.04,14.18,30.62,9.78,9.27-3.85,10.29-11.86,9.9-20.46-.35-7.73-13.87-20.99-20.58-20.23-8.59,.97-17.73,12.7-17.49,21.77,.07,2.67-1.4,5.38-2.46,9.13Z"/>
  <path class="cls-1" d="M1264.79,915.24c0,3.32,.57,6.75-.09,9.93-4.02,19.15-15.4,33.09-32.06,42.62-36.89,21.09-73.84,14.88-106.86-15.89-30.41-28.34-31.01-76.72-5.96-107.96,17.24-21.5,39.55-32.59,66.86-34.1,.62-.03,1.26-.03,1.85,.12,.35,.09,.62,.48,1.88,1.55-4.66,2.77-8.93,5.44-13.32,7.9-19.07,10.67-32.89,25.6-37.35,47.54-4.32,21.26,1.92,39.6,15.65,56.29,31.8,38.66,85.23,25.57,106.05-5.87,.55-.82,1.25-1.54,1.89-2.31,.49,.07,.98,.13,1.47,.2Zm-100.26-94.63c-31.3,9.05-59.51,40.14-56.81,78.55,2.63,37.42,38.87,72.98,74.95,74.34,31.32,1.18,68.26-19.07,71.58-39.25-28.72,25.85-71.66,24.2-94.82,2.96-14.91-13.68-25.37-29.92-26.94-50.61-2.07-27.37,9.27-48.75,32.05-65.99Z"/>
</svg>