<?xml version="1.0" encoding="UTF-8"?>
<svg id="Layer_1" data-name="Layer 1" xmlns="http://www.w3.org/2000/svg" viewBox="0 0 922 837">
  <defs>
    <style>
      .cls-1 {
        fill: #0d3531;
      }
    </style>
  </defs>
  <g>
    <path class="cls-1" d="M387.6,276.12c-4.03-10.89-8.01-21.8-12.09-32.67-4.9-13.06-9.9-26.09-14.81-39.15-.43-1.15-.55-2.42,.05-4.03,.71,1.16,1.58,2.24,2.1,3.48,9.33,22.24,18.7,44.46,27.86,66.77,3.31,8.07,5.92,16.42,9.19,24.5,2.4,5.93,5.27,11.68,8.14,17.4,.59,1.17,2.11,1.87,3.2,2.78,.4-1.51,1.54-3.31,1.08-4.5-3.18-8.28-6.85-16.38-10.05-24.65-7.55-19.54-15.02-39.12-22.33-58.75-2.25-6.04-3.9-12.31-5.82-18.48,.47-.16,.95-.32,1.42-.48,7.52,19.63,14.85,39.33,22.62,58.86,5.49,13.78,11.54,27.34,17.49,40.94,.52,1.18,2.12,1.9,3.22,2.83,.18-1.52,.95-3.26,.46-4.51-5.15-12.98-11.05-25.69-15.67-38.86-7.27-20.73-13.73-41.74-20.48-62.65-.37-1.15-.29-2.45-.42-3.69,.47-.12,.93-.25,1.4-.37,.61,1.33,1.36,2.61,1.81,3.99,6.17,18.79,11.83,37.77,18.59,56.35,5.21,14.34,11.76,28.19,17.79,42.23,.7,1.64,1.9,3.06,2.86,4.59l1.25-.58c-1.27-4.08-2.24-8.28-3.84-12.23-12.7-31.35-22.78-63.55-31.44-96.22-1.68-6.33-3.25-12.68-4.68-19.07-.23-1.02,.57-2.28,1.68-3.33,10.97,42.9,23.55,84.91,41.66,125.24-.75-4.34-1.07-8.82-2.33-13.01-4.74-15.73-10.22-31.24-14.6-47.06-4.77-17.21-8.65-34.68-12.87-52.04-.19-.78,.04-1.66,1.15-2.97,.75,1.32,1.96,2.56,2.18,3.96,4.87,30.56,15.44,59.65,23.11,89.49,.36,1.4,.89,2.77,1.4,4.13,.14,.37,.51,.66,1.72,.81-2.66-15.7-5.32-31.4-7.98-47.09,.46-.08,.91-.15,1.37-.23,4.23,17.04,8.5,34.08,7.73,51.97,.45,.09,.9,.18,1.35,.28,5.04-20.82,11.04-41.47,14.86-62.52,3.82-21.07,5.45-42.54,8.03-63.83,.6-.1,1.21-.21,1.81-.31,.58,1.69,1.47,3.33,1.71,5.06,3.27,24.24,6.1,48.54,9.81,72.71,1.78,11.62,5.19,22.98,8.31,34.44,0-4.07-.23-8.15,.07-12.2,.3-4.02,1.13-8,2.63-11.92-.48,12.27-.96,24.55-1.44,36.82,.44,.02,.87,.04,1.31,.06,.22-1.5,.44-3,.66-4.5,.37,0,.74,0,1.11,0v17.71c.59,.02,1.17,.05,1.76,.07,.19-2.91,1.07-5.97,.46-8.7-2.27-10.23-.9-20.3,.63-30.39,1.37-9.06,2.89-18.09,4.38-27.13,.17-1.02,.65-1.98,.99-2.97,.43,.08,.86,.17,1.3,.25-2.45,19.27-4.9,38.54-7.34,57.81,.61,.12,1.23,.25,1.84,.37,.74-2.81,1.62-5.6,2.21-8.44,7.19-35.13,14.37-70.27,21.45-105.43,.76-3.76,.67-7.68,1.39-11.45,.23-1.19,1.82-2.12,2.78-3.16,.82,1.32,2.55,2.84,2.31,3.92-3.79,17.02-7.97,33.96-11.8,50.97-6.24,27.74-12.29,55.52-18.4,83.29-.43,1.95-.67,3.94-1,5.91,.48,.15,.96,.3,1.44,.45,2.65-7.77,5.3-15.54,7.98-23.38,.18,.89,.37,1.87,.33,1.68,.93-5.75,1.48-12.62,3.19-19.18,5.46-20.89,11.41-41.66,17.07-62.5,1.94-7.14,3.5-14.37,5.4-21.52,.31-1.14,1.54-2.04,2.35-3.05,.19,1.28,.79,2.66,.5,3.82-3.64,14.35-7.51,28.64-11.12,43-5.34,21.23-10.4,42.53-15.82,63.74-1.72,6.73-4.2,13.26-6.34,19.88,3.19,1.84,3.99-.12,4.57-2.17,2.56-9.09,4.96-18.23,7.61-27.29,3.61-12.34,7.43-24.61,11.08-36.93,3.75-12.66,7.32-25.38,11.16-38.02,.63-2.07,2.26-3.83,3.42-5.73,.52,.26,1.03,.52,1.55,.78-3.7,12.69-7.4,25.39-11.11,38.08-3.79,12.96-7.8,25.86-11.33,38.88-3.44,12.68-6.4,25.5-9.57,38.26,.68,.23,1.37,.46,2.05,.7,5.05-11.48,10.1-22.96,15.15-34.45,.35,.09,.7,.17,1.06,.26-.65,2.79-1.03,5.69-2.02,8.36-2.68,7.22-5.62,14.35-8.45,21.51-.21,.54-.72,1.13-.62,1.6,.32,1.51,.85,2.97,1.3,4.45,1.11-.87,2.77-1.5,3.24-2.64,3.05-7.39,5.87-14.89,8.72-22.37,2.26-5.91,4.47-11.83,6.7-17.75-.41-.18-.81-.36-1.22-.54-.73,2.02-1.49,4.03-2.18,6.07-.74,2.18-1.41,4.38-2.95,6.56,0-1.39-.32-2.87,.05-4.16,2.24-7.78,4.21-15.67,7.09-23.22,3.78-9.91,8.3-19.53,12.51-29.27,1.79-4.13,3.69-8.22,5.38-12.39,1.41-3.48,2.53-7.08,3.92-10.57,.64-1.62,1.61-3.11,2.44-4.66,.58,.22,1.16,.44,1.74,.66-1.62,4.93-2.92,9.99-4.91,14.76-5.79,13.83-11.89,27.53-17.81,41.3-1.92,4.45-3.55,9-3.2,13.89,.42,.17,.84,.35,1.25,.52,.95-1.65,1.99-3.26,2.82-4.97,7.15-14.65,14.29-29.29,21.36-43.97,5.61-11.65,11.17-23.34,16.64-35.06,.88-1.89,1.17-4.06,1.79-6.31,3.19,.94,3.72,2.35,2.34,5.17-11.53,23.67-23,47.37-34.36,71.12-2.57,5.36-4.8,10.9-6.93,16.46-.65,1.71-.41,3.75-.58,5.64,.39,.08,.79,.16,1.18,.24,5.99-11.36,12-22.7,17.95-34.08,3.63-6.95,7.1-13.99,10.85-20.87,.48-.88,2.22-1.06,4.26-1.95-7.73,14.82-14.81,28.31-21.8,41.85-2.73,5.29-5.53,10.58-7.73,16.09-.93,2.35-.4,5.28,.2,8.04,9.95-19.25,21.9-36.86,33.88-54.46-8.05,20.39-23.55,36.72-30.42,57.78,16.29-21.23,30.51-43.96,47.81-64.33,.4,.27,.81,.53,1.21,.8-.21,.61-.31,1.31-.66,1.81-6.01,8.54-11.97,17.11-18.11,25.55-8.38,11.51-16.84,22.98-25.43,34.34-1.96,2.59-2.37,4.28,.06,6.98,3.61,4.03,2.93,6.74-2.14,10.98,.77-2.11,1.34-3.69,1.91-5.26-.22-.1-.45-.21-.67-.31-2.58,4.4-5.16,8.8-8.24,14.04,3.62-2.03,6.9-3.41,9.64-5.49,22.4-16.95,44.86-33.82,66.96-51.16,12.71-9.97,24.77-20.76,37.17-31.12,1.1-.92,2.55-1.41,4.18-1.66-30.59,34.08-56.26,71.53-80.37,110.11,.29,.28,.59,.57,.88,.85,2.44-2.11,4.93-4.18,7.32-6.35,4.41-4.03,8.54-8.39,13.21-12.09,3.22-2.55,7.14-4.22,10.75-6.27,4.01-2.27,8.4-4.05,11.96-6.87,11.53-9.11,22.19-19.42,34.28-27.67,8.34-5.7,16.09-12.25,24.07-17.3-2.11,2.5-4.21,6.03-7.22,8.4-15.68,12.39-31.64,24.42-47.39,36.71-4.15,3.24-8.21,6.12-13.43,7.77-4.57,1.45-8.86,4.42-12.7,7.45-8.99,7.1-17.64,14.63-26.4,22.02-.89,.75-1.59,1.74-2.11,2.89,7.48-1.75,13.28-5.95,18.95-10.79,8.21-7.01,17.58-12.27,27.92-15.73,3.27-1.1,6.51-2.6,9.36-4.52,10.97-7.38,21.75-15.06,32.68-22.5,2.18-1.48,4.73-2.42,7.11-3.61,.21,.34,.42,.69,.64,1.03-1,.94-1.9,2.05-3.03,2.81-12.55,8.44-25.07,16.91-37.76,25.14-2.1,1.36-5.18,1.13-7.4,2.37-9.53,5.3-19.1,10.57-28.26,16.46-6,3.86-11.3,8.83-16.99,13.18-1.24,.94-2.92,1.28-4.26,2.11-1.33,.82-2.49,1.9-3.72,2.86,.25,.46,.5,.92,.76,1.38,2.89-1.04,6.03-1.66,8.63-3.2,7.49-4.44,15.04-8.87,22.05-14,9.24-6.75,18.98-12.06,30.03-15.31,5.31-1.56,10.17-4.75,15.14-7.38,4.92-2.6,9.72-5.43,14.57-8.16,.3,.5,.6,1,.9,1.5-2.47,1.54-4.94,3.08-7.41,4.61-3.32,2.07-6.54,4.35-10,6.15-4.08,2.12-8.48,3.65-12.56,5.76-9.5,4.93-18.9,10.04-28.32,15.13-.39,.21-.53,.89-1.03,1.78,24.46-7.26,46.9-17.94,68.91-29.66,.31,.5,.61,1,.92,1.5-3.27,2.04-6.39,4.38-9.83,6.05-11.11,5.4-22.31,10.62-33.55,15.75-3.95,1.8-8.01,3.9-12.22,4.54-14.65,2.21-26.62,10.66-39.74,16.4-1.61,.71-2.94,2.07-4.06,3.62,21.73-7.26,43.46-14.53,65.2-21.79,.12,.31,.23,.61,.35,.92-5.01,2.26-9.93,4.77-15.06,6.73-13.04,4.99-26.22,9.6-39.24,14.64-4.34,1.68-8.72,3.71-10.84,8.91,1.74-.45,3.54-.74,5.21-1.37,11.86-4.41,23.8-8.63,35.5-13.43,8.98-3.69,17.56-8.34,26.47-12.2,7.16-3.1,14.51-5.82,21.87-8.4,5.9-2.07,11.95-3.7,17.95-5.47,1.04-.31,2.15-.38,3.23-.56,.13,.43,.27,.86,.4,1.29-3.6,1.25-7.23,2.42-10.8,3.77-10.31,3.89-20.65,7.71-30.87,11.82-19.13,7.7-38.19,15.57-57.26,23.41-2.55,1.05-5.1,2.15-7.44,3.58-.99,.6-1.45,2.1-2.15,3.19,1.19,.09,2.51,.58,3.54,.22,10.44-3.59,20.93-7.06,31.22-11.05,20.31-7.88,40.5-16.09,60.76-24.09,2.1-.83,4.4-1.19,6.97-.78-1.46,.68-2.89,1.43-4.38,2.02-12.42,4.97-24.91,9.76-37.25,14.92-10.31,4.31-20.38,9.19-30.66,13.58-8.82,3.76-17.78,7.18-26.67,10.78-.49,.2-.89,.62-1.19,2.03,2.57-.26,5.29-.08,7.69-.87,13.14-4.28,26.26-8.66,39.27-13.33,2.72-.98,4.84-3.53,7.47-4.91,3.58-1.87,7.29-3.6,11.13-4.86,14.48-4.76,28.98-9.43,43.56-13.86,4.52-1.38,9.37-1.65,13.93-2.9,5.3-1.45,10.43-3.5,15.67-5.16,2.66-.84,5.41-1.38,8.12-2.05,.25,.6,.49,1.2,.74,1.79-1.41,.82-2.72,2.03-4.24,2.4-6.18,1.48-12.49,2.42-18.61,4.09-7.34,2-14.52,4.59-21.8,6.84-12.9,3.99-25.9,7.66-38.69,12-4.32,1.47-8.08,4.54-12.1,6.89-1.25,.73-2.41,1.67-3.75,2.16-11.89,4.33-23.83,8.55-35.72,12.86-2.81,1.02-5.53,2.28-8.28,3.42,.15,.42,.3,.84,.46,1.26,7.34-1.97,14.64-4.13,22.04-5.85,8.36-1.94,16.76-3.78,25.22-5.11,7.88-1.23,15.87-1.74,23.92-2.42-22.56,5.12-45.12,10.23-67.68,15.35,.11,.51,.22,1.02,.33,1.52,16.51-.14,32.21-5.03,48.52-8.41,.43,.65,1.03,1.57,1.9,2.89,9.65-2.35,19.23-5.28,29.02-6.91,9.69-1.62,19.6-1.93,30.32-2.9-2.43,4.83-1.18,5.34,2.48,4.26,3.61-1.06,7.45-1.3,11.12-2.16,2.33-.55,4.51-1.72,6.84-2.3,1.11-.28,2.49-.04,3.58,.4,.57,.23,1.25,1.77,1.03,2.04-.65,.81-1.66,1.66-2.63,1.82-5.53,.89-11.1,1.54-16.65,2.35-2.5,.36-4.97,.91-7.8,1.43,.15,.1-.24,0-.31-.21-1.97-6.04-1.96-6-8.7-4.97-8.77,1.34-17.92,1.45-26.25,4.14-14.5,4.68-29.67,3.5-44.23,6.8-2.81,.64-5.48,1.99-8.31,2.43-5.8,.9-11.66,1.4-17.15,2.02,43.79,9.79,88.84,15.96,133.84,23.57-40.79,3.11-80.58,10.96-120.14,20.16,.01,.69,.03,1.37,.04,2.06,9.82,1.2,19.62,3.3,29.45,3.39,15.49,.14,31-1.76,46.46,.57,2.97,.45,5.9,1.22,8.84,1.84-.1,.66-.2,1.32-.29,1.99-4.75-.49-9.49-1.15-14.25-1.44-10.59-.66-21.19-1.14-31.78-1.68-.58-.03-1.21-.1-1.74,.08-11.5,4.04-22.52-.68-33.72-1.86-5.16-.54-10.27-1.51-15.4-2.29-.13,.5-.26,1-.38,1.5,6.15,2.01,12.21,4.4,18.47,5.94,7.91,1.94,15.99,3.14,23.97,4.81,1.24,.26,2.31,1.3,3.13,2.68-17.84-.44-34.23-7.18-51.27-10.65-.21,.54-.42,1.08-.63,1.62,1.45,.87,2.81,2.01,4.37,2.58,25.57,9.26,51.16,18.44,76.75,27.64,.96,.34,1.93,.78,2.92,.88,16.09,1.63,30.48,9.07,45.79,13.33,.93,.26,1.83,.67,2.53,1.82-5.06-1.22-10.13-2.38-15.18-3.66-8.01-2.02-16.11-3.75-23.96-6.26-19.09-6.1-38.06-12.6-57.1-18.88-11.99-3.96-24.01-7.83-36.04-11.67-1.34-.43-2.81-.45-4.23-.65-.17,.42-.34,.84-.51,1.26,4.5,2.06,8.9,4.4,13.52,6.14,22.46,8.46,44.96,16.83,67.5,25.09,8.19,3,16.67,5.21,24.75,8.46,6.53,2.63,12.58,6.4,18.96,9.43,3.39,1.61,7.01,2.7,10.53,4.02,1.66,.62,3.31,1.25,4.96,1.87l-.26,1.2c-2.05-.18-4.34,.17-6.12-.62-5.91-2.63-11.57-5.84-17.47-8.5-4.7-2.12-9.56-3.92-14.44-5.58-12.93-4.39-26.02-8.35-38.86-13.01-18.86-6.84-37.55-14.15-56.33-21.21-1.89-.71-3.88-1.26-5.87-1.56-1.1-.17-2.3,.35-3.46,.56,.82,1.01,1.43,2.48,2.48,2.95,6.23,2.81,12.53,5.47,18.87,8.02,21.58,8.68,43.22,17.2,64.75,25.97,6.79,2.77,13.34,6.12,20.01,9.21-.11,.41-.23,.83-.34,1.24-1.9-.32-3.88-.38-5.67-1.01-4.39-1.55-8.7-3.33-13.02-5.09-17.51-7.12-35.02-14.26-52.52-21.4-10.64-4.34-21.25-8.76-31.92-13.02-1.57-.63-3.42-.59-5.13-.86-.16,.55-.32,1.11-.48,1.66,1.52,.96,2.94,2.14,4.57,2.86,16.08,7.12,32.26,14.02,48.29,21.26,17.23,7.78,34.3,15.94,51.51,23.78,6.4,2.92,13.05,5.29,19.48,8.14,3.3,1.47,6.38,3.45,9.55,5.2-.29,.57-.59,1.13-.88,1.7-4.24-2.06-8.41-4.25-12.72-6.14-12.75-5.6-25.51-11.15-38.33-16.58-13.92-5.9-27.98-11.48-41.85-17.48-12.54-5.43-24.9-11.24-37.35-16.87-.5-.22-1.03-.37-2.32,.26,1.5,1.47,2.75,3.42,4.53,4.34,9.16,4.75,18.76,8.72,27.64,13.93,12.01,7.06,23.5,15.01,35.22,22.57,3.05,1.97,6.23,3.78,9.17,5.89,3,2.16,5.8,4.6,8.46,7.07-28.89-16.56-57.79-33.12-87.34-50.06,.58,4.63,2.85,6.99,6.12,8.76,11.9,6.44,23.89,12.73,35.6,19.51,5.26,3.04,10.02,6.97,14.84,10.72,13.76,10.7,27.44,21.51,41.14,32.3,.42,.33,.66,.88,.98,1.33-.22,.33-.43,.67-.65,1-2.18-1.33-4.51-2.46-6.52-4.01-12.08-9.34-23.71-19.33-36.24-28.03-11.44-7.94-23.8-14.57-35.81-21.66-5.07-3-10.32-5.71-15.48-8.55l-.86,1.2c2.01,1.67,3.91,3.49,6.05,4.97,4.71,3.25,9.56,6.31,10.56,12.63l.1-.1c-3.31-3.06-6.61-6.12-9.92-9.18,20.16,40.36,48.73,74.56,75.97,109.82-16.05-16.24-34.4-29.74-52.61-43.25-18.19-13.49-34.25-30.08-54.85-40.2-.34,.38-.68,.76-1.01,1.14,6.72,8.71,13.44,17.41,20.16,26.12-.44,.33-.88,.66-1.32,1-2.61-3.27-4.67-7.31-7.93-9.68-9.81-7.12-14.31-18.72-23.29-26.43-.75-.65-1.47-1.33-3.11-1.47,1.41,2.71,2.69,5.5,4.29,8.09,1.06,1.71,2.46,3.27,3.93,4.67,10.13,9.64,16.26,22.14,24.02,33.48,.86,1.26,1.36,2.76,2.02,4.15-.32,.22-.64,.43-.96,.65-6.15-8.17-12.3-16.33-18.45-24.5-.35,0-.69-.01-1.04-.02,0,1.71-.56,3.68,.1,5.08,2.59,5.53,5.53,10.89,8.4,16.28,2.3,4.32,4.67,8.6,7.01,12.89-.37,.22-.73,.44-1.1,.66-6.19-9.23-12.39-18.46-19.1-28.46-.35,6.81,2.24,11.57,4.91,16.41,8.57,15.54,17,31.16,25.45,46.77,.5,.92,.63,2.05,.93,3.08-.43,.27-.86,.54-1.29,.81-1.31-1.79-2.86-3.44-3.89-5.38-6.07-11.44-11.93-22.99-18.03-34.41-2.72-5.09-5.82-9.98-8.75-14.96-.4,.12-.81,.24-1.21,.36,.63,2.49,.89,5.16,1.96,7.43,7.09,15,14.65,29.79,21.46,44.91,6.2,13.77,11.69,27.87,17.39,41.86,.59,1.45,.53,3.18,.78,4.77-.49,.15-.99,.3-1.48,.45-4.1-10.37-7.84-20.9-12.41-31.06-4.78-10.61-10.47-20.8-15.56-31.27-5-10.28-9.76-20.69-14.8-31.42-3.01,3.36-2.37,6.14-1.06,9.11,4.94,11.19,10.14,22.28,14.56,33.68,3.99,10.28,7.13,20.9,10.53,31.41,.22,.69-.46,1.67-.73,2.51-.8-.64-2.05-1.12-2.34-1.94-1.99-5.61-3.44-11.42-5.69-16.92-6.99-17.09-13.86-34.26-21.69-50.96-2.1-4.48-2.23-8.84-3.06-13.24-2.31-12.35-7.57-23.53-12.98-34.67-.45-.93-2.38-1.14-3.63-1.69-.51,1.4-1.81,3.09-1.42,4.16,5.56,15.3,11.31,30.53,17.1,45.75,4.24,11.15,8.61,22.25,12.87,33.39,.4,1.03,.44,2.2,.7,3.58-3.78-.18-4.69-2.73-5.6-5.36-6.19-17.99-12.26-36.03-18.68-53.95-2.84-7.92-6.41-15.58-9.68-23.44-1.55,.83-2.78,1.48-4.34,2.31,15.39,35.31,25.61,72.44,36.51,109.34,.15,.5-.49,1.23-1.26,3.01-1.4-3.27-2.61-5.53-3.35-7.93-6.01-19.61-11.68-39.33-17.99-58.84-3.48-10.79-7.72-21.35-12.16-31.79-1.64-3.86-4.83-7.05-7.78-10.43,17.77,40.11,24.74,83.33,37.64,124.85-.64,.46-1.27,.92-1.91,1.38-1.03-.73-2.88-1.37-2.98-2.21-2.5-22.15-11.46-42.64-16.34-64.16-2.5-11.05-5.12-22.08-7.66-33.04-.43,0-.66-.05-.69,0-.2,.37-.36,.76-.51,1.1-.49-2.42-1-4.89-1.5-7.36-.47,.08-.95,.15-1.42,.23,1.52,11.14,2.42,22.41,4.71,33.4,3.44,16.49,7.94,32.75,11.81,49.15,1.73,7.34,3,14.79,4.53,22.18,.94,4.53,2.25,8.99,2.89,13.56,.35,2.5-.35,5.15-.58,7.73-.57,.04-1.15,.08-1.72,.12-.56-1.63-1.39-3.22-1.62-4.9-.59-4.39-.72-8.85-1.38-13.23-.84-5.57-1.82-11.14-3.08-16.63-2.76-12.02-5.31-24.12-8.71-35.97-4.94-17.2-6.89-34.77-8.27-52.5-.36-4.56-1.59-9.05-3.39-13.43,.48,6.76,.97,13.53,1.45,20.29-.3,.03-.6,.06-.9,.1-1.33-6.81-2.65-13.63-3.98-20.44-.67,.13-1.33,.26-2,.39,1.94,9.79,4.2,19.53,5.71,29.38,1.5,9.75,2.25,19.62,3.33,29.44l-2,.25c-2.27-16.91-4.55-33.82-6.82-50.72-.43,.04-.86,.08-1.29,.11-4.2,12.88,2.31,26.31-1.09,39.23l-1.68,.02v-22.52c-.54-.02-1.08-.04-1.61-.06-9.11,32.96-11.63,67.15-17.23,100.77-.59,.04-1.19,.07-1.78,.11-.48-1.62-1.21-3.2-1.39-4.85-1.53-13.75-2.18-27.65-4.64-41.23-2.74-15.14-6.98-30.02-10.78-44.96-2.5-9.82-5.36-19.55-8.14-29.64-13.59,33.71-20.38,69-28.66,103.86-.6-.13-1.2-.26-1.8-.38,1.2-7.57,1.87-15.27,3.72-22.68,5.2-20.87,10.04-41.89,16.79-62.27,2.67-8.05,5.91-15.93,7.63-24.3,.43-2.1,.44-4.29,.68-6.81-4.95,11.3-9.7,22.13-14.43,32.96,3.54-12.56,7.08-25.1,10.61-37.64-1.16-.05-1.57,.14-1.75,.46-5.95,10.77-8.31,22.53-9.43,34.61-.07,.8,.41,1.66,.63,2.49-4.04,13.48-8.38,26.89-12.05,40.47-4.36,16.1-8.15,32.36-12.22,48.54-.37,1.46-.97,2.85-1.47,4.27-.46-.05-.91-.11-1.37-.16,0-2.35-.46-4.8,.07-7.03,5.56-23.47,11.91-46.69,19.63-69.58,3.6-10.65,5.26-21.96,7.8-32.97-.41-.12-.82-.25-1.23-.37-2.45,6.43-5.12,12.78-7.31,19.29-6.94,20.64-13.71,41.34-20.5,62.03-.68,2.07-.9,4.3-1.7,6.3-.68,1.69-1.91,3.17-3.45,4.44,9.34-39.97,24.7-77.8,39.94-115.68-.73-.39-1.46-.78-2.19-1.17-1.28,1.74-2.94,3.31-3.78,5.23-5.59,12.8-11.2,25.6-16.44,38.55-5.67,14.02-10.9,28.22-16.41,42.31-.63,1.61-1.85,2.98-3.4,4.08,8.12-32.04,24.65-60.74,34.59-91.94-2.87-1.99-4.47-1.43-5.66,1.75-3.98,10.63-8.23,21.16-12.19,31.8-.78,2.08-.72,4.48-1.05,6.79-2.83-1.23-3.91,.77-4.86,3.08-7.82,19.11-15.65,38.21-23.49,57.31-.1,.24-.37,.41-.71,.78-3.19-1.27-1.61-3.57-.89-5.33,4.71-11.58,9.47-23.15,14.37-34.65,2.91-6.82,6.13-13.51,9.16-20.29,.46-1.02,.64-2.15,.95-3.24-.39-.32-.78-.65-1.18-.97-2.2,2.34-4.84,4.4-6.48,7.08-2.18,3.57-3.44,7.69-5.35,11.45-9.46,18.67-18.96,37.32-28.54,55.92-3.19,6.21-6.65,12.28-10.01,18.39-.36,.65-.93,1.18-2.36,1.31,1.4-3.72,2.51-7.59,4.28-11.13,3.11-6.24,6.81-12.18,9.95-18.41,10.22-20.25,20.34-40.54,30.36-60.89,1.31-2.65,1.75-5.73,2.59-8.61-.45-.22-.9-.45-1.35-.67-3.16,5.22-6.54,10.32-9.43,15.69-6.4,11.92-12.61,23.94-18.76,35.98-1.59,3.11-3.44,2.18-5.71,1.21,5.86-10.12,11.81-19.86,17.22-29.9,5.33-9.89,12.24-19.02,16.09-29.65-.74-.44-1.48-.87-2.22-1.31-11.14,16.35-22.27,32.7-33.41,49.04-.33-.17-.66-.33-1-.5,1.08-2.36,1.85-4.94,3.29-7.06,8.9-13.09,18.03-26.02,26.88-39.14,1.18-1.75,1.27-4.24,1.04-6.8-14.06,19.43-31.54,36.11-41.8,58.2l-2.02-1.06c.46-1.14,.75-2.4,1.42-3.41,2.34-3.48,4.81-6.87,7.24-10.29,5.03-7.1,10.04-14.21,15.08-21.3,4.88-6.86,10.08-13.52,14.53-20.65,1.76-2.83,1.88-6.68,2.75-10.07-.51-.26-1.01-.52-1.52-.78-1.52,1.34-3.05,2.67-4.9,4.3,.87-2.07,2.74-4.55-1.43-4.54,2.57-3.98,4.99-7.73,7.41-11.48-.39-.32-.78-.65-1.16-.97-7.33,5.04-14.98,9.67-21.93,15.19-16.42,13.04-32.55,26.45-48.7,39.81-9.3,7.69-18.28,15.78-27.72,23.3-2.97,2.37-6.96,3.46-10.97,4.29,2.78-1.88,5.59-3.71,8.32-5.65,1.4-.99,2.93-1.96,3.94-3.29,7.56-9.98,14.84-20.17,22.51-30.06,14.84-19.13,28.15-39.26,40.23-60.24,3.47-6.03,7.45-11.76,11.43-18-2.05,1.05-4.02,1.96-5.89,3.05-5.92,3.43-11.7,7.11-17.71,10.35-7.02,3.78-14.32,7.05-21.34,10.82-4.08,2.19-8.16,4.57-11.71,7.5-11.89,9.79-23.51,19.9-35.31,29.79-1.33,1.12-3.18,1.62-4.79,2.41-.25-.34-.5-.68-.74-1.03,1.34-1.35,2.59-2.8,4.03-4.03,3.93-3.34,7.97-6.55,11.91-9.88,1.32-1.11,2.35-2.6,3.73-3.61,13.56-9.95,26.2-21.08,42-27.94,9.76-4.24,18.38-11.08,27.64-16.54,2.45-1.44,5.31-2.22,8.05-3.11,3.32-1.08,5.29-3.21,5.38-7.66-31.45,16.05-62.9,32.1-94.35,48.16l-.69-1.34c29.78-18.74,61.97-33.2,92.49-50.62-.2-.45-.4-.9-.61-1.34-18.13,8.04-36.5,15.61-54.34,24.27-18,8.73-36.09,17.1-55.41,23.04,.3-.34,.53-.82,.9-1,29.47-13.83,58.95-27.66,88.44-41.44,5.8-2.71,11.74-5.1,17.48-7.92,1.2-.59,1.8-2.41,2.68-3.66-1.46-.2-3.18-1.01-4.34-.52-13.15,5.53-26.25,11.17-39.28,16.97-16.47,7.33-32.84,14.87-49.3,22.23-3.55,1.59-7.28,2.8-11.21,3.56,33.36-17.39,67.39-33.37,102.25-47.61-.16-.72-.32-1.44-.48-2.16-2.15,.15-4.48-.21-6.41,.52-11.17,4.2-22.22,8.69-33.35,13-10.56,4.1-21.16,8.09-31.28,11.96,.32-.37,1.16-1.35,2.55-2.96-28.26,3.45-51.35,18.6-76.46,28.17-.33-.35-.67-.69-1-1.04,.79-.89,1.41-2.21,2.4-2.61,9.67-3.91,19.43-7.59,29.1-11.5,4.84-1.96,9.74-3.92,14.26-6.49,9.49-5.4,20.34-5.85,30.41-9.04,10.51-3.33,20.87-7.15,31.21-11,9.54-3.56,18.97-7.42,28.44-11.18,2.27-.9,4.49-1.92,7-3-1.91-3.66-4.68-2.25-6.84-1.52-6.87,2.33-13.75,4.72-20.44,7.52-16.32,6.84-33.43,10.81-50.58,14.82-7.88,1.84-15.42,5.13-23.17,7.59-3.16,1-6.5,1.42-9.69,2.33-8.47,2.42-16.88,5.05-25.37,7.38-1.79,.49-3.83,.07-5.8-.41,46.97-12.19,92.98-27.05,138.36-43.88-.09-.54-.17-1.07-.26-1.61-1.97,.13-4.03-.07-5.91,.42-24.89,6.48-49.76,13.07-74.64,19.58-6.02,1.58-12.09,2.96-18.14,4.44-.15-.41-.29-.83-.44-1.24,4.2-1.44,8.3-3.56,12.62-4.2,22.02-3.26,42.58-11.72,63.9-17.44,4.9-1.32,9.8-2.65,14.71-3.98,.05-.38,.1-.76,.15-1.15-2.52-.32-5.18-1.34-7.53-.85-11.1,2.31-22.1,5.1-33.16,7.58-14.47,3.24-28.97,6.32-43.44,9.52-8.49,1.88-16.94,3.97-25.45,5.79-2.46,.53-5.05,.44-7.57,.63-.07-.44-.13-.87-.2-1.31,35.2-7.97,70.41-15.94,105.61-23.91-.03-.37-.06-.75-.1-1.12-20.76-4.39-41.4-9.44-62.3-12.98-20.89-3.54-42.03-5.56-63.04-8.61,37.96-5.74,76.31-8.53,114.51-18.28-5.94-.79-10.98-1.41-16-2.13-5.09-.73-10.16-1.55-15.17-2.85,15.58-1.36,30.75,6.27,46.42,1.63,.09-.45,.17-.89,.26-1.34-31.68-6.07-63.37-12.14-95.05-18.21-.01-.09-.02-.19-.03-.28,3.52,0,7.12-.5,10.54,.09,13.32,2.3,26.56,5.05,39.88,7.42,12.73,2.26,25.53,4.18,38.27,6.4,6.24,1.08,12.41,2.5,18.81,2.96-25.94-10.81-54.11-13.74-80.26-23.85,27.79,6.21,55.59,12.42,83.38,18.63,.13-.31,.25-.62,.38-.92-1.55-.85-3.02-1.94-4.67-2.53-12.74-4.54-25.38-9.47-38.35-13.27-7.46-2.19-15.56-2.12-23.22-3.77-9.62-2.07-19.08-4.86-28.43-7.89,16.39,2.86,32.94,5,49.11,8.78,16.01,3.74,31.63,9.14,48.14,13.04-1.23-1.1-2.28-2.63-3.72-3.22-11.72-4.77-23.32-9.96-35.35-13.78-7.25-2.3-15.35-1.76-22.8-3.58-18.78-4.58-37.44-9.65-56.09-14.77-9.22-2.53-18.31-5.56-27.41-8.49-1.48-.47-2.75-1.6-4.11-2.42,.15-.46,.31-.92,.46-1.39,1.36,.19,2.85,.08,4.06,.61,18.25,7.91,37.66,11.8,56.81,16.56,12.98,3.23,25.94,7.03,39.14,8.74,16.95,2.19,31.89,9.59,47.51,15.32,1.59,.58,3.37,.64,5.06,.93,.23-.49,.47-.99,.7-1.48-1.62-1.22-3.08-2.75-4.87-3.59-6.58-3.11-13.32-5.86-19.9-8.97-13.91-6.58-27.66-13.5-41.65-19.91-7.76-3.56-15.87-6.37-23.82-9.52,.16-.62,.33-1.23,.49-1.85,2.35,.47,4.84,.6,7.03,1.48,10.26,4.12,20.44,8.42,30.63,12.72,3.21,1.35,6.35,2.87,9.51,4.34,13.95,6.53,27.88,13.09,41.84,19.6,.74,.35,1.64,.36,3.15-.26-1.55-1.47-2.89-3.31-4.69-4.33-5.68-3.24-11.48-6.3-17.34-9.21-8.19-4.08-16.49-7.93-24.7-11.96-9.14-4.48-18.38-8.79-27.31-13.67-7.08-3.87-13.74-8.5-20.23-13.51,31.75,15.38,63.5,30.75,95.25,46.13,.37-.59,.75-1.18,1.12-1.77-1.29-1.11-2.43-2.51-3.9-3.29-19.8-10.46-39.74-20.64-59.44-31.29-11.26-6.09-22.13-12.9-33.15-19.42-1.18-.7-2.2-1.69-3.11-2.8,16.76,8.72,33.24,17.75,50.57,25.4,17.15,7.57,33.02,18.04,49.99,26.18,.35-.47,.69-.94,1.04-1.4-1.61-1.41-3.03-3.14-4.85-4.17-18.36-10.37-36.95-20.33-55.13-31-13.54-7.95-26.57-16.77-39.82-25.21-1.32-.84-2.56-1.79-3.84-2.69,.39-.56,.78-1.12,1.17-1.69,1.94,.87,4.08,1.45,5.78,2.66,7.11,5.07,14.08,10.35,21.12,15.52,1.99,1.46,3.93,3.08,6.11,4.18,11,5.58,22.12,10.91,33.09,16.54,7.5,3.85,14.81,8.05,22.21,12.1,.97,.53,1.94,1.07,3.54,1.94-3.92-11.67-16.48-13.55-22.6-21.92,.26-.36,.52-.71,.78-1.07,4.25,2.96,8.49,5.92,12.74,8.87,.17-.13,.35-.25,.52-.38-1.85-3.2-3.45-6.57-5.58-9.57-10.96-15.42-21.9-30.85-33.14-46.06-9.42-12.76-19.14-25.29-28.93-37.77-1.94-2.47-4.8-4.21-7.93-6.89,.17-.34,.79-1.64,1.55-3.21,36.26,30.08,70.61,61.84,111.22,87.82-1.97-2.88-3.08-5.19-4.8-6.89-10.64-10.55-21.41-20.98-32.16-31.42-6.05-5.88-12.2-11.67-18.19-17.62-1.2-1.19-1.89-2.89-2.82-4.36l1.65-1.37c17.7,18.32,35.39,36.65,53.09,54.97,.51-.39,1.03-.78,1.54-1.16-2.36-4.21-4.2-8.85-7.18-12.57-12.36-15.44-25.15-30.53-37.59-45.91-5.11-6.32-9.72-13.03-14.29-19.96,2.94,2.91,6.21,5.56,8.75,8.78,14.98,18.96,29.78,38.06,44.67,57.09,.97,1.24,2.16,2.32,3.07,3.28,1.56-2.89,4.64-5.95,4.27-8.51-.58-3.96-3.48-7.6-5.53-11.3-.42-.76-1.69-1.05-2.15-1.8-6.51-10.52-12.98-21.06-19.39-31.64-.87-1.44-1.43-3.06-1.44-5.02,11.07,15.56,22.49,30.85,30.94,48.1,.53-.11,1.05-.22,1.58-.33-.24-2.15,.07-4.55-.81-6.39-4.61-9.7-9.48-19.28-14.35-28.86-3.67-7.22-7.47-14.37-11.22-21.56,.39-.26,.79-.53,1.18-.79,2.63,3.93,5.44,7.75,7.85,11.8,2.6,4.37,4.79,8.99,7.25,13.45,2.39,4.33,5.09,8.5,7.3,12.92,2.2,4.4,3.96,9.03,5.91,13.56,.44,.04,.88,.09,1.31,.13,.14-1.99,.97-4.27,.3-5.92-3.19-7.79-6.65-15.48-10.27-23.08-10.02-21.02-20.18-41.96-30.22-62.97-1.03-2.16-1.58-4.55-2.35-6.84,.43-.3,.86-.61,1.28-.91,1.11,1.36,2.55,2.56,3.29,4.1,7.98,16.66,15.82,33.38,23.76,50.05,5.82,12.21,11.7,24.4,17.7,36.52,.56,1.13,.92,3.91,3.58,2.2,.32,1.98,.89,3.96,.91,5.95,.13,12.56,6.49,22.7,12.75,32.83,.89,1.43,3.06,2.07,4.64,3.07,.36-.41,.72-.82,1.09-1.22-.66-1.53-1.28-3.08-2-4.58-2.85-6.02-5.89-11.96-8.56-18.06-2.33-5.31-4.2-10.82-6.45-16.16-.33-.78-1.64-1.14-2.5-1.7Zm-42.77,57.61c2.75,3.77,5.31,7.71,8.37,11.21,1.02,1.17,3.34,1.22,5.06,1.77,.16-.41,.32-.82,.48-1.24-.52-.42-1.05-.85-1.57-1.27-3.43-8.11-11.32-11.72-16.89-17.67-.31,.28-.61,.56-.92,.84,1.82,2.12,3.64,4.24,5.46,6.36Zm182.54,171.01c2.45-1.79,4.9-3.58,7.39-5.4-5.47-4.87-10.28-9.16-15.1-13.45-.47,.27-.93,.55-1.4,.82-1.25,7.49,6.61,10.36,9.73,15.95-.98-.33-1.71-.58-2.65-.89,.32,.87,.56,1.53,.79,2.18-3.74-4.13-7.48-8.26-10.18-11.24-2.1,1.45-4.44,3.07-6.94,4.79,3.34,4.9,6.58,9.65,10.2,14.97,2.81-2.67,5.48-5.2,8.15-7.72Zm-156.26-168.24c.17-1.77,.93-3.76,.37-5.26-.8-2.18-2.64-3.97-3.83-6.04-.22-.38,.5-1.31,.78-1.98,2.41,4.03,4.81,8.05,6.89,11.52,.61-4.73-2.12-9.62-6.96-11.43-2.06-1.75-4.02-3.64-6.2-5.23-11.73-8.56-23.62-16.9-35.22-25.63-5.47-4.11-10.4-8.93-15.57-13.44,6.4,7.59,12.44,15.61,19.98,21.79,12.63,10.35,24.84,21.02,35.79,33.14,1.05,1.16,2.8,1.68,4.22,2.49,0,0-.25,.08-.24,.08Zm176.47,185.7c-2.77-2.98-5.55-5.96-8.32-8.95,1.9,4.13,4.17,8,6.63,11.76,.2,.31,1.69-.24,2.59-.39,2.44,2.34,4.7,4.9,7.35,6.97,8.11,6.36,16.37,12.53,24.56,18.79,4.63,3.54,9.25,7.09,13.87,10.64,.25-.3,.51-.59,.76-.89-1.13-.91-2.29-1.78-3.38-2.73-12.34-10.76-23.44-22.54-31.87-36.75-2.49-4.2-6.17-7.71-9.45-11.41-3.06-3.45-6.31-6.74-9.61-10.24-1.14,1.45-1.86,2.37-2.31,2.94,9.2,11.5,18.19,22.72,27.17,33.94-.45,.37-.9,.75-1.35,1.12-8.27-9.77-16.54-19.55-24.81-29.32-.15,.15-.3,.3-.46,.45,2.87,4.69,5.75,9.37,8.62,14.06Zm-92.81-187.75c-43.88-2.44-89.77,39.52-87.45,90.93,1.81,40.13,37.42,86.39,90.22,84.47,46.25-1.69,87.47-40.31,85.9-90.88-1.48-47.86-44.3-85.37-88.67-84.52Zm-82.29,181.29c-.58-.59-1.16-1.19-1.74-1.78-3.21,3.28-6.41,6.57-9.62,9.85-.17-.14-.34-.27-.51-.41,2.59-3.33,5.18-6.66,7.65-9.82-.82-1.41-1.48-2.54-1.92-3.3-2.41,1.14-4.73,2.24-7.06,3.34,2.84-3.28,5.96-6.02,8.99-8.86,2.58-2.42,2.05-4.44-1.29-6.2-8.54,6.54-13.27,17.29-23.52,22.05,8.06-6.84,14.99-14.58,19.86-24.04-3.51,4.16-7.02,8.32-10.53,12.48-.27-.23-.53-.46-.8-.7,1.62-2.02,3.23-4.06,4.87-6.07,1.66-2.03,4.29-3.88,1.02-6.96-1.7,1.06-3.86,1.69-4.85,3.13-5.81,8.37-11.34,16.94-16.99,25.42-7.56,11.34-15.02,22.75-22.76,33.96-3.77,5.46-8.1,10.55-12.17,15.81,4.96-4.23,9.07-9.12,13.22-13.99,4.24-4.98,8.53-9.92,12.76-14.91,4.14-4.88,8.14-9.88,12.4-14.65,4.23-4.75,8.71-9.29,13.07-13.92,.26,.27,.53,.54,.79,.81-12.11,14.7-24.22,29.4-34.46,41.84,13.13-9.99,28.55-21.57,43.78-33.4,3.6-2.8,6.56-6.42,9.82-9.66Zm73.38-208.58c.77,.08,1.54,.16,2.31,.24,2.88-28.26,5.76-56.52,8.57-84.11,.19,2.01,.55,4.74,.67,7.48,.37,8.28,.61,16.56,1.01,24.84,.05,.98,.79,1.93,1.42,3.38-2.18,2.5-2.1,3.3,.46,5.01-2.36,7.07,.47,13.84,.03,20.48-.48,7.27-.11,14.59-.11,21.89,.5,.02,1,.03,1.5,.05,.19-.98,.37-1.97,.65-3.41,.94,1.5,1.61,2.57,2.32,3.69-1.08-5.56-2.12-10.94-3.15-16.31,.1,0,.2,0,.3,.01,1.63,5.25,3.27,10.49,4.9,15.74,.19-.08,.38-.16,.56-.24-2.38-12.9-4.76-25.81-7.14-38.71l1.2-.22c3.04,11.88,2.51,24.57,7.97,36.72-1.45-9.31-2.78-17.81-4.11-26.32l.67-.11c1.94,9.72,3.88,19.43,5.82,29.15,.4-.08,.8-.15,1.2-.23-5.46-31.15-10.91-62.3-16.2-92.5-2.43,11.16-4.89,23.1-7.63,34.97-3.65,15.84-8.31,31.5-8.07,47.99,.04,2.74,0,5.48,0,8.22,.19,0,.38,0,.57,0l.56-7.62c.1,0,.2,0,.29,.01,.19,3.32,.39,6.64,.58,9.97,.44,0,.87,0,1.31,0,.39-4.81,.71-9.63,1.19-14.43,.49-4.87,1.13-9.73,1.7-14.59,.12,.02,.24,.04,.36,.06-.57,9.64-1.14,19.28-1.71,28.92Zm221.48,115.54c-28.98-4.81-60.81-10.09-92.63-15.37-.05,.31-.11,.63-.16,.94,4.94,.81,9.87,1.61,14.81,2.42-.05,.29-.1,.58-.15,.88-3.86-.62-7.71-1.24-11.57-1.85-.03,.17-.07,.34-.1,.51,1.63,.53,3.26,1.05,4.88,1.58-.11,.5-.22,1-.33,1.49-2.46-.37-4.92-.74-7.38-1.12-.15,.34-.31,.69-.46,1.03,2.23,.85,4.41,2.24,6.71,2.45,18.36,1.72,36.75,3.22,55.13,4.8,4.82,.41,9.63,.88,14.43,1.32-18.49,2.54-36.77,5.06-55.09,7.58,.26,.79,.46,1.42,.43,1.32-2.11,.11-4.71-.5-6.36,.49-5.06,3.02-10.36,3.53-16.01,3.4,6.99,.74,14.11,1.74,20.97,.81,10.73-1.45,21.24-4.48,31.94-6.33,14.58-2.52,29.24-4.56,40.95-6.36Zm-410.57,.96c.13-.39,.27-.77,.4-1.16,7.98-.39,16.01-.41,23.94-1.26,17.59-1.88,34.86-6.46,52.7-6.38,.76,0,1.52-.6,2.28-.92-.07-.25-.15-.5-.22-.75-4.97,.28-9.94,.56-14.9,.83l-.04-.49c5.27-.78,10.55-1.56,15.82-2.35l-.18-1.39c-6.07,.49-12.14,.98-18.21,1.47-.03-.32-.07-.64-.1-.95,6.25-.66,12.49-1.32,18.74-1.98-.07-.42-.14-.85-.21-1.27-32.15,3.14-63.3,12.93-93.96,14.93,30.69,5.69,62.83,11.64,94.96,17.59,.09-.46,.17-.92,.26-1.39-2.68-1.12-5.36-2.23-8.04-3.35-.09,.24-.19,.49-.28,.73,.27,.33,.53,.66,.8,.99-.11,.36-.22,.71-.33,1.07-23.66-8.86-48.1-13.71-73.42-13.99Zm317.16-121.78c.39,.39,.77,.79,1.16,1.18-.98,1.24-1.84,2.6-2.95,3.7-4.84,4.79-9.89,9.37-14.59,14.28-4.32,4.52-8.29,9.37-12.4,14.08-1.72,1.97-3.59,3.86-5.03,6.03-.55,.82-.06,2.33-.04,3.52,1.01-.25,2.23-.23,2.98-.82,1.6-1.24,3.1-2.68,4.39-4.24,9.93-12.12,19.78-24.3,29.71-36.42,2.11-2.58,4.43-4.99,6.72-7.41,5.79-6.1,11.62-12.15,17.44-18.22-9.07,6.92-17.45,14.59-26.49,21.37-10.01,7.51-20.66,14.17-30.95,21.31-1.3,.9-2.76,2.36-3.05,3.78-.5,2.45-.14,5.07-.14,7.54,3.8-4.14,7.83-8.52,11.86-12.9,.22,.2,.45,.4,.67,.6-4.96,6.03-9.92,12.06-14.88,18.1,.31,.26,.61,.52,.92,.78,11.56-12.09,23.13-24.18,34.69-36.26Zm25.67-17.71c-21.2,18.96-37.73,41.14-54.13,63.49,1.9-1.73,3.8-3.45,5.7-5.18,1.57,.62,2.9,.5,4.14,.09,.78-.26,1.83-1.54,2.06-1.37,4.2,2.93,4.5-1.55,5.66-3.23,9.35-13.64,18.48-27.44,27.72-41.17,2.78-4.13,5.72-8.17,8.85-12.63Zm2.51,283.18c.33-.26,.66-.51,.99-.77-.2-.35-.34-.74-.59-1.05-14.68-17.91-27.14-37.36-38.86-57.26-3.93-6.67-9.94-9.02-16.97-10.2,3.68,1.83,7.35,3.65,11.03,5.48-.09,.23-.18,.47-.27,.7-3.88-1.17-7.76-2.34-11.63-3.51-.11,.22-.23,.44-.34,.66,3.37,1.69,6.75,3.38,10.12,5.07-.09,.2-.19,.4-.28,.6-1.27-.37-2.54-.73-3.81-1.1-.21,.24-.42,.49-.63,.73,17.08,20.21,34.17,40.43,51.25,60.64Zm-145.41,64.13c.41-.05,.82-.1,1.22-.15-.41-4.53-.65-9.09-1.26-13.6-1.72-12.51-3.26-25.06-5.53-37.48-1.51-8.26-4.78-16.21-6.12-24.48-1.01-6.18-.2-12.65-.2-18.99-.29,0-.58,0-.87,0-.62,6.29-1.24,12.58-1.86,18.88-.37-.03-.74-.06-1.11-.08v-18.99c-.29,0-.58,0-.86,0-.09,1.78-.18,3.57-.27,5.35-.16,.01-.32,.03-.49,.04-.46-2.08-.91-4.17-1.37-6.25-.43,.08-.86,.16-1.3,.24,2.18,12.85,3.86,25.81,6.69,38.51,3.16,14.16,7.52,28.06,11.06,42.14,1.21,4.83,1.53,9.89,2.26,14.85Zm-177.09-207.9c19.39,2.77,38.07,5.44,56.75,8.11,.06-.43,.13-.87,.19-1.3-2.32-.29-4.65-.58-6.97-.87,0-.17,0-.34-.01-.51,2.34-.15,4.68-.29,6.93-.43,.91-3.51-1.03-3.88-3.56-3.96-11.68-.36-23.35-.81-35.03-1.22,0-.31,0-.61,.01-.92h38.81v-6.97c-19.11,2.7-37.73,5.33-57.13,8.07Zm167.16,113.71c-3.37,7.95-.91,21.06,9.74,52.33,.67-17.54,1.34-35.08,2.02-52.89-2.1-.25-3.76-.45-5.7-.69v35.38c-.35,.01-.71,.03-1.06,.04-.5-11.63-1-23.25-1.5-34.88-.44,0-.89,.02-1.33,.03v10.49c-.31,0-.61,0-.92-.01-.41-3.22-.82-6.45-1.24-9.8Zm-148.12-269.56c-.27,.23-.54,.45-.8,.68,2,2.49,4.09,4.9,5.98,7.47,9.23,12.52,18.42,25.07,27.61,37.62,2.44,3.33,4.56,6.93,7.33,9.95,2.51,2.73,5.83,4.71,8.58,7.25,5.76,5.32,11.37,10.79,17.05,16.2-2.61-4.59-5.9-8.58-9.37-12.42-7.39-8.18-15.07-16.1-22.24-24.47-5.47-6.39-10.2-13.41-15.49-19.96-6.09-7.54-12.42-14.89-18.65-22.32Zm157.45-7.89c-.47-.01-.93-.02-1.4-.03-1.35,15.82-2.69,31.63-4.05,47.61h7.53c-.89-16.1,.69-31.92-2.08-47.57Zm45.05,64.82c.45,.18,.9,.37,1.35,.55-.24,1.02-.41,2.07-.73,3.07-1.1,3.46-2.42,6.86-3.29,10.37-.29,1.19,.51,2.65,.81,3.99,1.1-.81,2.62-1.39,3.24-2.48,2.47-4.38,4.66-8.92,7.19-13.85-4.88-2.23-10.22-4.67-15.08-6.88-1.43,5.16-2.47,9.64-3.94,13.98-1.27,3.76,.25,5.29,3.55,6.15,2.4-5.18,4.66-10.04,6.92-14.9Zm-154.96,79.54c.1-.6,.21-1.2,.31-1.8,1.07,0,2.14-.1,3.2,.02,4.18,.45,8.35,1.07,12.55,1.36,1,.07,2.06-.87,3.1-1.35-.75-1.03-1.33-2.7-2.29-2.98-5.27-1.49-10.64-2.63-16.67-4.06-1.1,5.47-2.13,10.59-3.27,16.26,7.35-.36,13.96-.69,20.64-1.02,.97-2.77,.28-4.09-2.73-4.4-4.96-.51-9.88-1.33-14.82-2.02Zm280.23,18.09c-17.35-2.87-34.35,2.52-51.82,1.9-.22,1.32-.42,2.55-.78,4.72,18.19,.73,35.4-2.83,52.6-6.62Zm-64.16-35.27c-6.65,2.62-12.71,5.02-18.94,7.47,.63,2.01,1.6,3.77,1.66,5.57,.12,3.59,2.11,3.93,4.93,3.6,5.46-.63,10.94-1.17,16.74-1.79-.62-2.3-1.18-4.32-1.73-6.35-6.3,1.14-12.24,2.21-18.17,3.29-.11-.62-.22-1.23-.32-1.85,5.9-1.2,11.8-2.39,17.87-3.62-.71-2.22-1.45-4.52-2.04-6.32Zm-230.54-83.81c2.9,6.72,33.17,39.68,37.45,41.19,.47-4.46-21.29-28.5-37.45-41.19Zm73.58,224.35c-6.49,1.45-16.35,26.99-15.76,38.73,7.98-12.01,11.07-25.67,15.76-38.73Zm119.76-163.14c5.58-4.6,10.65-8.78,16-13.19-2.32-1.82-4.29-3.35-6.26-4.89,.25,.44,.51,.88,.76,1.32-4.69,3.84-9.38,7.68-14.14,11.57,1.43,2.03,2.31,3.29,3.64,5.18Zm43.32,58.59h-20.55c-.23,1.99-.42,3.66-.63,5.47,7.17,.48,14.03,.94,21.18,1.42v-6.89Zm-25.79-70.16c-4.51,4.11-8.66,7.72-12.55,11.59-.85,.84-.77,2.62-1.12,3.96,1.38,.17,3.14,.97,4.08,.41,4.77-2.86,9.33-6.08,14.15-9.29-1.73-2.53-3.08-4.52-4.55-6.67Zm-173.94,138.84c4.49-3.67,8.43-7.04,12.52-10.2,3.53-2.72,2.24-4.86-.52-7.44-5.42,4.13-10.64,8.09-16.04,12.2,1.55,2.09,2.64,3.56,4.04,5.44Zm-5.56-68.68h-20.43c.2,2.7,.35,4.77,.5,6.84,7.01-.52,13.46-1,19.93-1.48v-5.36Zm-19.94-8.89v5.96c.55,.17,.82,.32,1.09,.32,4.93-.09,9.86-.17,14.8-.3,5.05-.13,5.29-.46,4.25-5.98h-20.13Zm115.36,204.04c1.31-8.25,2.37-15.24,3.55-22.21,.97-5.75,3.56-11.32,1.4-17.39-.52-1.46-.08-3.27-.08-6.16-7.1,15.24-4.93,30.03-4.87,45.76Zm89.62-198.11c1.21,.1,1.93,.2,2.65,.2,4.5,.05,9,.1,13.49,.11,5.05,0,5.63-.92,3.88-5.73h-20.36c.12,1.97,.22,3.53,.34,5.42Zm-95.22,111.74v-18.44h-5.49c-.43,4.44-.95,8.59-1.2,12.76-.38,6.38-.08,6.58,6.69,5.67Zm-63.25-46.35c-1.09-1.24-2.21-2.5-3.81-4.32-5.13,3.99-10.06,7.84-14.66,11.42,1.94,2.29,3.49,4.13,4.85,5.73,4.57-4.3,8.84-8.33,13.62-12.84Zm71.24,51.65l-.4,.04c-.59,14.04-1.19,28.08-1.78,42.13,.26,.04,.51,.09,.77,.13,.67-3.81,1.34-7.62,2.16-12.24,.34,2.1,.54,3.36,.75,4.63,.29-.02,.58-.05,.88-.07v-31.37c-.06,0-.13,0-.19-.01-.22,3.9-.44,7.81-.61,10.67-.45-3.96-1.01-8.93-1.58-13.91Zm3.6-5.03c2.36,0,4.17,.29,5.8-.12,.87-.22,2.12-1.7,2.04-2.49-.6-5.6-1.5-11.16-2.35-17.09-1.72,.3-3.07,.53-4.3,.74-.4,6.43-.79,12.49-1.19,18.96Zm-121.26-99.36c.35,2.55,.67,4.87,.97,7.02,6.93-1.36,13.3-2.61,19.93-3.91-.54-2,1.12-4.95-2.81-4.65-5.93,.45-11.85,1-18.09,1.54Zm189.84-59.52c.71,3.11,2.15,3.61,4.73,2.27,4.95-2.56,10.01-4.9,15.5-7.56-1.66-2.17-3.35-4.37-4.99-6.5-5.4,4.18-10.37,8.02-15.24,11.78Zm-89.51,158.35v-18.98h-4.95c-.35,2.12-.71,4.1-1.01,6.08-.3,2-.48,4.01-.81,6.01q-1.14,6.81,6.77,6.9Zm123.97-126.47c-6.3,.45-12.1,.75-17.86,1.38-1.04,.11-2.59,1.47-2.69,2.4-.1,.85,1.4,2.68,2.25,2.71,6.34,.23,12.7,.13,19.59,.13-.49-2.56-.84-4.35-1.28-6.61Zm-40.99,74.22c-.6,.17-1.2,.34-1.81,.51-.4,1.63-1.69,4.03-1.06,4.75,3.84,4.42,8.13,8.45,12.43,12.78,1.61-1.88,2.6-3.04,4.2-4.92-4.71-4.49-9.24-8.81-13.77-13.13Zm40.79-39.71c.23-2.23,.48-4.58,.83-7.94-6.54,0-12.48,.11-18.42-.05-2.9-.08-4.08,.9-3.48,3.77,6.8,1.36,13.58,2.72,21.06,4.22Zm-1.1,2.13c-7.06-1.06-13.71-2.05-20.6-3.08-.25,1.7-.42,2.94-.56,3.91,6.84,2.22,13.4,4.36,20.02,6.51,.27-1.77,.67-4.3,1.14-7.33Zm-187.65,29.7c-1.52-4.11-3.44-4.17-6.08-2.49-3.41,2.18-7.07,3.99-10.39,6.3-.86,.6-1.29,2.53-1.1,3.71,.2,1.29,1.35,2.43,2.45,4.23,5.21-4.05,10.17-7.91,15.11-11.76Zm178.95-94.61c-.99-1.87-2.12-3.99-3.31-6.22-6.11,3.23-11.94,6.32-18.06,9.56,.92,1.49,1.8,2.9,2.44,3.94,6.42-2.47,12.33-4.74,18.94-7.28Zm-125.12-44.15c1.54-.36,2.74-.64,4.12-.97-1.02-6.48-2-12.68-3.04-19.23-2.85,1.05-5.38,1.98-7.72,2.85,2.24,5.85,4.35,11.37,6.64,17.36Zm-41.12,24.01c3.53-2.02,3.1-3.68,1.11-5.8-3.57-3.8-6.94-7.79-10.62-11.95-1.23,1.11-3.18,2.86-5.63,5.06,5.46,4.58,10.38,8.71,15.14,12.7Zm61.84-44.52c-5.67-.79-5.86-.69-6.04,4.38-.14,3.77-.3,7.57-.03,11.32,.08,1.05,1.79,2.92,2.48,2.8,1.3-.22,3.36-1.55,3.42-2.53,.34-5.32,.16-10.67,.16-15.97Zm-70.48,193.02c4.21-4.64,8.25-9.09,12.5-13.77-1.24-1.36-2.29-2.5-3.68-4.02-4.59,4.23-9,8.3-13.68,12.6,1.68,1.79,3.23,3.45,4.86,5.19Zm-11.1-153.8c4.59,3.98,9.13,7.91,13.65,11.82,1.64-1.55,2.85-2.7,4.48-4.24-4.98-4.2-9.8-8.26-14.72-12.41-.94,1.33-1.86,2.63-3.41,4.82Zm189.47,108.2c-5.56-1.76-11.14-3.69-16.83-5.2-1.07-.28-2.58,1.08-4.9,2.16,5.71,2.87,10.02,4.88,14.18,7.17,5.78,3.19,6.14,3.08,7.55-4.13Zm-13.99,25.21c-5.32-3.76-10.43-7.36-15.76-11.13-1.14,1.3-2.05,2.34-3.45,3.94,5.22,4.21,10.18,8.22,15.45,12.48,1.27-1.79,2.25-3.16,3.76-5.29Zm-192.47-17.18c1.27,2.61,2.32,4.75,3.46,7.08,5.72-3.61,11.07-6.98,16.41-10.35-1.45-3.25-1.49-3.38-4.19-2.45-5.04,1.74-10.02,3.64-15.68,5.72Zm161.89,46.78c-3.53-5.52-6.85-10.71-10.3-16.1-1.92,.97-3.38,1.71-5.04,2.54,3.39,5.63,6.48,10.78,9.67,16.08,1.92-.85,3.59-1.6,5.68-2.53Zm-151.71-75.5c-6.69,1.31-12.87,2.51-19.48,3.8,.55,2.12,1.09,4.25,1.64,6.4,6.46-1.94,12.48-3.76,18.72-5.64-.26-1.33-.5-2.56-.89-4.57Zm91.25-126.92c0,5.53-.19,10.75,.15,15.93,.07,1.13,1.9,2.36,3.19,3.05,.39,.21,2.41-1.25,2.44-1.99,.21-5.6,.12-11.21,.12-16.99h-5.89Zm-85.97,41.13c-4.22,4.54-4.17,5.48,.72,9.22,2.07,1.58,4.17,3.13,6.21,4.76,2.71,2.17,4.87,2.18,6.58-2.1-4.39-3.86-8.94-7.86-13.51-11.88Zm150.01,4.59c4.54-4.92,8.71-9.44,13-14.09-1.05-1.19-2.34-2.64-3.77-4.26-4.47,4.91-8.54,9.38-12.82,14.08,1.05,1.25,2.05,2.43,3.58,4.26Zm-118.79,138.92c-2.38-2.35-4.39-2.94-6.43-.76-3.23,3.47-6.33,7.05-9.65,10.78,1.76,1.69,3.19,3.05,4.91,4.7,3.78-4.98,7.35-9.69,11.16-14.72Zm83.56-181.44c-.99,5.53-2.07,10.62-2.68,15.75-.16,1.3,1.19,2.78,1.84,4.17,1.09-1.03,2.73-1.86,3.16-3.11,1.53-4.43,2.65-9,4.04-13.91-1.59-.73-3.78-1.73-6.37-2.91Zm58.04,134.79c6.57,2.38,13.04,4.73,19.91,7.23,.46-2.07,.89-3.96,1.36-6.08-5.87-1.45-11.51-2.75-17.1-4.25-2.96-.8-4.5-.19-4.17,3.1Zm-178.69-89.29c-1.21,1.82-2.68,4.03-3.86,5.8,4.83,2.97,9.08,5.7,13.48,8.16,.91,.51,2.41-.02,3.64-.07-.22-1.28,0-2.99-.75-3.76-1.8-1.85-4.08-3.23-6.13-4.86-1.97-1.57-3.88-3.21-6.38-5.28Zm36.66-12.4c-3.68-4.98-7.31-9.9-11.08-15.01-1.7,1.22-3.29,2.36-5.27,3.78,3.5,4.05,6.75,7.7,9.87,11.47,1.98,2.39,3.89,2.83,6.47-.24Zm160.19,36.93c.31-.52,.62-1.04,.93-1.56-1.43-1.13-3.25-3.51-4.21-3.2-5.84,1.87-11.48,4.35-17.03,6.57,.62,3.62,1.93,4.19,4.69,3.17,5.12-1.89,10.4-3.34,15.62-4.98Zm-95.61-72.99c0,5.64-.1,10.87,.09,16.09,.04,.99,1.26,1.94,1.94,2.91,.94-.68,2.59-1.26,2.7-2.05,.74-5.53,1.16-11.1,1.71-16.95h-6.43Zm91.85,156.42c-5.22-2.41-10.46-4.84-15.71-7.24-2.7-1.23-3.61,.12-3.9,2.93,4.25,2.53,8.41,5.17,12.72,7.53,4.24,2.33,4.75,2.02,6.89-3.23Zm-52.13-122.48c.62,.24,1.24,.47,1.86,.71,3.78-5.03,7.55-10.06,11.62-15.48-2.5-1.13-4.52-2.05-6.95-3.15-2.06,6.33-7.61,11.03-6.53,17.92Zm-61.67-15.38v-19.49c-2.38,.28-4.45,.53-6.79,.8,.85,5.66,1.69,10.94,2.42,16.23,.37,2.7,1.74,3.41,4.37,2.46Zm13.37,183.07c-.42,4.56-.85,8.71-1.16,12.87-.45,5.97,.23,6.5,6.1,5.04v-17.91h-4.94Zm-32.26,13.66c1.31-5.54,2.51-10.13,3.39-14.78,.17-.91-.66-2.29-1.45-2.99-.4-.35-2.27,.05-2.54,.59-2.37,4.7-4.52,9.52-6.94,14.72,2.7,.88,4.94,1.62,7.53,2.47Zm-17.04-6.35c2.06-5.36,4.09-10.15,5.65-15.09,.32-1.01-1.17-2.58-2.26-4.76-3.89,6.25-6.98,11.22-10.23,16.45,2.31,1.14,4.22,2.09,6.85,3.39Zm-52.43-146.33c5.93,2.75,11.53,5.35,17.12,7.94,2.13-3.45,2.16-3.87-.92-5.87-4.16-2.7-8.45-5.21-12.84-7.9-1.08,1.87-2.21,3.84-3.36,5.83Zm68.28-58.94c-2.45,.93-4.61,1.75-6.3,2.39,2.21,4.92,4.34,9.31,6.15,13.83,1.33,3.34,2.98,3.38,5.48,1.13-1.72-5.59-3.41-11.1-5.33-17.35Zm59.23,191.55c-.75,2.07-1.73,3.38-1.54,4.5,.74,4.4,1.66,8.8,2.97,13.05,.3,.98,2.42,1.89,3.73,1.94,2,.09,3.26-1.11,2.36-3.42-1.72-4.42-3.41-8.86-5.19-13.26-.28-.7-.99-1.22-2.34-2.82Zm-7.17,23.24c6.69-1.28,6.86-1.47,5.43-6.89-1.11-4.18-2.33-8.34-3.87-13.83-1.57,1.63-3.38,2.68-3.33,3.61,.34,5.62,1.11,11.2,1.77,17.11Zm-66.2-8.86c2.52,1.36,4.96,4,6.81,.48,2.36-4.5,3.85-9.45,5.77-14.35-1.74-.6-2.94-1.01-4.74-1.63-2.61,5.16-5.17,10.22-7.83,15.49Zm124.38-50.47c5.22,3.69,10.03,7.09,15.27,10.79,1.16-2.04,2.11-3.7,3.04-5.33-5.52-3.4-10.76-6.62-16.2-9.97-.72,1.54-1.31,2.82-2.1,4.51Zm-141.27-139.93c3.37,4.53,6.2,8.56,9.3,12.36,.83,1.01,2.49,1.35,3.77,1.99,.03-1.57,.62-3.43-.01-4.67-2.15-4.24-4.72-8.27-7.33-12.72-1.59,.84-3.32,1.76-5.73,3.04Zm-25.46,65.18c.38-.35,.76-.69,1.14-1.04-1.17-1.25-2.11-3.02-3.56-3.65-3.56-1.54-7.37-2.48-11.02-3.82-1.19-.44-2.19-1.38-3.42-2.19-.88,2.21-1.81,4.53-2.73,6.83,6.88,1.36,13.23,2.62,19.58,3.87Zm39.72-73.26c-5.94,.5-5.98,2.88-3.85,6.27,2.38,3.8,4.65,7.67,7,11.5,.12,.2,.49,.24,.94,.45,.96-.53,2.02-1.12,3.03-1.67-2.43-5.65-4.71-10.96-7.11-16.55Zm26.5,206.46c.61-5.23,1.29-10.49,1.75-15.76,.08-.85-.81-1.79-1.25-2.68-.93,.64-2.36,1.08-2.71,1.95-1.23,3.08-1.98,6.35-3.1,9.48-2.1,5.85-1.82,6.35,5.3,7.02Zm66.97-7.67c-2.17-4.53-4.4-9.06-6.52-13.63-1.05-2.26-2.39-3.1-5.08-1.28,1.29,4.16,2.56,8.41,3.93,12.63,1.72,5.3,2.5,5.52,7.67,2.28Zm-129-64.4c-.49-3.26-1.93-3.94-4.66-2.92-3.67,1.37-7.46,2.41-11.18,3.66-4.52,1.52-4.83,3.08-1.52,6.92,5.72-2.53,11.42-5.04,17.35-7.66Zm104.9-124.65c.6-.27,1.2-.53,1.79-.8,.86-3.95,1.78-7.89,2.56-11.85,1.25-6.29,1.21-6.3-5.24-7.14-.42,5.35-.99,10.69-1.15,16.04-.04,1.22,1.32,2.49,2.03,3.74Zm35.03,15.2c1.95,2.41,3.74,2.28,5.6,.27,2.57-2.78,5.2-5.5,7.74-8.3,1.29-1.42,2.74-2.88,.31-4.66-2.26-1.65-3.95-1.21-5.48,1.04-2.61,3.84-5.33,7.61-8.17,11.64Zm-160.47,109.56c5.4-2.39,10.42-4.54,15.35-6.88,.75-.35,1.06-1.61,1.58-2.45-.81-.39-1.73-1.25-2.42-1.09-5.55,1.27-11.07,2.73-16.99,4.23,1.04,2.6,1.71,4.27,2.48,6.19Zm.73-75.23c4.99,2.32,9.65,4.65,14.45,6.6,1.04,.42,2.63-.53,3.96-.84-.67-1.22-1.05-2.95-2.08-3.55-3.37-1.96-6.98-3.5-10.51-5.2-4.37-2.11-4.76-1.9-5.83,3.01Zm54.5,115.6c-.6-.03-1.21-.07-1.81-.1-3.03,4.06-6.05,8.12-9.08,12.18-1.19,1.6-1.63,2.94,.54,4.29,2.05,1.27,3.46,1.13,4.62-1.02,2.06-3.84,4.29-7.59,6.14-11.53,.46-.99-.24-2.53-.4-3.81Zm3.75-176.24c2.65,5.78,5.16,11.26,7.6,16.6,3.66-.31,4.54-1.77,3.23-4.69-2.07-4.63-4-9.32-6.12-14.28-1.54,.78-3.04,1.53-4.71,2.37Zm-17.47,199.77c-.44-.26-.88-.52-1.32-.78-5.61,5.37-10.3,11.44-12.81,18.95-.38,1.14,.75,2.78,1.46,5.09,4.66-8.56,8.67-15.91,12.67-23.26Zm102.91-17.3c2.63,5.79,5.14,11.29,7.81,17.16,1.68-1.16,3.28-2.27,4.84-3.34-5.5-11.67-8.55-15.02-12.65-13.82Zm37.4-204.66c-4.83,1.62-15.74,18.52-15.53,23.84,6.26-7.59,11.68-14.66,15.53-23.84Zm-12.22,24.19c.39,.31,.77,.61,1.16,.92,7.91-5.65,12.98-13.54,17.59-21.79-.48-.38-.96-.76-1.44-1.14-5.77,7.34-11.54,14.67-17.32,22.01Zm-129.02,.72l1.64-1.18c-3.58-9.44-11.74-15.6-17.01-23.83-.58,.41-1.15,.82-1.73,1.24,5.7,7.92,11.39,15.85,17.09,23.77Zm209.54,96.34c0-.15,0-.31,0-.46-8.66-1.25-17.33-2.51-26.45-3.83,.29,1.7,.51,3,.77,4.51,5.65,.3,10.99,.77,16.33,.8,3.12,.02,6.24-.65,9.36-1.02Zm-204.03,105.23c-6.25,3.56-13.3,21.48-10.14,26.17,.27-2.56,.03-4.59,.75-6.18,2.28-5,4.96-9.82,7.41-14.75,.71-1.43,1.15-3,1.99-5.24Zm-16.1-231.44c2.59,9.76,11.09,15.72,15.39,24.37-1.64-10.37-10.82-15.89-15.39-24.37Zm87.08,280.13h1.14c.61-12.61,1.23-25.21,1.84-37.82l-1.61-.07v15.14l-.63,.03c-.16-1.37-.31-2.73-.47-4.1-.09,0-.18,.02-.27,.02v26.79Zm59.59-280.82c-6.17,2.18-13.03,13.86-13.28,21.96,4.57-7.56,8.67-14.34,13.28-21.96Zm-142.43,226.05c-5.3,1.47-13.26,14.45-11.74,19.02,3.96-6.42,7.68-12.44,11.74-19.02Zm80.45,53.68c.18,0,.36,0,.54,.01v-34.72c-.18,0-.36,0-.54,0v34.72Zm52.65-51.75l-1.32,.73c4.51,6.85,9.03,13.7,13.54,20.56,.42-.26,.84-.52,1.26-.78-2.26-8.21-9.58-13.31-13.48-20.5Zm-133.88-197.77c.3-.27,.61-.53,.91-.8l-13.04-17.6c1.06,8.32,7.11,12.98,12.13,18.4Zm56.22-38.24c-.36-.03-.73-.06-1.09-.09-.67,7.07-1.33,14.13-2,21.2,.58,.05,1.16,.1,1.73,.14,.45-7.09,.9-14.17,1.35-21.26Zm-121.22,143.65c-.09,.35-.17,.71-.26,1.06,6.17,1.59,12.34,3.19,18.51,4.78,.13-.55,.27-1.11,.4-1.66-6.22-1.39-12.43-2.79-18.65-4.18Zm266.56,2.79c.1-.61,.2-1.21,.3-1.82h-11.44c0,.28,0,.56,0,.84,3.72,.33,7.43,.66,11.15,.99Z"/>
    <path class="cls-1" d="M453.88,130.85c-.58-8.36-1.15-16.72-1.73-25.08-.45-.17-.9-.35-1.36-.52-4.88,7.18-9.76,14.37-14.65,21.55-.31-.16-.61-.32-.92-.48,3.07-6.21,6.13-12.42,9.2-18.64-.23-.27-.45-.55-.68-.82-5.87,4.2-11.75,8.4-17.63,12.6-.44-.58-.89-1.15-1.33-1.73,6.94-6.15,13.87-12.29,20.81-18.44l-.4-.72c-1.62,.86-3.2,1.78-4.85,2.56-6.71,3.15-13.44,6.25-20.16,9.37-.66,.31-1.3,.79-1.99,.86-.76,.08-1.56-.2-2.35-.33,.48-.71,.81-1.7,1.48-2.07,7.74-4.31,15.53-8.52,23.3-12.77,.44-.24,.78-.66,2.29-1.99h-23.68c-.03-.58-.06-1.15-.09-1.73,6.59-.81,13.18-1.63,19.69-2.43-2.39-2.22-2.38-2.32-14.51-3.03-5.11-.3-10.25-.05-15.21-.05,10.34-4.47,20.97-4.54,32.05-.38,.43-2.11,.42-3.72-2.74-4.69-7.07-2.17-12.69-6.61-17.09-12.67,7.66,3.62,15.33,7.25,22.99,10.87l.58-.68c-7.16-6.75-14.33-13.5-21.49-20.24,.25-.29,.51-.59,.76-.88,7.44,5.93,14.89,11.86,22.33,17.79,.32-.18,.64-.35,.96-.53-2.23-3.95-4.37-7.95-6.71-11.83-2.39-3.98-4.97-7.84-7.16-12.01,7.53,5.92,11.23,15.07,18,22.01,1.72-10.43,.17-20.95,2.2-31.09,.52,0,1.04,0,1.56,0,.61,10.37,1.22,20.73,1.9,32.26,8.04-7.06,9.67-16.96,15.68-23.82,.41,.15,.82,.29,1.23,.44-.41,1.46-.66,3-1.26,4.38-2.77,6.38-5.66,12.7-8.43,19.08-.36,.82-.25,1.84-.43,3.35,6.74-8.07,13.77-14.69,22.35-19.41,.26,.3,.52,.59,.78,.89-4.7,4.67-9.46,9.28-14.06,14.04-.95,.98-1.36,2.48-2.02,3.74,1.39-.17,2.91-.05,4.16-.57,4.72-1.95,9.36-4.1,14.37-5.43-4.23,5.29-10.66,6.15-16.6,8.57-.2,2.79,.75,3.93,3.93,3.75,5.81-.34,11.65-.23,17.48-.23,1.37,0,2.73,.28,4.1,.43,0,.38,.01,.77,.02,1.15-2.74,.32-5.47,.74-8.21,.95-4.64,.36-9.3,.47-13.93,.99-1.12,.13-2.11,1.42-3.16,2.18,.2,.42,.4,.83,.6,1.25,6.14,.68,12.29,1.36,18.43,2.04-7.05,3.25-14.86-.1-21.93,2.32-.08,.46-.16,.92-.23,1.38,7.12,4.23,14.25,8.45,21.37,12.68-.26,.52-.52,1.04-.78,1.55-8.07-3.78-16.14-7.56-24.21-11.33-.26,.2-.52,.41-.77,.61,5.51,6.12,11.03,12.25,16.54,18.37-.19,.26-.38,.51-.57,.77-1.12-.65-2.36-1.16-3.34-1.98-4.3-3.58-8.59-7.17-12.72-10.93-.94-.86-1.24-2.42-2.28-3.49,.91,8.28,7.29,14.83,7.82,23.25-3.98-5.61-5.01-13.14-12-16.85-.09,.22,.23-.19,.2-.57-.09-1.16-.22-2.35-.57-3.45-.06-.18-1.82-.18-1.92,.08-.37,.95-.46,2.03-.49,3.07-.19,7.55-.35,15.11-.51,22.66-.67,.03-1.33,.05-2,.08Zm-8.25-36.4c3.82,4.84,9.57,6.77,14.62,4.67,4.42-1.84,4.91-5.66,4.73-9.77-.17-3.69-6.62-10.02-9.82-9.66-4.1,.47-8.47,6.06-8.35,10.39,.03,1.27-.67,2.57-1.17,4.36Z"/>
    <path class="cls-1" d="M455.38,771.11c-13.41,.59-22.76-7.81-23.3-20.93-.52-12.49,9.02-22.74,21.54-23.29,14.79-.65,22.41,10.3,23.19,20.05,.93,11.6-8.5,25.73-21.43,24.17Zm15.5-21.18c.05-10.09-6.81-17.92-15.69-17.94-9.36-.02-17.16,7.46-17.31,16.58-.15,9.27,7.54,17.45,16.37,17.41,9.25-.04,16.58-7.12,16.63-16.06Z"/>
    <path class="cls-1" d="M655.49,571c-.26,.1-.55,.32-.78,.27-.42-.09-.82-.31-1.19-.53-.5-.29-1.01-.59-1.44-.98-20.5-18.89-40.99-37.79-60.18-55.49,8.25,2.57,62.48,50.04,63.58,56.72Z"/>
    <path class="cls-1" d="M317.15,324.62c-9.56-2.81-62.07-40.39-65.42-47.33,2.1,1.08,3.45,1.55,4.54,2.37,10.83,8.07,21.56,16.28,32.44,24.27,8.77,6.44,17.73,12.64,26.59,18.96,.54,.38,.98,.91,1.84,1.72Z"/>
    <path class="cls-1" d="M511.44,280.09c2.28-17.36,17.58-62.22,23.13-64.78-7.55,22.33-14.81,43.79-22.06,65.25-.36-.16-.71-.32-1.07-.47Z"/>
    <path class="cls-1" d="M546.15,294.81c16.84-22.06,33.67-44.12,50.51-66.17,.36,.27,.73,.53,1.09,.8-5.82,12.84-16.19,22.49-24.47,33.58-8.31,11.14-17.03,21.98-25.57,32.95-.52-.39-1.04-.77-1.56-1.16Z"/>
    <path class="cls-1" d="M271.96,396.8c-8.27-.96-16.61-1.56-24.81-2.94-14.96-2.53-29.85-5.5-44.75-8.38-1.29-.25-2.49-1.13-3.63-1.86-.12-.08,.42-1.71,.63-1.71,1.31,.03,2.61,.33,3.91,.53,6.31,.94,12.64,1.76,18.92,2.89,2.04,.37,3.9,1.68,5.9,2.37,2.31,.8,4.65,1.67,7.04,2.02,10.48,1.53,21,2.83,31.48,4.33,1.89,.27,3.72,1.06,5.57,1.6l-.27,1.15Z"/>
    <path class="cls-1" d="M294.07,444.58c-1.53,.7-3.01,1.81-4.61,2.04-14.05,2.04-28.11,4.03-42.2,5.83-7.05,.9-14.14,1.49-21.22,1.98-3.83,.27-7.69,.05-11.53,.05-.03-.44-.05-.88-.08-1.32,14.08-1.36,28.17-2.68,42.25-4.09,6.94-.7,13.88-1.38,20.77-2.46,2.58-.41,4.92-2.21,7.5-2.84,2.75-.67,5.66-.69,8.5-.99,.21,.6,.41,1.21,.62,1.81Z"/>
    <path class="cls-1" d="M264.65,562.01c5.15-4.92,10.14-10.03,15.5-14.72,8.72-7.63,17.53-15.18,26.63-22.35,3.33-2.63,7.58-4.09,12.2-6.49-18.28,15.23-35.84,29.87-53.41,44.51-.31-.31-.62-.62-.93-.93Z"/>
    <path class="cls-1" d="M306.62,596.71c17.19-17.6,34.38-35.19,51.56-52.79,.51,.41,1.01,.83,1.52,1.24-1.43,1.95-2.65,4.11-4.33,5.81-13.97,14.17-28,28.29-42.08,42.35-1.72,1.72-3.86,3.01-5.8,4.5l-.87-1.1Z"/>
    <path class="cls-1" d="M699.8,471.46c-5.81-.68-12.67,.38-17.25-2.37-13.36-8.03-28.34-6.96-43.01-10.7,1.49-.59,3.09-1.87,4.45-1.65,9.6,1.51,19.24,2.96,28.69,5.17,8.13,1.9,16.03,4.77,24.02,7.25,1.18,.37,2.29,.94,3.43,1.42-.11,.3-.22,.59-.33,.89Z"/>
    <path class="cls-1" d="M432.58,154.47c.55,25.43,1.11,50.85,1.66,76.28-3.9-9.91-4.92-66.16-1.66-76.28Z"/>
    <path class="cls-1" d="M366.1,291.04c-14.28-20.3-28.56-40.6-42.84-60.9,.18-.27,.37-.53,.55-.8,1.38,.91,3.16,1.53,4.06,2.78,5.05,7.05,9.83,14.29,14.79,21.39,6.83,9.78,13.81,19.45,20.58,29.27,1.61,2.34,2.64,5.07,3.94,7.62-.36,.21-.72,.42-1.07,.63Z"/>
    <path class="cls-1" d="M596.24,309.2c9.57-8.07,19.38-15.87,28.66-24.27,9.23-8.36,17.92-17.31,26.96-26.11,.59,4.56-43.64,45.96-54.63,51.39-.33-.34-.66-.67-.99-1.01Z"/>
    <path class="cls-1" d="M477.66,167.24c1.23,20.88-2.12,41.65-2.59,62.49-1.11-20.87-.19-41.7,.21-62.54,.79,.02,1.58,.04,2.37,.05Z"/>
    <path class="cls-1" d="M484.59,623.03c.42,1.39,1.11,2.75,1.21,4.16,.88,12.75,1.64,25.51,2.46,38.26,.18,2.74,.68,5.48,.64,8.21-.02,1.19-1.01,2.36-1.56,3.55-.58-1.12-1.61-2.21-1.68-3.36-.7-11.88-1.21-23.78-1.85-35.66-.19-3.47-.72-6.93-.96-10.4-.1-1.48,.12-2.99,.19-4.49,.52-.09,1.04-.18,1.55-.27Z"/>
    <path class="cls-1" d="M601.8,248.85c-16.61,17.58-33.21,35.15-49.82,52.73-.37-.37-.73-.74-1.1-1.11,15.23-18.99,33.77-34.64,51.82-50.78l-.91-.84Z"/>
    <path class="cls-1" d="M299.67,361.22c-20.08-6.08-40.16-12.16-60.24-18.24,.22-.7,.43-1.39,.65-2.09,19.99,6.38,40.75,10.32,59.6,20.33Z"/>
    <path class="cls-1" d="M599.03,619.14c-12.87-16.15-25.74-32.29-38.6-48.44,.37-.3,.74-.59,1.11-.89,15.44,14.13,25.74,32.38,38.96,48.29-.49,.34-.98,.69-1.47,1.03Z"/>
    <path class="cls-1" d="M679.18,441.66h-58.36c-.05-.28-.1-.57-.15-.85,.54-.36,1.08-1.02,1.62-1.03,18.2-.1,36.39-2.4,54.59-.19,.54,.07,.99,.86,2.3,2.07Z"/>
    <path class="cls-1" d="M475.73,654.44v-55.31c.98,2.2,1.87,3.28,1.88,4.38,.22,15.57,.33,31.14,.41,46.71,0,1.44-.39,2.88-.6,4.32-.57-.03-1.13-.06-1.7-.09Z"/>
    <path class="cls-1" d="M224.22,441.37c15.65-1.64,31.41-3.97,47.33-3.42,.11,.61,.22,1.22,.32,1.83-1.79,.53-3.58,1.51-5.37,1.52-14.09,.13-28.19,.07-42.28,.07Z"/>
    <path class="cls-1" d="M605.72,401.01c2.57,.24,5.27,1.11,7.67,.6,8.11-1.74,15.44,3.04,23.47,2.24,8.38-.84,16.83-.89,25.25-1.36,3.89-.22,7.77-.66,11.67-.93,1.49-.1,2.99-.02,4.48,.81-24.18,4.23-48.32,2.71-72.54-1.35Z"/>
    <path class="cls-1" d="M495.71,192.77c1.89,2.67-1.87,30.87-6.13,33.94,.51-4.57,1-9.15,1.54-13.72,1.13-9.49,2.22-18.99,3.5-28.46,.14-1.03,1.39-1.92,2.13-2.87,.43,1.12,1.36,2.33,1.19,3.34-.43,2.48-1.36,4.88-2.23,7.76Z"/>
    <path class="cls-1" d="M661.13,598.29c-15.5-15.12-30.99-30.24-46.49-45.36,.45-.46,.9-.91,1.36-1.37,7.65,7.75,15.2,15.62,22.99,23.22,7.73,7.54,17.4,13.17,23.25,22.55-.37,.32-.74,.63-1.11,.95Z"/>
    <path class="cls-1" d="M679.68,359.89c-.99,4.44-2.39,5.96-5.81,4.36-1.03-.48-2.51-.41-3.67-.13-15.32,3.73-30.61,7.56-45.93,11.29-1.3,.32-2.74,.04-4.21-.67,19.6-4.88,39.2-9.76,59.61-14.84Z"/>
    <path class="cls-1" d="M562.81,553.3c12.87,13.6,25.73,27.19,38.6,40.79-4.37-.13-35.26-33.63-38.6-40.79Z"/>
    <path class="cls-1" d="M417.89,623.81c-1.93,14.61-3.85,29.23-5.88,43.83-.07,.53-1.22,.91-3.04,2.18,2.27-16.21,4.37-31.24,6.48-46.28,.81,.09,1.63,.18,2.44,.27Z"/>
    <path class="cls-1" d="M274.24,574.63c11.14-11.28,20.73-24.08,33.58-33.69,.37,.36,.74,.72,1.11,1.08-11.08,11.31-22.17,22.63-33.25,33.94-.48-.44-.96-.89-1.44-1.33Z"/>
    <path class="cls-1" d="M431.18,561.92c-2.47,15.37-4.94,30.73-7.41,46.1l-1.51-.28c1.23-15.66,2.61-31.29,8.92-45.82Z"/>
    <path class="cls-1" d="M495.41,662.41c-1.39-12.02-2.79-24.04-4.18-36.06l.78-.93c.91,.96,2.5,1.84,2.62,2.89,.76,6.78,1.14,13.61,1.78,20.41,.32,3.42,1.06,6.8,1.34,10.21,.1,1.21-.59,2.48-.93,3.72-.47-.08-.94-.17-1.41-.25Z"/>
    <path class="cls-1" d="M433.5,669.41c-3.2-3.88-3.01-35.27,0-39.89v39.89Z"/>
    <path class="cls-1" d="M345.55,571.92c-7.64,14.45-16.26,26.94-27.82,37.18-.37-.28-.74-.57-1.1-.85,9.43-11.85,18.87-23.69,28.93-36.33Z"/>
    <path class="cls-1" d="M425.75,625.68c-.72,9.23-1.46,18.45-2.14,27.68-.13,1.8,.11,3.62-.1,5.41-.25,2.12-.79,4.21-1.21,6.31-.7-.11-1.4-.21-2.1-.32,1.11-13.07,2.23-26.14,3.34-39.22,.74,.05,1.48,.09,2.21,.14Z"/>
    <path class="cls-1" d="M488.38,188.88c-1.46,10.65-2.92,21.29-4.38,31.94-.67-.06-1.33-.12-2-.18,0-1.44-.12-2.88,.02-4.31,.84-8.4,1.67-16.79,2.7-25.17,.14-1.17,1.33-2.22,2.03-3.32,.54,.34,1.09,.69,1.63,1.03Z"/>
    <path class="cls-1" d="M583.32,610.94c-5.87-1.69-24.68-27.98-25.59-34.64,8.32,11.26,16.64,22.52,25.59,34.64Z"/>
    <path class="cls-1" d="M191.45,399.6c3.94-1.79,32.34-.1,35.09,2.88-12.25-.43-23.67-.83-35.1-1.22,0-.55,0-1.11,.01-1.66Z"/>
    <path class="cls-1" d="M624.07,511.25c15.47,4.05,28.63,12.12,39.67,23.74-4.05-2.69-8.04-5.48-12.18-8.03-4.55-2.81-9.23-5.42-13.88-8.07-4.52-2.58-9.07-5.1-13.61-7.64Z"/>
    <path class="cls-1" d="M409.22,180.98c4.15,3.62,9.18,33.29,7.1,40.56-2.3-13.15-4.6-26.3-7.1-40.56Z"/>
    <path class="cls-1" d="M628.86,466.77c12.31,.88,24.62,1.76,37.78,2.7-11.81,6.23-22.49-.45-33.31-.56-1.53-.02-3.06-.52-4.59-.79,.04-.45,.08-.9,.12-1.35Z"/>
    <path class="cls-1" d="M569.87,230.42c2.69-10.44,9.28-18.78,15.04-27.56-1.99,10.81-8.25,19.33-15.04,27.56Z"/>
    <path class="cls-1" d="M228.01,401.21c15,.86,29.99,1.73,44.99,2.59-15.13,1.86-30.13,1.43-45.03-1.27,.01-.44,.02-.88,.04-1.32Z"/>
    <path class="cls-1" d="M258.11,334.17c-11.52-6.21-23.05-12.42-34.57-18.63,3.1-1.14,32.91,14.21,35.39,17.19-.28,.48-.55,.96-.83,1.43Z"/>
    <path class="cls-1" d="M243.53,299.82c-8.24-2.98-15.94-6.92-23.84-12.42,5.35-1.4,20.63,6.71,23.84,12.42Z"/>
    <path class="cls-1" d="M286,286.53c3.48,2.9,6.89,5.9,10.47,8.68,3.65,2.83,7.6,5.29,11.19,8.2,3.17,2.57,6.01,5.54,8.66,8.69-10.47-8.11-22.47-14.33-31.18-24.5,.29-.36,.58-.71,.87-1.07Z"/>
    <path class="cls-1" d="M691.56,553.77c-8.73-5.26-17.9-9.86-25.09-17.5,8.26,6.06,18.42,9.11,26.46,15.51-.46,.66-.92,1.32-1.38,1.99Z"/>
    <path class="cls-1" d="M421.48,188.14c.73,.71,2.05,1.39,2.09,2.14,.53,9.54,.88,19.09,1.25,28.64,0,.14-.43,.29-1.25,.82-.99-10.44-1.95-20.57-2.92-30.69l.83-.9Z"/>
    <path class="cls-1" d="M473.22,763.17c5.57,5.66,11.83,9.65,14.45,17.36-7.21-2.59-14.59-11.17-14.45-17.36Z"/>
    <path class="cls-1" d="M683.13,402.97c2.95-3.77,23.57-4.99,29.02-1.95-10.03,.67-19.11,1.29-29.02,1.95Z"/>
    <path class="cls-1" d="M612.02,607.15c6.41,1.75,21.06,19.04,20.86,23.81-6.84-7.8-13.45-15.36-20.86-23.81Z"/>
    <path class="cls-1" d="M500.83,759.83c-6.36,2.04-19.36-.65-22.36-4.43,7.89-.8,14.55,2.02,22.36,4.43Z"/>
    <path class="cls-1" d="M276.36,629.12c6.76-7.45,13.52-14.89,20.47-22.54,.14,3.84-15.3,21.58-20.47,22.54Z"/>
    <path class="cls-1" d="M327.84,630.52c3.79-5.82,7.59-11.64,12.06-18.5-.58,2.94-.76,5.29-1.53,7.43-1,2.78-2.68,5.32-3.65,8.11-.84,2.41-1.27,4.66-4.58,2.76-.3-.17-1.07,.45-1.62,.71-.23-.17-.46-.34-.68-.51Z"/>
    <path class="cls-1" d="M570.55,613.54c3.24,7.67,11.05,12.6,12.83,21.66-4.13-1.9-13.51-17.53-12.83-21.66Z"/>
    <path class="cls-1" d="M218.13,550.63c6.28-3,11.94-5.7,17.59-8.39,.31,.57,.63,1.14,.94,1.71-1.05,.78-2.06,1.62-3.16,2.34-2.89,1.87-5.85,3.63-8.71,5.54-2.1,1.4-4.02,2.18-6.66-1.19Z"/>
    <path class="cls-1" d="M700.05,318.13c-6.86,5.62-14.42,12.32-25.49,13.28,1.66-1.15,3.2-2.53,4.99-3.42,7.08-3.51,14.24-6.87,20.5-9.86Z"/>
    <path class="cls-1" d="M677.69,391.47c-10.53,1.42-21.07,2.84-31.6,4.26-.09-.66-.18-1.32-.27-1.97,10.5-1.3,21-2.61,31.5-3.91,.12,.54,.24,1.08,.37,1.63Z"/>
    <path class="cls-1" d="M429.56,755.1c-5.97,5.71-13.33,3.36-19.98,5.88,1.64-3.58,14.33-7.11,19.98-5.88Z"/>
    <path class="cls-1" d="M433.63,765.07c-2.69,6.03-7.19,10-13.48,11.91,2.82-5.82,8.27-8.75,13.48-11.91Z"/>
    <path class="cls-1" d="M207.08,317.51c8.88,4.82,17.33,9.42,25.79,14.02-9.95-2.15-18.4-6.83-25.79-14.02Z"/>
    <path class="cls-1" d="M397.72,668.05c3.58,3.18,1.64,13.47-3.67,16.77,1.18-5.38,2.35-10.77,3.67-16.77Z"/>
    <path class="cls-1" d="M487.96,185.13c-3.13-1.62-3.26-2.74-2.11-15.4,2.3-.49,3.91-.55,3.4,2.8-.63,4.1-.87,8.27-1.29,12.59Z"/>
    <path class="cls-1" d="M680.09,450.59h16.63c-3.58,4.01-14.14,3.17-16.63,0Z"/>
    <path class="cls-1" d="M422.23,169.59q.95,13.66-1.74,15.1c-.59-4.35-1.24-8.58-1.72-12.82-.31-2.83,1.23-3.16,3.46-2.28Z"/>
    <path class="cls-1" d="M432.62,607.04c2.91,6.96,2.51,14,0,21.06v-21.06Z"/>
    <path class="cls-1" d="M667.83,299.94c1.29-3.32,10.5-9.95,14.39-8.85-4.49,3.35-8.97,6.7-13.46,10.05-.31-.4-.62-.79-.93-1.19Z"/>
    <path class="cls-1" d="M432.95,599.17v-18.07c.44,0,.89,0,1.33,.01v18.17c-.44-.04-.89-.08-1.33-.11Z"/>
    <path class="cls-1" d="M329.06,206.83c3.63,5.93,7.26,11.87,10.88,17.8-5.46-4.71-10.02-10.03-12.6-16.69l1.72-1.12Z"/>
    <path class="cls-1" d="M396.75,161.07c.93,7.01,1.65,12.41,2.37,17.8-.37,.11-.74,.21-1.12,.32-1.42-4.66-3-9.29-4.12-14.02-.21-.87,1.47-2.19,2.86-4.1Z"/>
    <path class="cls-1" d="M214.18,451.62h-17.28c.66-4.31,7.64-4.29,17.28,0Z"/>
    <path class="cls-1" d="M261.65,587.28c-2.97,5.92-7.98,9.38-13.98,11.66,3.81-4.92,8.38-8.93,14.08-11.57l-.1-.1Z"/>
    <path class="cls-1" d="M347.24,569.23c4.87-6.5,9.74-13,14.61-19.5,.45,.34,.89,.69,1.34,1.03-4.99,6.41-9.97,12.83-14.96,19.24-.33-.26-.66-.51-.99-.77Z"/>
    <path class="cls-1" d="M527.7,618.48c4.57,1.45,6.96,8.32,4.38,14.33-1.41-4.62-2.83-9.25-4.38-14.33Z"/>
    <path class="cls-1" d="M664.37,557.1c5.12,4.34,10.24,8.68,15.58,13.2-3.6,.78-12.44-6.49-15.58-13.2Z"/>
    <path class="cls-1" d="M237.98,266.51c5.36-.09,11.64,6.04,10.78,10.09-3.81-3.57-7.29-6.83-10.78-10.09Z"/>
    <path class="cls-1" d="M431.55,670.49c3.27,5.21,2.9,14.71,0,16.71v-16.71Z"/>
    <path class="cls-1" d="M246.56,558.41c-6.77,5.02-12.73,9.44-18.36,13.61-.3-3.23,9.9-11.58,18.36-13.61Z"/>
    <path class="cls-1" d="M670.29,321.8c-.95,3.88-3.48,6-7.21,7.32-3.81,1.35-7.4,3.32-11.09,5.02-.06-.19-.24-.59-.19-.62,6.18-3.89,12.38-7.75,18.57-11.61l-.08-.12Z"/>
    <path class="cls-1" d="M301.39,644.58c.36-8.29,6.2-13.32,11.03-18.98-3.68,6.33-7.35,12.65-11.03,18.98Z"/>
    <path class="cls-1" d="M197.11,473.68c3.73-4.93,4.79-5.3,10.49-3.68-1.59,1.62-2.62,3.51-4.11,3.99-1.71,.56-3.83-.12-6.38-.31Z"/>
    <path class="cls-1" d="M432.66,259.32c-.31-4.98-.61-9.95-.92-14.93,.63-.04,1.25-.07,1.88-.11,1.52,4.88,1.25,9.89,.61,14.93-.52,.04-1.05,.07-1.57,.11Z"/>
    <path class="cls-1" d="M310.12,211.08c3.88,5.06,7.76,10.12,11.64,15.17-.45,.35-.89,.7-1.34,1.05-1.91-2.54-3.81-5.09-5.72-7.62-1.91-2.53-3.82-5.07-5.73-7.6,.38-.33,.76-.67,1.14-1Z"/>
    <path class="cls-1" d="M610.35,607.2c-2.91-3.29-5.82-6.57-8.73-9.86,.46-.44,.92-.88,1.38-1.32,2.98,3.24,5.96,6.48,8.94,9.71-.53,.49-1.06,.98-1.59,1.47Z"/>
    <path class="cls-1" d="M579.93,512.1c3.65,3.71,7.3,7.42,10.93,11.14,2.13,2.18,4.21,4.4,5.97,6.94-6.51-5.18-12.24-11.12-16.8-18.18,0,0-.1,.1-.1,.1Z"/>
    <path class="cls-1" d="M261.75,587.37c3.07-3.62,6.14-7.24,9.21-10.86,.37,.34,.75,.69,1.12,1.03-2.58,4.17-5.57,7.91-10.43,9.73,0,0,.1,.1,.1,.1Z"/>
    <path class="cls-1" d="M266.95,494.59c-5.92,2.83-11.83,5.65-17.75,8.48-.16-.34-.33-.68-.49-1.02,5.91-2.84,11.83-5.67,17.74-8.51,.17,.35,.33,.69,.5,1.04Z"/>
    <path class="cls-1" d="M563.9,604.75c-2.34-3.54-4.67-7.08-7.01-10.63,.43-.31,.86-.61,1.29-.92,2.47,3.45,4.95,6.9,7.42,10.34-.57,.4-1.13,.8-1.7,1.2Z"/>
    <path class="cls-1" d="M278.68,225.96c-3.82-3.28-6.84-5.87-10.17-8.73,4.31-.51,8.62,3.09,10.17,8.73Z"/>
    <path class="cls-1" d="M421.83,666.31c.42,2.5,.98,4.99,1.16,7.51,.04,.54-1.25,1.18-1.93,1.77-.43-.67-1.18-1.32-1.22-2.02-.15-2.34-.06-4.7-.06-7.06,.68-.07,1.37-.14,2.05-.21Z"/>
    <path class="cls-1" d="M244.53,242.31c2.34,2.1,4.68,4.2,7.02,6.3-.43,.52-.86,1.05-1.3,1.57-2.48-1.95-4.96-3.91-7.44-5.86,.57-.67,1.14-1.34,1.71-2.02Z"/>
    <path class="cls-1" d="M238.87,362.71h-9.21c.01-.55,.03-1.1,.04-1.65,3.08,.14,6.16,.27,9.24,.41-.02,.42-.04,.83-.06,1.25Z"/>
    <path class="cls-1" d="M305.05,226.8c-1.55-2.47-3.1-4.93-4.65-7.4,.68-.42,1.35-.83,2.03-1.25,1.42,2.53,2.85,5.07,4.27,7.6-.55,.35-1.1,.7-1.65,1.05Z"/>
    <path class="cls-1" d="M305.82,599.35c-1.15,1.98-2.24,4-3.54,5.88-.11,.15-1.58-.64-3.02-1.24,1.98-2.13,3.56-3.82,5.14-5.51,.47,.29,.94,.58,1.41,.87Z"/>
    <path class="cls-1" d="M670.37,321.92c.55-2.75,6.24-6.23,10.56-5.32-3.56,1.73-7.11,3.45-10.66,5.19,.01,.01,.1,.13,.1,.13Z"/>
    <path class="cls-1" d="M379.18,626.46c-1.06,2.69-2.11,5.39-3.17,8.08-.49-.17-.98-.35-1.47-.52,.89-2.76,1.79-5.51,2.68-8.27,.65,.24,1.31,.47,1.96,.71Z"/>
    <path class="cls-1" d="M371.36,336.42c-3.95-4.96-7.88-9.93-11.86-14.86-1.77-2.19-3.65-4.28-5.48-6.41,.29-.28,.59-.56,.88-.84,2.78,2.94,5.66,5.78,8.29,8.84,2.44,2.85,4.74,5.84,6.82,8.97,.79,1.19,.77,2.91,1.11,4.39,0,0,.24-.08,.24-.08Z"/>
    <path class="cls-1" d="M454.85,506.21c-50.2,3.01-85.85-47.1-84.88-85.54,1.2-47.43,43.51-87.73,94.06-82.73,34.75,3.44,78.52,36.4,76.12,87.57-2.16,46.07-43.43,82.66-85.3,80.69Zm-70.75-47.84c15.3,31.66,47.41,48.23,82.04,43.94,32.67-4.04,60.45-33.37,63.52-51.21-6.5,13.84-17.36,15.17-30.02,12.18,2.93,6.67,8.14,12.18,5.89,19.94-4.54-7.96-4.51-18.92-15.42-22.64-1.59,8.95,3.87,16.26,4.71,24.61-1.66-1.52-3.02-3.17-3.85-5.06-5.48-12.32-5.68-25.45-5.29-38.55,.16-5.34,4-9.11,8.82-10.31,5.32-1.33,10.98-.96,15.76,2.66,.13,.1,.02,.53,.02,1.19-1.82-.44-3.58-1.22-5.34-1.21-3.84,.01-8.18-.64-11.43,.88-8.25,3.85-8.13,16.48-.25,22.41,10.33,7.76,26.09,5.3,33.66-5.26,.33-.47,.65-1.15,1.11-1.29,4-1.2,5.02-4.69,5.94-8.01,5.25-19.07,3.59-37.66-5.47-55.17-9.62-18.58-24.32-31.67-43.79-40.04-12.35-5.32-24.91-6.96-37.82-5.91-15.02,1.22-28.46,6.89-40.46,16.43-13.14,10.45-22.68,23.09-28.01,39.02-5.8,17.34-6.32,34.5,.91,51.56,1.74,4.1,3.48,8.19,9.16,7.69,.75-.07,1.66,.49,2.35,.97,11.29,7.88,18.66,3.98,26.59-2.1,4.17-3.2,5.39-7.66,3.77-12.43-1.99-5.86-5.98-9.31-11.26-9.35-3.41-.03-6.82,.36-10.23,.56,5.29-2.44,10.64-4.62,16.34-1.55,5.74,3.09,9.18,7.84,8.52,14.5-.56,5.61-1.66,11.21-2.97,16.71-1.83,7.68-4.07,15.26-6.14,22.88-1.82-9.13,3.66-17.26,3.56-26.39-9.94,4.16-13.12,12.62-15.38,21.8-4.24-8.04,2.79-12.28,6.28-18.48-9.56,2.33-17.43-.89-25.81-4.97Z"/>
    <path class="cls-1" d="M344.24,535.26c4.8-4.13,9.28-7.99,13.46-11.59,.02,3.65-4.45,7.78-13.46,11.59Z"/>
    <path class="cls-1" d="M430.32,461.87c7.02,1.66,12.25-1.44,17.14-5.65,3.36-2.89,4.67,.3,6.48,3.04,4.37-6.07,7.87-3.1,12.08,.23,2.23,1.77,5.89,1.84,8.96,2.4,1.74,.32,3.58,.06,5.37,.06,.14,.57,.29,1.14,.43,1.72-1.77,.69-3.5,1.84-5.31,1.97-3.07,.23-4.93,1.35-6.47,4.15-5.42,9.84-18.82,11.26-26.01,2.7-2.97-3.54-5.57-7.01-10.78-6.93-1.23,.02-2.47-.69-3.7-1.06,.6-.87,1.21-1.75,1.81-2.62Zm37.62,4.46c-5.47-1.61-23.41-1.18-26.3,.64,7.25,9.18,20.61,8.86,26.3-.64Z"/>
    <path class="cls-1" d="M455.92,344.18c-1.16,8.84,4.16,14.81,7.86,21.61,2.63,4.84,.68,8.83-4.39,11.58-2.53,1.37-3.98,3.52-2.46,5.53,4.27,5.69-1.57,8.25-2.47,12.28-.61-.17-1.22-.35-1.83-.52,.52-1.58,1.03-3.15,1.54-4.7-.92-.58-3.19-1.3-3.26-2.19-.11-1.47,1-3.2,1.96-4.55,1.8-2.52,1.39-3.99-1.39-5.44-8.14-4.25-9.34-11.64-2.7-18.06,2.6-2.51,4.1-4.86,3.9-8.57-.12-2.2,.86-4.46,1.35-6.7,.63-.09,1.26-.18,1.89-.27Zm3,22.8c-1.95-1.57-1.28-6.36-5.28-4.52-1.54,.71-3.27,4.96-2.6,5.83,2.7,3.53,4.95-1.04,7.88-1.31Z"/>
    <path class="cls-1" d="M526.69,389.99c-.77,3.37-2.18,6.33-6.02,6.05-5.13-.37-10.34-.96-15.26-2.37-6.59-1.89-12.96-4.11-19.98-2.46-11.78,2.76-20.25,12.69-20.91,24.73-.07,1.21-.2,2.41-.78,3.62-2.54-4.81-2.47-9.89-1.15-14.9,3.01-11.47,12.38-19.13,25.1-19.07,6.77,.03,13.55,2.37,20.28,3.9,2.09,.47,3.99,1.71,6,2.56,3.79,1.6,7.49,2.46,10.52-1.48,.25-.32,.7-.53,1.09-.69,.21-.09,.52,.04,1.09,.12Z"/>
    <path class="cls-1" d="M440.79,416.62c-7.37,.52-10.3,3.02-10.27,8.51-1.58-.99-3.1-2.6-4.76-2.74-.95-.08-2.11,2.2-3.1,3.33-2.87-3.88-3.03-3.9-5.44-.15-.83-1.19-1.42-2.9-2.56-3.45-1.25-.6-3.02-.14-4.73-.14-3.31-4.8-5.41,2.79-8.13,1.53,.75-2.15,1.51-4.32,2.27-6.49h-7.17c.57-.8,1.33-1.88,2.38-3.37-5.56-4.39-13.04-6.61-16.07-13.81,8,4.13,15.82,8.21,23.68,12.23,8.57,4.39,17.27,4.66,26,.5,5.57-2.65,6.13-2.43,7.9,4.04Z"/>
    <path class="cls-1" d="M510.33,416.23c-2.42,.57-4.84,1.14-8.08,1.91,1.81,1.65,2.84,2.58,4.89,4.46-2.87-1.03-4.54-1.63-6.57-2.36-.49,.83-1.01,1.73-1.64,2.79-2.58-.87-5.55-2.57-6.83,1.98-2.08-1.38-4.35-4.56-5.65,1.4-1.8-3.95-3.85-5.73-7.65-5.14-1.06,.16-2.36-2.18-3.77-2.99-1.55-.89-3.36-1.32-6.12-2.35,.63-1.08,1.37-3.45,2.98-4.72,.87-.69,3.49,.08,4.86,.93,6.77,4.2,14.06,4.34,21,1.64,9.89-3.85,19.39-8.69,29.36-13.25-1.81,1.88-3.5,4.11-5.65,5.75-2.64,2.02-5.76,3.41-8.46,5.36-1.29,.93-2.1,2.53-3.13,3.83l.45,.77Z"/>
    <path class="cls-1" d="M445.72,418.4c-.67-2.77-1.1-5.63-2.07-8.29-5.82-15.95-18.68-22.36-35.92-18.2-6.17,1.49-12.39,2.76-18.62,3.93-3.49,.65-4.8-1.62-5.47-4.61,3,.69,5.84,2.03,8.53,1.77,2.75-.27,5.31-2.21,8.01-3.25,8.23-3.14,16.6-5.38,25.54-3.69,13.19,2.49,22.97,15.02,22.07,28.42-.09,1.34-.63,2.66-.97,3.99-.37-.02-.74-.05-1.11-.07Z"/>
    <path class="cls-1" d="M443.64,437.28c-.27,1.78-.54,3.56-.94,6.21,3.51-3.17,5.91-1.75,8.81,.03,1.73,1.06,4.62,.72,6.86,.31,2.64-.48,5.14-1.71,8.17-2.79-.04-.74-.13-2.39-.26-4.86,3.62,1.71,4.85,4.02,4.64,7.33-.16,2.51-1.25,3.94-3.94,4.29-6.59,.86-6.58,.94-11.28,6.62-1.63-1.34-3.11-3.04-4.96-3.97-2.44-1.23-5.12-2.3-7.8-2.64-4.05-.51-5.38-2.07-3.82-6.16,.71-1.85,2.09-3.44,3.16-5.15,.45,.26,.9,.52,1.35,.78Z"/>
    <path class="cls-1" d="M453.87,497.53c-.73-1.03-2.02-2.4-2.74-4.03-.44-1-.41-2.67,.17-3.51,.61-.89,2.23-1.71,3.22-1.54,.85,.15,1.49,1.72,2.15,2.72,.75,1.12,1.41,2.3,2.12,3.45,.84-1.2,2.4-2.43,2.37-3.6-.07-2.1-.46-5-1.86-6.07-3.15-2.41-7.33-2.76-10.62-.38-1.91,1.38-2.71,4.3-4.07,6.62-.13-.42-1.13-1.91-.92-3.2,.74-4.56,6.27-7.75,12.29-7.45,4.37,.22,7.94,3.86,8.48,8.45,.45,3.83-.89,6.11-4.9,6.75-1.91,.31-3.74,1.16-5.69,1.79Z"/>
    <path class="cls-1" d="M403.05,441.47c2.26,2.15-.28,8.61,6.72,7.28-1.42-2.73-2.6-5.02-3.97-7.67,4.16-1.16,6.11,.22,7.05,3.05,1.13,3.4-.53,6.62-4.18,7.98-2.81,1.05-5.8,1.44-7.83-1.54-1.62-2.38-.39-7.01,2.22-9.1Z"/>
    <path class="cls-1" d="M406.18,363.33c4.86,3.4,9.32,6.27,13.41,9.59,1.01,.82,1.26,3.2,.99,4.7-.14,.75-2.2,1.5-3.45,1.64-8.82,.97-13.91-4.14-17.68-11.32,5.99,4.09,10.81,10.67,19.32,9.22,.58-.1,.94-1.47,1.45-2.33-5.9-2.48-10.83-5.45-14.03-11.51Z"/>
    <path class="cls-1" d="M389.74,418.1c.75,.88,2.2,1.82,2.16,2.68-.08,1.71-.51,3.88-1.65,4.97-3.13,3.01-10.42,1.01-11.8-3.12-.34-1,0-2.88,.73-3.44,1.24-.95,3.03-1.17,4.59-1.7,.2,.36,.4,.71,.6,1.07-.6,1.2-1.2,2.39-2.24,4.48,2.03,.5,4.58,1.84,5.37,1.16,1.28-1.12,1.41-3.55,2.25-6.1Z"/>
    <path class="cls-1" d="M520.94,418.16c-.2,2.22-.33,3.71-.46,5.19,2.08,.14,4.21,.57,6.18,.18,.45-.09,.35-3.01,.56-5.32,1.23,.84,2.92,1.99,4.61,3.14-1.22,1.64-2.15,4.23-3.71,4.7-2.49,.75-5.53,.53-8.07-.19-1.3-.37-2.99-2.88-2.78-4.14,.23-1.39,2.43-2.45,3.67-3.56Z"/>
    <path class="cls-1" d="M509.81,446.5c-1.92,1.78-3.74,4.84-5.77,4.98-2.01,.14-4.49-2.43-6.17-4.33-.52-.59,.9-2.89,1.66-5.09,1.69,3.01,2.76,4.91,3.82,6.81,1.8-1.12,3.59-2.25,5.39-3.37,.36,.33,.72,.66,1.08,1Z"/>
    <path class="cls-1" d="M490.82,378.68c7.44-1.35,13.19-5.42,18.11-11.96-1.32,8.05-10.48,13.89-18.11,11.96Z"/>
    <path class="cls-1" d="M427.28,348.63c1.82,5.04,3.64,10.08,5.46,15.12-4.89-3.31-8.21-11.6-5.46-15.12Z"/>
    <path class="cls-1" d="M396.14,432.96c-2.36,5.71-4.67,11.28-6.78,16.37-2.65-3.67,.7-13.24,6.78-16.37Z"/>
    <path class="cls-1" d="M479.44,486.34c1.28,2.78,2.02,4.38,2.75,5.98l1.43-.02c.44-1.8,.88-3.61,1.33-5.41,.38-.02,.75-.04,1.13-.07,0,1.51,.51,3.31-.13,4.47-.85,1.54-3.42,3.87-3.83,3.61-1.94-1.22-3.54-3.1-4.88-5.01-.26-.37,1.16-1.93,2.2-3.55Z"/>
    <path class="cls-1" d="M428,492.87c.16-1.76,.32-3.51,.59-6.42,1.19,1.51,2.99,3.21,2.74,3.59-1.16,1.79-2.66,3.63-4.49,4.59-.74,.39-3.1-1.12-3.85-2.32-.54-.86,.39-2.63,.66-4,.45,.06,.89,.11,1.34,.17,.46,1.46,.93,2.93,1.39,4.39,.54,0,1.08,0,1.62,0Z"/>
    <path class="cls-1" d="M483,350.19c-1.69,4.77-3.39,9.55-5.08,14.32-.53-.2-1.05-.41-1.58-.61,.25-5.4,1.63-10.35,6.66-13.71Z"/>
    <path class="cls-1" d="M500,367.24c-3.42,2.79-6.85,5.57-10.72,8.72q-.24-3.45,9.87-9.72c.28,.33,.57,.66,.85,.99Z"/>
    <path class="cls-1" d="M427.83,744.5c-7.74,2.88-13.57-2.19-20.68-2.5,2.92-2.64,15.97-.87,20.68,2.5Z"/>
    <path class="cls-1" d="M479.79,747.7c4.29-5.12,16.72-9.78,21.28-8.18-6.25,4.88-13.38,6.05-21.28,8.18Z"/>
    <path class="cls-1" d="M496.49,722.96c-4.91,6.64-12.57,5.57-18.7,9.18,1.01-3.81,12.91-9.44,18.7-9.18Z"/>
    <path class="cls-1" d="M409.94,722.18c6.63-.87,18.93,4.12,21.2,8.38-7.91-.63-13.95-4.6-21.2-8.38Z"/>
    <path class="cls-1" d="M442.96,773.99c-.17,8.26-7.03,11.82-9.93,18.31-1.38-3.69,5.07-15.17,9.93-18.31Z"/>
    <path class="cls-1" d="M464.41,775.21c.17,8.26,7.03,11.82,9.93,18.31,1.38-3.69-5.07-15.17-9.93-18.31Z"/>
    <path class="cls-1" d="M454.23,776.79c2.85,6.05,1.85,19.28-1.51,22.74-1.81-7.72,.13-14.69,1.51-22.74Z"/>
  </g>
  <g>
    <circle class="cls-1" cx="121.11" cy="421.72" r="4.81"/>
    <circle class="cls-1" cx="106.14" cy="421.72" r="4.81"/>
    <circle class="cls-1" cx="93.84" cy="421.72" r="3.21"/>
    <circle class="cls-1" cx="82.6" cy="421.72" r="1.6"/>
    <circle class="cls-1" cx="785.89" cy="421.72" r="4.81"/>
    <circle class="cls-1" cx="800.86" cy="421.72" r="4.81"/>
    <circle class="cls-1" cx="813.16" cy="421.72" r="3.21"/>
    <circle class="cls-1" cx="824.4" cy="421.72" r="1.6"/>
    <circle class="cls-1" cx="155.88" cy="420.64" r="21.39"/>
    <circle class="cls-1" cx="749.04" cy="419.03" r="21.39"/>
    <g>
      <circle class="cls-1" cx="169.83" cy="379.01" r="6.33"/>
      <circle class="cls-1" cx="173.66" cy="357.82" r="6.33"/>
      <circle class="cls-1" cx="180.08" cy="336.63" r="6.33"/>
      <circle class="cls-1" cx="187.57" cy="315.44" r="6.33"/>
      <circle class="cls-1" cx="196.74" cy="295.59" r="6.33"/>
      <circle class="cls-1" cx="204.85" cy="277.61" r="6.33"/>
      <circle class="cls-1" cx="214.48" cy="262.84" r="6.33"/>
      <circle class="cls-1" cx="226.25" cy="249.15" r="6.33"/>
      <circle class="cls-1" cx="237.9" cy="234.08" r="6.33"/>
      <circle class="cls-1" cx="250.98" cy="220.73" r="6.33"/>
      <circle class="cls-1" cx="263.29" cy="208.04" r="6.33"/>
      <circle class="cls-1" cx="276.78" cy="197.02" r="6.33"/>
      <circle class="cls-1" cx="307.5" cy="176.14" r="6.33"/>
      <circle class="cls-1" cx="326.21" cy="166.22" r="6.33"/>
      <circle class="cls-1" cx="416.67" cy="139.06" r="6.33"/>
      <circle class="cls-1" cx="434.3" cy="137.22" r="6.33"/>
      <circle class="cls-1" cx="378.48" cy="146.33" r="6.33"/>
      <circle class="cls-1" cx="396.12" cy="141.29" r="6.33"/>
      <circle class="cls-1" cx="343.18" cy="158.1" r="6.33"/>
      <circle class="cls-1" cx="291.72" cy="186.56" r="6.33"/>
      <circle class="cls-1" cx="361.25" cy="151.26" r="6.33"/>
    </g>
    <g>
      <circle class="cls-1" cx="740.76" cy="379.01" r="6.33"/>
      <circle class="cls-1" cx="736.93" cy="357.82" r="6.33"/>
      <circle class="cls-1" cx="730.51" cy="336.63" r="6.33"/>
      <circle class="cls-1" cx="723.03" cy="315.44" r="6.33"/>
      <circle class="cls-1" cx="713.85" cy="295.59" r="6.33"/>
      <circle class="cls-1" cx="705.74" cy="277.61" r="6.33"/>
      <circle class="cls-1" cx="696.11" cy="262.84" r="6.33"/>
      <circle class="cls-1" cx="684.35" cy="249.15" r="6.33"/>
      <circle class="cls-1" cx="672.7" cy="234.08" r="6.33"/>
      <circle class="cls-1" cx="659.61" cy="220.73" r="6.33"/>
      <circle class="cls-1" cx="647.3" cy="208.04" r="6.33"/>
      <circle class="cls-1" cx="633.82" cy="197.02" r="6.33"/>
      <circle class="cls-1" cx="603.1" cy="176.14" r="6.33"/>
      <circle class="cls-1" cx="584.39" cy="166.22" r="6.33"/>
      <circle class="cls-1" cx="493.93" cy="139.06" r="6.33"/>
      <circle class="cls-1" cx="476.29" cy="137.22" r="6.33"/>
      <circle class="cls-1" cx="532.11" cy="146.33" r="6.33"/>
      <circle class="cls-1" cx="514.47" cy="141.29" r="6.33"/>
      <circle class="cls-1" cx="567.41" cy="158.1" r="6.33"/>
      <circle class="cls-1" cx="618.87" cy="186.56" r="6.33"/>
      <circle class="cls-1" cx="549.34" cy="151.26" r="6.33"/>
    </g>
    <g>
      <circle class="cls-1" cx="739.74" cy="468.93" r="6.33"/>
      <circle class="cls-1" cx="735.91" cy="490.12" r="6.33"/>
      <circle class="cls-1" cx="729.49" cy="511.3" r="6.33"/>
      <circle class="cls-1" cx="722" cy="532.49" r="6.33"/>
      <circle class="cls-1" cx="712.83" cy="552.34" r="6.33"/>
      <circle class="cls-1" cx="704.72" cy="570.32" r="6.33"/>
      <circle class="cls-1" cx="695.09" cy="585.09" r="6.33"/>
      <circle class="cls-1" cx="683.32" cy="598.79" r="6.33"/>
      <circle class="cls-1" cx="671.67" cy="613.85" r="6.33"/>
      <circle class="cls-1" cx="658.59" cy="627.21" r="6.33"/>
      <circle class="cls-1" cx="646.28" cy="639.9" r="6.33"/>
      <circle class="cls-1" cx="632.79" cy="650.92" r="6.33"/>
      <circle class="cls-1" cx="602.07" cy="671.79" r="6.33"/>
      <circle class="cls-1" cx="583.36" cy="681.71" r="6.33"/>
      <circle class="cls-1" cx="492.91" cy="708.88" r="6.33"/>
      <circle class="cls-1" cx="475.27" cy="710.72" r="6.33"/>
      <circle class="cls-1" cx="531.09" cy="701.6" r="6.33"/>
      <circle class="cls-1" cx="513.45" cy="706.65" r="6.33"/>
      <circle class="cls-1" cx="566.39" cy="689.83" r="6.33"/>
      <circle class="cls-1" cx="617.85" cy="661.37" r="6.33"/>
      <circle class="cls-1" cx="548.32" cy="696.67" r="6.33"/>
    </g>
    <g>
      <circle class="cls-1" cx="168.81" cy="468.93" r="6.33"/>
      <circle class="cls-1" cx="172.64" cy="490.12" r="6.33"/>
      <circle class="cls-1" cx="179.06" cy="511.3" r="6.33"/>
      <circle class="cls-1" cx="186.55" cy="532.49" r="6.33"/>
      <circle class="cls-1" cx="195.72" cy="552.34" r="6.33"/>
      <circle class="cls-1" cx="203.83" cy="570.32" r="6.33"/>
      <circle class="cls-1" cx="213.46" cy="585.09" r="6.33"/>
      <circle class="cls-1" cx="225.22" cy="598.79" r="6.33"/>
      <circle class="cls-1" cx="236.87" cy="613.85" r="6.33"/>
      <circle class="cls-1" cx="249.96" cy="627.21" r="6.33"/>
      <circle class="cls-1" cx="262.27" cy="639.9" r="6.33"/>
      <circle class="cls-1" cx="275.75" cy="650.92" r="6.33"/>
      <circle class="cls-1" cx="306.47" cy="671.79" r="6.33"/>
      <circle class="cls-1" cx="325.19" cy="681.71" r="6.33"/>
      <circle class="cls-1" cx="415.64" cy="708.88" r="6.33"/>
      <circle class="cls-1" cx="433.28" cy="710.72" r="6.33"/>
      <circle class="cls-1" cx="377.46" cy="701.6" r="6.33"/>
      <circle class="cls-1" cx="395.1" cy="706.65" r="6.33"/>
      <circle class="cls-1" cx="342.16" cy="689.83" r="6.33"/>
      <circle class="cls-1" cx="290.7" cy="661.37" r="6.33"/>
      <circle class="cls-1" cx="360.23" cy="696.67" r="6.33"/>
    </g>
  </g>
</svg>