<?xml version="1.0" encoding="UTF-8"?>
<svg id="Layer_1" data-name="Layer 1" xmlns="http://www.w3.org/2000/svg" xmlns:xlink="http://www.w3.org/1999/xlink" viewBox="0 0 922 837">
  <defs>
    <style>
      .cls-1 {
        fill: none;
      }

      .cls-2 {
        clip-path: url(#clippath);
      }

      .cls-3 {
        fill: #0d3531;
      }
    </style>
    <clipPath id="clippath">
      <polygon class="cls-1" points="434.02 697.67 490.3 547.11 634.93 604.1 566.54 472.41 712.34 424.11 562.2 365.8 631.46 231.89 487.74 294.53 434.25 155.96 382.4 291.9 240.59 231.95 309.64 365.32 165.49 424.11 306.45 472.41 277 531.18 235.6 602.03 317.65 566.6 377.85 545.63 434.02 697.67"/>
    </clipPath>
  </defs>
  <path class="cls-3" d="M438.12,114.73c1.28,9.02,6.56,14.18,15.64,17.62-8.35,2.32-13.73,6.32-14.65,14.95-1.14-8.54-5.95-12.88-14.32-14.4,8.24-3.44,12.63-9.31,13.33-18.17Zm5.62,16.97c-1.95-1.95-3.69-3.69-4.71-4.72-2.07,1.62-4.09,3.2-6,4.69,1.9,1.68,3.71,3.28,5.48,4.85,1.79-1.65,3.41-3.15,5.22-4.83Z"/>
  <g class="cls-2">
    <path class="cls-3" d="M191.83,639.33c1.57-.95,3.93-1.44,1.93-4.09,5.64-.94,8.31-5.55,11.94-8.91,.72-.66,1.42-1.42,2.28-1.84,6.49-3.22,7.44-7.12,3.01-12.73-5.41-6.84-11.3-13.37-16.15-20.58-7.87-11.72-15.78-23.52-22.34-35.99-5.67-10.78-10.03-22.36-13.99-33.92-4.3-12.56-8.05-25.37-10.99-38.31-3.33-14.66-5.65-29.57-5.84-44.71-.03-2.89-.63-5.83-1.01-8.23-.11-.7-.13-1.4-.05-2.11l.2-1.91c.48-6.57,.83-13.11,1.46-19.61,1.25-12.97,1.84-26.07,4.16-38.86,3.6-19.86,8.87-39.39,17.56-57.74,5.13-10.84,10.44-21.64,16.41-32.03,4.33-7.53,9.86-14.37,14.86-21.5,.75-1.07,1.54-2.1,2.17-2.95,.68-3.37-1.32-4.37-4.32-4.37,.86,.07,1.82-2.13,2-2,6.48,4.5,3.87,4.08,8.99-1.73,11.49-13.03,22.09-26.91,35.3-38.35,6.36-5.51,13.06-10.63,19.21-16.36,5.37-5,11.92-8.12,17.69-12.39,8.8-6.51,18.88-10.65,28.21-16.13,6.79-3.99,14.7-6.07,22.08-9.06,.91-.37,1.68-1.09,2.49-1.69,.51-.38,.89-1.12,1.43-1.23,4.64-.99,9.3-1.87,13.95-2.78,.25-.05,.65,.04,.75-.1,2.66-3.47,6.77-2.43,10.25-3.33,2.88-.75,5.87-1.14,8.68-2.09,1.75-.59,3.25-1.91,5-2.19,2.71-.74,5.66-1.04,8.08-2.32,2.76-1.46,4.31-.6,6.55,1.74-4.14,.8-7.75,1.3-11.25,2.21-8.52,2.22-17.12,4.27-25.46,7.07-10.71,3.6-21.36,7.49-31.73,11.96-10.26,4.43-20.32,9.42-30.14,14.77-6.23,3.39-12.08,7.59-17.72,11.93-9.27,7.14-18.38,14.51-27.25,22.14-3.26,2.8-5.7,6.57-8.4,9.98-.37,.47-.46,1.77-.12,2.06,.53,.47,1.55,.64,2.32,.55,1.52-.17,3.01-.61,4.51-.93l-.1-.07c-1.01,.79-2.01,1.58-2.46,1.93,0,1.81,0,3.07,0,4.33-2.14-1.52-4.29-3.04-6.8-4.82-1.3,1.05-3.74,2.49-5.49,4.52-6.6,7.66-13.02,15.47-19.38,23.32-1.11,1.37-1.17,3.08-2.17,5.08h0c-1.22,.95-2.92,1.36-3.82,2.54-3.49,4.62-6.65,9.5-10.21,14.07-8.41,10.81-15.03,22.7-20.42,35.17-7.91,18.32-13.95,37.32-17.52,56.99-1.84,10.12-3.43,20.31-4.42,30.54-1.01,10.46-1.15,21-1.69,32.04,2.96-.78,4.91-1.3,6.03-1.59,0-3.03-.11-5.44,.14-7.81,.03-.3,1.94-.4,3.43-.68-.34,3.09-.6,5.51-.87,7.94,3.53,.06,4.72-1.28,5.29-6.64,.67-6.29,.97-12.61,1.59-18.9,.13-1.29,.96-2.51,1.47-3.76,.54,.29,1.51,.51,1.55,.87,.21,1.61,.29,3.27,.16,4.89-.04,.49-1.07,.84-1.32,1.4-.44,1-.9,2.11-.87,3.16,.06,2.1,.44,4.2,.69,6.3q5.72-6.34,13.55-9.18c-3.85,3.62-7.2,7.15-10.95,10.19-2.53,2.05-3.25,4.14-1.63,7.55,.85-.6,1.2-1.63,1.88-2.35,9.25-9.75,18.43-19.58,27.86-29.15,7.66-7.77,15.64-15.22,23.45-22.83,1.28-1.24,2.51-2.54,3.67-3.89,1.48-1.71,2.87-3.5,4.69-5.73,2.2,.52,11.24-10.13,14.24-13.13,3-2,5-4,8-7,0,0,4.56-4.93,5-4,2.88-3.34,5.2-6.8,7.97-9.76,2.17-2.32,1.86-3.96-.27-6.31-12.86-14.2-25.54-28.57-38.3-42.86-.74-.83-1.65-1.52-3.39-3.11-.73-.68-2.81-3.15-3.69-2.85-.34,.12-.51-.34-.33,.9-.32-.48-.8,.32-1,0-1.33-2.05-.17-1.08,0-1,.12,.05,.71,.18-.67-1.51-.69,5.42-9.59,6.15-6.67,13.31q-4.81,.84-3.94,7.69c-1.07-.83-1.95-1.51-3.04-2.35-1.22,1.92-2.32,3.65-2.78,4.37,.82,2.64,1.56,2.8,2.09,4.49-.51,.28-.62,1.75-1.13,2.03l-.87,2.97q-1,2-2.81,4.63l-.7,.5c-1.19-1.01-2.37-2.01-3.73-3.17l-.76-.96h0c.58-1.45,1.22-1.66,2-3,5.51-9.44,8.84-15.25,14.39-24.67,2.2-3.73,3.92-7.84,6.62-11.16,8.07-9.93,16.55-19.52,24.74-29.35,.8-.96,.67-2.69,.98-4.07,2.67-1.5,5.56-2.7,7.96-4.54,9.97-7.61,19.54-15.77,29.75-23.03,6.22-4.42,13.35-7.55,20.59-10.67-3.82,2.73-7.64,5.47-11.7,8.37,1.01,.55,1.72,.93,3.72,2.01-3.15,.97-5.24,1.61-7.56,2.33,.18,.4,.3,1.21,.78,1.64,5.2,4.67,10.57,9.16,15.66,13.94,5.42,5.09,10.55,10.48,15.87,15.66,3.83,3.72,7.49,7.7,11.76,10.85,2.68,1.98,6.33,3.56,9.56,3.61,2.38,.03,5.18-2.33,7.13-4.29,10.47-10.53,20.84-21.17,31.02-31.98,5.69-6.05,10.8-12.66,16.43-18.77,7.84-8.52,15.96-16.78,23.89-25.22,3.41-3.63,6.57-7.51,10.02-11.11,.93-.96,2.51-1.29,3.79-1.91-13.86,15.77-27.74,31.51-41.52,47.33-.96,1.1-1.4,2.77-1.76,4.26-1.48,6.13-2.82,12.3-4.27,18.44-.1,.44-.65,.78-1.08,1.26,1.33-6.58,2.61-12.86,3.88-19.14-8.1,6.84-15.47,13.71-22.51,20.91-7.07,7.24-13.8,14.8-21.42,23.03,8.64,8.51,16.6,16.34,24.6,24.22,1.17-3.83,2.04-6.68,2.9-9.53,.37,.11,.73,.21,1.1,.32-.14,.73-.2,1.5-.45,2.2-2.07,5.86-1.16,8.98,3.54,12.83,2.14,1.75,4.02,3.83,6.16,5.58,2.68,2.19,5.51,4.2,8.71,6.61,.99-2.75,1.58-4.62,2.33-6.43,8.56-20.59,17.18-41.15,25.71-61.75,7.68-18.54,15.55-37.03,20.07-56.67,1.12-4.86,1.46-9.91,2.16-14.87-1.03-.34-.78-.26-1.81-.59-5.11,9.46-10.24,18.9-15.31,28.38-3.77,7.06-7.4,14.19-11.27,21.2-.44,.79-2.02,.94-3.07,1.39,0,0,.02,0,.02,0,.22-.11,.57-.16,.66-.33,7.8-15.69,15.59-31.39,23.31-47.12,.14-.29-.49-.96-.76-1.45,.74-1.08,1.48-2.17,2.23-3.25l-.47-.78c-12.96,1.55-25.93,3.09-38.89,4.64-.04-.26-.08-.53-.12-.79,4.04-.81,8.06-1.74,12.12-2.42,8.97-1.5,17.97-2.88,26.95-4.3,3.52-.55,5.5-2.22,5.02-6.15-.33-2.69-.29-5.43-.44-8.75-1.28,1.16-2,1.83-2.9,2.64-4.53-5.53-9.79,1.14-15.28-1.32,1.78-1.23,3.25-2.25,4.72-3.27,.06,.35,.13,.69,.19,1.04,1.86,0,3.81,.37,5.56-.06,7.6-1.86,15.02-.59,22.45,.91,.29,.06,.49,.56,1.44,1.7-2.61,0-4.51-.13-6.39,.05-1.22,.11-2.83,.28-3.51,1.07-2.59,3.05-.38,9.93,3.44,11.2,1,.33,2.05,.5,3.09,.69,15.27,2.73,30.55,5.46,45.83,8.13,1.14,.2,2.34,.03,3.51,.03-.02,.39-.04,.78-.05,1.17-3.61-.26-7.27-.22-10.81-.84-7.41-1.3-14.71-3.23-22.14-4.36-5.59-.86-11.3-.88-17.95-1.35,1.84,2.33,3,4.03,4.39,5.51,13.32,14.11,26.72,28.15,40.01,42.29,4.23,4.5,8.12,9.31,12.36,13.8,1.03,1.09,2.81,1.47,3.65,1.88,.93,1.61,1.45,3.09,2.44,4.13,7.67,8.09,15.37,16.17,23.22,24.1,2.28,2.31,5.07,4.11,7.41,5.98,6.04-4.6,11.96-9.1,17.87-13.61l.63,.72c-1.02,.86-2.03,1.73-3.06,2.58-4.29,3.5-8.66,6.89-12.84,10.52-1.62,1.41-.8,2.5,1.16,2.78,.8,1.7,1.27,3.7,2.47,5.03,2.65,2.93,6.04,5.24,8.43,8.34,2.41,3.11,4.88,3.47,8.12,2.05,.97-.42,1.96-.8,2.92-1.23,18.99-8.6,38.03-17.11,56.94-25.89,4.07-1.89,7.67-4.8,11.49-7.24v-1.62c-3.76-2.32-7.3-5.14-11.33-6.76-1.85-.75-4.64,.81-7,1.34-.77,.17-1.52,.44-2.29,.57-4.84,.79-9.69,1.54-14.53,2.34-2.54,.42-5.06,.94-7.59,1.42-.07-.38-.14-.75-.22-1.13,5.34-1.31,10.63-3.01,16.05-3.79,4.19-.6,7.59-1.79,10.11-6.07-2.13-2.15-4.36-4.42-6.62-6.7-1.29,1.75-2.12,2.88-2.94,4l-.82-.64c.63-1.23,1.27-2.47,2.18-4.24-2.98-2.12-5.86-4.37-8.96-6.26-.86-.52-2.79-.51-3.48,.11-9.75,8.67-19.42,17.44-28.97,26.33-1.22,1.13-1.62,3.14-2.68,5.33-.98,.45-3.01,1.04-4.62,2.21-5.4,3.9-10.64,8-15.95,12.02,2.23-2.52,4.3-5.21,6.74-7.51,4.83-4.57,9.9-8.88,14.79-13.4,8.63-7.98,17.2-16.02,25.8-24.03,1.32-1.23,2.66-2.42,4.59-4.18l-4.15-.58c.06-.89,.13-1.75,.19-2.61l-2.69,1.33c-1.71-2.54-3.49-5.2-5.18-7.72,7.38,2.88,14.37,7.18,20.86,12.36,9.61,7.67,19.24,15.31,28.86,22.96,.61,.49,1.3,.88,2.08,1.4,2.23-2.64,4.41-5.22,7.35-8.71-2.42-2.64-5.13-6.41-8.62-9.24-10.68-8.66-21.02-17.97-32.65-25.15-16.14-9.96-32.48-19.89-50.75-25.87-3.36-1.1-6.34-3.35-9.69-4.47-11.72-3.91-23.46-7.76-35.31-11.24-6.94-2.04-14.09-3.33-21.13-5.02-.94-.23-1.79-.81-2.68-1.23,.05-.43,.11-.87,.16-1.3,1.32,0,2.69-.23,3.96,.04,5,1.04,10,2.08,14.92,3.42,4.47,1.22,8.83,2.83,13.25,4.25,.61,.2,1.25,.28,1.87,.44,2.85,.74,5.71,1.45,8.54,2.24,3.93,1.1,7.81,2.37,11.76,3.35,4.18,1.03,7.35,4.95,12.13,4.21,7.34,5.8,16.82,7.21,24.65,12.06,13.73,8.49,28.95,14.41,41.26,25.39,10.3,9.19,21.56,17.31,32.12,26.22,4.08,3.44,7.52,7.68,11.1,11.68,6.69,7.46,13.27,15.01,20.15,22.82,.81-.35,2.11-.9,3.53-1.5-.31,2.16-1.25,4.35-.68,6,.54,1.56,2.69,2.56,4.37,4.02,.21,.71,.35,2.02,.96,3.05,3.93,6.59,8.05,13.07,11.94,19.69,4.03,6.87,8.31,13.64,11.67,20.83,4.06,8.69,7.32,17.77,10.81,26.72,.75,1.93,1.46,3.88,2.05,5.86,2.64,8.94,4.56,18.09,7.29,27,2.11,6.88,1.74,14.03,2.87,20.87,1.58,9.59,1.33,19.35,3.4,28.83,.16,.71-.24,1.55-1.15,2.37-.26-.62-.68-1.21-.76-1.85-.51-4.16-.79-8.35-1.42-12.5-2.37-15.62-3.98-31.43-7.52-46.78-3.67-15.92-8.62-31.64-16.62-46.12-7.8-14.1-15.53-28.25-23.62-42.19-2.21-3.8-5.59-6.92-8.45-10.38-4.37,2.92-2.64,5.07,.35,7.15l-.77,1.2c-.99-.56-1.95-1.18-2.97-1.68-1.19-.58-2.42-1.06-3.64-1.58-.19,1.32-.92,2.9-.46,3.93,1.63,3.61,3.69,7.02,5.57,10.51l-.84,.61c-3.32-3.43-6.64-6.86-9.99-10.31-8.8,4.41-5.49,13.18-7.33,19.94-.33-.07-.65-.13-.98-.2,.33-3.87,.67-7.73,1-11.6l-1.26-.54c-3.44,3.94-6.88,7.88-10.3,11.83-.69,.8-1.36,1.62-1.97,2.49-1.22,1.73-2.33,3.54-3.48,5.32,.32,.31,.65,.62,.97,.93h-4.19c5.57-12.79,18.11-20.33,25.05-32.08-.3-.24-.61-.48-.91-.72-2.18,2.77-4.36,5.54-6.59,8.39-3.39-5.82,5.59-8.4,3.35-14.81-3.58,6.92-6.57,13.01-9.88,18.92-1.71,3.06-4.11,5.73-6,8.7-2.3,3.61-5,7.14-6.42,11.09-1.86,5.19-5.42,8.68-9.16,12.33-3.95,3.85-7.56,8.06-11.15,12.26-.56,.65-.71,2.46-.22,3.07,2.44,3.06,5.17,5.89,8.48,9.57,.23-2.84,.39-4.82,.54-6.8,.22,0,.44,0,.66,0,0,1.2,.13,2.42-.02,3.59-.48,3.66,1.2,6.34,3.63,8.79,3.71,3.76,7.31,7.62,11.06,11.35,2.69,2.68,5.54,5.21,8.64,8.12,.57-.22,1.76-.66,3.38-1.28-.48,7.77,5.71,10.7,10.13,14.74,11.02,10.07,22.02,20.17,33.49,29.71,6.88,5.72,14.61,10.42,22.87,16.23-.99-8.54-1.88-15.98-2.7-23.43-.24-2.21-.27-4.44-.39-6.67l-.09,.05c.71,.84,1.94,1.62,2.04,2.53,1.21,11.02,2.39,22.04,3.27,33.09,.31,3.87,1.98,5.73,6.12,6.2v-6.23l1.27-.6c.67,1,2.05,2.14,1.89,2.98-.57,2.97,.85,3.85,3.33,4.05,2.34,.19,4.69,.55,7.01,.4,.71-.05,1.68-1.42,1.93-2.35,.74-2.66,1.1-5.43,1.75-8.12,2.39-10.01,10.29-15.59,17.67-22.08-.16-.27-.43-.79-.76-1.27-.29-.42-.64-.8-.48-1.81,1.06,.77,2.12,1.55,3.33,2.43,12.16-3.91,24.06-4.22,35.85,2.94,11.54,7,17.74,16.99,19.35,29.84,5.95,.62,11.35,1.19,16.76,1.76-.07,1.38-.04,.8-.11,2.17h-17.13c-.99,13.22-6.38,23.25-16.27,30.48-7.76,5.67-16.57,7.2-26.29,6.54-15.48-1.05-34.54-15.95-33.88-37.06-3.47-.75-6.96-1.52-10.35-2.25-1.48,3.08-.35,7.18-4.84,8.21-.48-3.13-.69-6.06-1.55-8.8-.17-.53-2.86-.26-4.64-.38-2.01,10.34-.4,20.92-3.69,30.7l-1.34-.27c.76-9.33,1.51-18.65,2.35-28.96-3.34,2.78-5.71,4.76-7.85,6.54,.3,1.54,.57,2.95,.84,4.36-.43,.1-.85,.19-1.28,.29-.64-1.06-1.28-2.12-1.92-3.17-12.18,6.19-54.43,42.6-53.99,45.51-2.24,1.15-4.58,1.75-6.06,3.22-5.52,5.45-10.65,11.3-16.14,16.79-4.89,4.91-9.9,9.73-15.16,14.23-2.87,2.46-3.04,4.63-.71,7.21,3.27,3.63,6.66,7.14,9.98,10.72,.44,.47,.8,1.02,1.17,1.5-.82,1.13-1.55,2.12-2.8,3.83,.05-9.49-9.69-10.98-12.08-18.69-4.96,4.37-9.27,8.16-13.81,12.16,8.41,15.08,16.68,30.1,25.15,45.01,3.34,5.88,7,11.59,10.66,17.28,1.21,1.89,2.67,3.62,4.32,5.14,5.16,4.75,5.66,4.84,10.1-.56,2.61-3.17,4.78-6.7,7.2-10.04,.22-.3,.86-.28,1.11-.58,.64-.76,1.84-1.89,1.64-2.38-1.25-3-1.37-7.07-6.01-7.16,1.19-7.03-6.22-10.33-6.11-16.99,.76,.94,1.52,1.88,2.28,2.82,.99,1.11,2.14,2.11,2.91,3.35,1.54,2.47,2.87,5.07,4.67,8.29-.39-6.59-3.28-10.71-7.59-11.64-.25-.95-.19-2.24-.8-2.81-5.47-5.15-7.03-13.37-13.81-17.49-1.75-1.06-3.29-2.45-4.58-4.34,.73,.28,1.46,.57,2.5,.98v-7.27c-.81,6,3.56,8.97,7.24,12.57,.72-2.32,1.42-4.55,2.11-6.78,.55,.09,1.11,.18,1.66,.27-.29,2.13-.27,4.37-.95,6.37-.83,2.43,.33,4.27,1.89,4.3,6.74,9.74,13.03,18.84,19.81,28.64,3.23-3.82,6.03-6.96,8.54-10.31,.41-.55-.45-2.07-.66-2.88,1.55-.48,3.19-.99,4.84-1.49l-.1-.11c-5.82,9.1-11.5,18.29-17.53,27.25-2.49,3.7-5.8,6.84-8.62,10.34-1.1,1.37-1.87,3.01-2.73,4.42,2.67,1.22,4.81,2.2,7.2,3.3-1.42,1.61-2.3,2.61-3.17,3.6,.34,.37,.68,.74,1.02,1.11,2.44-2.17,5.16-4.1,7.28-6.55,18.94-21.86,34.67-45.88,48.34-71.35,8.16-15.2,14.47-31.05,18.61-47.75,2.28-9.18,4.13-18.46,7.15-27.93,.21,1.27,.84,2.63,.58,3.79-2.82,12.4-5.39,24.87-8.85,37.09-2.09,7.39-5.31,14.52-8.56,21.52-4.66,10.01-9.42,20.01-14.86,29.61-5.13,9.06-10.82,17.87-16.95,26.29-8.47,11.62-14,18.7-22.94,29.97-1.84,2.32-4,3-4,6,.28,.15-.84-.05-1,0s-.59,0-1,0c-1.19,0-1.71,1.29-1,2-.36,.41-.64,.59-1,1l-2,2c-1.43,1.71-.45,.74-2.22,2.62-6.94,7.39-13.69,14.99-21.01,21.99-7.47,7.14-15.03,14.38-23.44,20.32-16.47,11.64-33.15,23.09-51.92,30.95-7.66,3.2-15.06,7.04-22.8,10.01-6.38,2.45-13.01,4.34-19.66,5.91-4.44,1.05-9.11,1.11-13.68,1.62-.26,.03-.57,.06-.74,.22-2.69,2.54-6.1,2.11-9.37,2.81-11.31,2.43-22.75,3.14-34.19,4.12-4.05,.35-8.1,.59-13.32,.96,.7,5.26,1.3,10.68,2.28,16.02,.15,.82,1.96,1.55,3.13,1.94,5.12,1.72,10.31,3.25,15.42,5.01,.82,.28,1.62,1.24,2.02,2.07,3.04,6.43,5.93,12.94,9.01,19.35,.4,.84,1.61,1.28,2.17,1.7-.53,1.84-1.06,3.68-1.59,5.53-1.29,4.54-2.27,9.2-3.93,13.59-3.57,9.45-11.17,14.53-20.45,17.13-4.08,1.14-6,3.07-6.03,7.29-.01,2-.76,4-1.17,6-.37-.01-.74-.03-1.11-.04-.3-2.89-.76-5.78-.84-8.68-.07-2.5-.88-3.94-3.55-4.19-15.54-1.43-22.46-11.65-25.91-25.43-.47-1.89-1.63-3.64-1.91-5.54-.23-1.55,.29-3.24,.62-4.84,.18-.85,.95-1.65,.95-2.47-.02-5.34,2.68-9.53,5.41-13.8,1.43-2.23,2.26-4.85,3.69-8.02,5.38-1.48,11.73-3.15,18.01-5.02,.91-.27,2.2-1.45,2.22-2.23,.15-5.15,0-10.32-.08-15.48-.01-.75-.4-1.53-.27-2.23,.68-3.55,.32-6.6-3.94-8.12,.64-.98,1.17-1.69,1.59-2.45,1.28-2.32,.07-4.59-2.55-4.96-5.41-.77-10.82-1.54-16.24-2.31,.34-2.29,.58-3.9,.91-6.16,1.05,.64,2.5,1.13,2.48,1.55-.19,4.16,2.93,3.74,5.41,3.96,2.21,.2,4.45,.04,7.49,.04-2.15-2.88-3.98-5.34-6.25-8.38,1.35,.28,2.1,.43,3.51,.73-1.33-2.37-2.13-4.68-3.64-6.34-12.94-14.28-26.01-28.44-39.36-42.99,4.6,8.18,8.94,15.91,13.28,23.63l.09-.07c-1.95-2.57-3.98-5.08-5.83-7.71-2.72-3.87-5.3-7.82-7.94-11.75-.32-.47-.61-.96-.87-1.46-7.54-14.03-19.39-24.34-30.44-35.36-4.33-4.32-8.25-9.06-12.34-13.63-2.19-2.45-4.34-4.93-6.83-7.76-6.37,6.13-12.9,11.7-18.58,18.03-7.1,7.92-14.42,15.51-22.67,22.25-5.45,4.45-10.54,9.34-16.18,14.39h3.84c.2,2.33,.4,4.55,.62,7.07,1.07-.27,1.54-.44,2.02-.5,1.31-.15,2.62-.25,3.93-.38-.24,1.25-.49,2.5-.72,3.76-.07,.39-.09,.78-.13,1.18l.1-.11c-7.62-4.86-15.86-8.97-22.71-14.75-11.58-9.77-22.26-20.6-33.44-31.09-4.44,3.61,0,5.73,.31,8.85-.81-.8-1.49-1.91-2.46-2.33-1.14-.49-2.53-.39-3.82-.54,.05,1.24-.42,2.96,.22,3.64,8.01,8.54,16.19,16.93,24.31,25.37,2.15,2.23,4.24,4.52,7.1,7.58,.99-3.14,1.63-5.17,2.5-7.94,1.45,.31,3.19,.67,5.87,1.24-1.48,1.77-2.16,3.06-3.22,3.77-4.06,2.69-4.29,3.75-.31,6.41,12.54,8.38,25.11,16.72,37.81,24.84,18.58,11.87,39.11,19.51,59.73,26.87,2.9,1.04,5.96,1.65,8.94,2.46-.05,.43-.09,.85-.14,1.28-1.13,.06-2.37,.45-3.37,.13-22.05-7.04-43.64-15.19-63.48-27.35-4.11-2.52-7.92-5.72-12.31-7.54-7.46-3.09-12.75-9.02-19.25-13.31-4.1-2.7-8.4-5.09-12.52-7.76-1.28-.83-2.29-2.1-3.38-3.21-10.02-10.14-20.08-20.25-30-30.48-2.05-2.12-4.1-2.4-6.31-.91-2.1,1.41-4.84,2.73-3.33,6.27-4.95,.42-8.58,3.35-10.98,7.18-1.38,2.2-3.06,3.24-5,4.47m557.72-226.23c-.26,1.29-.51,2.59-.77,3.88,.27,.36,.53,.71,.8,1.07,.01,.56,.03,1.11,.04,1.67,.13,.59,.26,1.18,.38,1.77-.04,.7-.41,1.76-.08,2.06,2.43,2.19,1.57,3.73-1.38,5.01l.86,.77c1.38-.57,2.77-1.14,4.53-1.87,.16,.11,.91,.67,.83,.61,4.36-4.56,8.19-9.11,12.61-12.99,2.95-2.6,3.32-2.17,3.66-6.43-3.05,1.44-5.68,2.68-8.31,3.93-.09-.17-.18-.35-.27-.52,1.85-1.4,3.7-2.8,5.54-4.19-1.76,.09-3.14,.94-4.63,1.39-1.02,.31-2.22,.07-3.33,.07,.11-.64,.23-1.28,.3-1.66-.94-.23-1.97-.28-2.8-.72-2.82-1.51-3.74-.96-3.84,2.46-1.15,.51-2.31,1.03-3.46,1.54-.23,.72-.46,1.43-.68,2.15Zm42.03-.05c.17-.65,.34-1.3,.52-1.95l.13-.08h3.34c-.66-.62-1.21-1.13-1.76-1.64-1.03-1.74-1.65-4.09-3.17-5.11-3.2-2.16-6.81-3.73-10.35-5.33-1.71-.77-3.65-1.04-5.49-1.53,6.16,2.3,11.35,5.93,16,10.4l-1.6,.02c-2.13-.55-4.25-1.11-6.38-1.66-1.03,.14-2.06,.28-3.09,.42,1.39,.67,2.77,1.35,4.16,2.02,.46,.16,.93,.33,1.39,.49,1.11,.89,2.23,1.79,3.34,2.68-1.8-.5-3.6-.99-5.73-1.58,.56,.82,.93,1.37,1.5,2.2-1.4-.54-2.42-1.15-3.51-1.28-.94-.11-2.76,.27-2.78,.52-.08,1.26-.11,2.97,.63,3.73,1,1.03,2.74,1.35,4.17,1.97,1.67,3.54,3.25,7.13,5.07,10.59,.32,.61,1.59,.95,2.44,1.01,2.14,.14,4.29,.05,7,.05-.65-2.9-1.19-5.32-1.74-7.74,.12-.25,.25-.5,.37-.75,.73,1.53,1.31,3.16,2.25,4.55,.91,1.36,2.2,2.46,3.32,3.68,.45-.38,.9-.76,1.36-1.14-1.83-2.91-3.66-5.82-5.5-8.73-.22-.53-.43-1.05-.65-1.58-.94-.28-1.88-.55-2.82-.83l.13,.14c-.81-1.09-1.62-2.18-2.44-3.26,0,0-.12-.27-.12-.27Zm11.17,23.52c-1.3-.54-2.6-1.07-3.91-1.61h-4.75v5.42c-.33-.98-.48-2.07-1.02-2.91-.98-1.51-2.19-2.86-3.24-4.19,.41-.07,1.09-.17,1.1-.17-.77-.76-1.69-1.68-2.54-2.52-2.37,3.28-5.09,7.06-7.83,10.85,5.08,1.41,1.1,3.52,.32,5.41,4.43,.77,3.47,2.92,1.39,5.37-1.19,1.47-2.38,2.93-4.31,5.31,1.93-.51,2.64-.69,3.34-.88,.71-.11,1.45-.15,2.14-.35,2.24-.64,4.47-1.33,6.7-2,1.56-.79,3.13-1.58,4.69-2.38,2.89-4.15,5.85-8.25,8.58-12.5,.37-.57-.42-1.88-.67-2.85Zm-47.82,3.67c-1.23-.29-2.46-.59-4.13-.98-.43,.35-1.38,1.11-1.88,1.52,1.06,2.2,2.01,4.16,2.96,6.13,.32,.46,.64,.92,.95,1.38,.5,.56,1.01,1.12,1.51,1.68,0,.44-.02,.89-.02,1.33,2.14,1.39,4.28,2.79,6.42,4.18,3.97,2.15,8.04,3.63,12.4,2.38-2.8-2.74-5.51-5.4-8.23-8.05,.21-.46,.43-.93,.64-1.39,2.61,.76,5.23,1.51,7.58,2.19v-5.21c-1.25,.57-2.05,.93-2.86,1.29-2.01-1.59-4.02-3.18-6.02-4.77,.18-.33,.6-.83,.5-.98-2.12-3.23-4.13-6.55-6.58-9.52-.66-.81-2.73-.87-4.02-.61-.95,.2-1.68,1.48-2.67,2.43,1.28,2.13,2.79,4.63,4.31,7.14-.29-.05-.58-.1-.86-.15Zm-324.4,187.63c.51,.84,1.06,1.66,1.51,2.53,2.86,5.51,5.7,11.02,8.54,16.54,.53-.28,1.07-.56,1.6-.84-3.83-7.17-7.66-14.34-11.88-22.23,.15,1.86,.24,2.98,.32,4.09-2.72,4.4-5.49,8.77-8.1,13.22-.35,.6,.04,1.63,.08,2.46,.32,.09,.65,.19,.97,.28,2.32-5.35,4.64-10.71,6.95-16.06Zm-215.64-205.4c-6.08-2.31-12.15-4.63-18.23-6.94,5.59,3.61,10.52,9,18.25,6.92-1.16,.91-2.21,2.05-3.5,2.69-1.62,.8-3.44,1.18-5.17,1.74,.11,.3,.23,.6,.34,.91,2.44-.82,4.9-1.56,7.3-2.46,6.23-2.34,12.53-5.69,17.67,1.94,.1,.15,.64,.02,.91,.02-1.68-2.71-3.31-5.32-4.94-7.94,3.07-.76,6.15-1.53,9.65-2.4-3.95-3.27-8.38,2.81-11.47-1.87-.17,.31-.27,.68-.52,.91-4.5,4.22-8.93,2.45-13.35-.16-1.36-.8-2.7-1.65-4.12-2.33-.94-.45-2-.64-3.01-.95,1.26,1.84,2.83,2.96,4.31,4.18,4.83,3.97,10.17,4.34,15.69,1.14,1.72-1,3.39-1.53,2.97,1.63-1.33,.43-2.64,.98-4.01,1.27-2.9,.63-5.84,1.14-8.77,1.71Zm154.72-2.07c-5.36,2.68-10.61,5.47-16.86,2.21-2.03-1.06-4.57-1.14-6.87-1.67,5.99,6.11,17.09,6.5,23.47,1.48,.39-.31,.2-1.37,.28-2.05,1.26,.41,2.53,1.17,3.79,1.16,3.01-.04,6.02-.44,9.03-.69,0-.15,0-.3,0-.45h-12.84Zm280.02,4.6c3.87,3.76,8.89,4.69,13.82,5.81-3.78-1.96-7.56-3.91-11.34-5.87,1.45,.23,2.91,.46,5.13,.81-2.36-1.88-4.14-3.31-5.87-4.68,3.18-1.61,6.23-3.14,9.27-4.68-.18-.35-.35-.7-.53-1.06-5.18,2.37-10.37,4.75-15.55,7.12,.1,.51,.2,1.01,.3,1.52,1.59,.34,3.17,.68,4.76,1.02Zm-48.7-17.17c1.28-.61,2.58-1.17,3.83-1.82,5.19-2.71,10.36-5.45,15.54-8.17-.21-.39-.41-.78-.62-1.17-7.71,3.69-15.42,7.39-23.16,11.1h4.51c3.41,1.02,6.9,2.22,10.32,.35,6.31-3.45,12.52-7.07,19.21-10.87-4.81-1.09-8.79,.22-11.11,3.1-4.95,6.15-11.56,6.98-18.52,7.48Zm-130.96-88.88c1.66,2.68,3.06,5.59,5.13,7.91,.72,.81,3.3,.65,4.61,.04,.89-.41,1.64-2.48,1.44-3.64-.89-5.36-7.35-7.64-11.32-4.17,.85-2.26,.43-3.83-1.86-5.21-11.42-6.86-22.74-13.88-34.11-20.83-.65-.4-1.42-.59-2.13-.88l-.7,1.04c4.52,3.76,8.82,7.83,13.6,11.21,7.21,5.11,14.73,9.78,22.21,14.51,.75,.47,2.07,.04,3.14,.02Zm121.52,66.83c-3.12-.42-6.3-.62-9.36-1.31-9.24-2.07-18.42-4.39-27.66-6.46-2.34-.52-4.82-.45-7.23-.65,11.36,3.5,22.76,6.49,34.27,8.93,3.15,.67,6.66-.31,10-.53,.8,.63,1.59,1.27,2.17,1.72-2.49,.68-5.12,1.48-7.8,2.1-1.51,.35-3.18,.84-4.61,.51-12.16-2.82-24.28-5.83-36.43-8.72-.73-.17-1.59,.17-2.38,.28,.03,.26,.06,.53,.09,.79,11.91,3.05,23.82,6.1,36.01,9.23-1.62,2.66-3.57,3.49-6.35,2.47-1.17-.43-2.44-.82-3.66-.84-2.76-.04-5.29-.09-8.19,1.23-2.62,1.19-6.56-.52-9.77-.93,1.57,2.56,3.74,4.97,8.03,3.73,1.39-.4,2.85-.59,4.29-.75,4.61-.52,9.34-.52,13.82-1.6,5.98-1.43,11.77-3.65,17.61-5.6,2.83-.94,5.61-2.04,8.42-3.07l-.23-.53c-3.66,0-7.33,0-11,0Zm-24.55,98.28c.57,2.42,.82,4.99,1.79,7.24,1.56,3.62,3.6,7.03,5.43,10.53,4.89,9.29,9.77,18.58,15.15,28.8,3.69-3.38,6.93-6.18,9.97-9.19,4.02-3.97,4.2-4.28,.41-8.41-8.81-9.6-17.83-19.02-26.94-28.33-.89-.91-2.99-.63-4.53-.9,.4-1.22,1.51-3,1.07-3.56-1.98-2.53-4.41-4.71-6.67-7.02-.43,.35-.85,.7-1.28,1.05,2.1,3.15,1.31,7.74,5.59,9.8Zm-103.14-96.15c-4.21,3.77-8.69,7.29-12.55,11.39-4.23,4.48-7.94,9.45-11.73,14.33-.65,.83-.55,2.25-1.06,4.57,6.34-3.42,11.27-6.52,15.16-11.11,4.18-4.93,8.17-10.04,12.6-14.74,10.25-10.85,20.76-21.45,31.07-32.24,7.3-7.65,14.49-15.41,21.64-23.2,1.17-1.27,1.89-2.96,2.82-4.45-.44-.33-.87-.66-1.31-.99-12.06,10.49-24.13,20.98-36.19,31.47,.08,.13,.15,.27,.23,.4,.45-.88,.91-1.76,1.36-2.64,.28,.35,.56,.7,.84,1.06-5.62,4.97-11.61,9.6-16.72,15.05-2.85,3.04-4.24,7.46-6.28,11.25l.12-.13Zm10.38,68.35c-3.19-1.99-6.39-3.97-9.58-5.96,.22-.67,.43-1.35,.65-2.02,8.68,0,17.37,.06,26.05-.03,3.13-.04,5.86-1.08,7.24-4.74-5.86-2.82-11.54-5.56-17.22-8.3,.11-.41,.22-.82,.33-1.23,1.41,.18,2.91,.12,4.23,.57,3.74,1.3,7.34,3.03,11.12,4.15,1.83,.54,3.94,.09,5.93,.09-.05-.3-.11-.61-.16-.91-7.48-3.05-14.95-6.09-22.43-9.14-.09,.18-.19,.36-.28,.54,1.79,1.29,3.58,2.58,5.29,3.81-4.58,.57-7.63-2.66-10.67-5.92-.3,.48-.61,.97-.91,1.45,2.07,1.66,4.14,3.32,6.21,4.98,.19,1.38,.73,3.01,1.84,3.65,3.82,2.23,7.84,4.12,12.41,6.47-1.34,.59-2.2,1.29-3.08,1.31-8.71,.26-17.43,.68-26.12,.43-2.64-.07-5.5-1.67-7.8-3.24-5.75-3.93-11.24-8.26-16.86-12.39-.46-.34-1.13-.4-1.7-.59-.28,.22-.55,.44-.83,.66,.69,1.2,1.18,2.57,2.1,3.56,5.4,5.81,10.99,11.44,16.3,17.33,1.19,1.32,2.09,3.38,2.17,5.14,.33,7.39,.34,14.8,.37,22.21,0,1.99-.34,3.97-.6,6.8-3.78-4.36-6.91-7.91-9.97-11.51-3-3.53-5.94-7.11-8.9-10.66-.36,.32-.72,.65-1.08,.97,3.92,10.92,13.2,17.3,20.86,25.05,.41-.14,.83-.28,1.24-.42v-34.3c.44-.21,.87-.42,1.31-.62,18.7,19.71,39.64,36.83,60.79,53.87-.52-1.82-1.16-3.59-2.34-4.86-5.72-6.2-11.33-12.54-17.46-18.31-7.2-6.77-15.03-12.87-22.31-19.56-2.33-2.14-3.76-5.25-5.6-7.91,4.08,3.88,8.16,7.75,12.24,11.63,2.48,2.36,4.93,4.76,7.47,7.06,2.52,2.29,5.12,4.47,7.69,6.7,.31-.34,.62-.68,.93-1.03-9.07-8.53-18.14-17.08-27.27-25.55-.15-.14-1.04,.5-1.59,.78Zm6.06,60.16c1.35,.3,2.88,1.16,4.01,.8,4.64-1.49,9.12-3.49,13.74-5.02,1.42-.47,3.43-.66,4.64,0,13.89,7.63,27.67,15.45,41.49,23.2,6.55,3.67,13.02,7.51,19.75,10.82,6.7,3.3,12.64,7.39,17.98,12.65,9.32,9.17,19.02,17.95,28.58,26.87,1.12,1.05,2.4,1.93,3.6,2.89-11.34-15.29-24.84-28.26-38.99-40.59-.67-.58-2.03-.36-2.56-.44-.34-1.29-.33-2.79-1.05-3.71-8.63-10.99-17.23-21.99-26.13-32.76-4.15-5.03-8.88-9.59-16.56-12.12,1.29,6.18,2.4,11.46,3.61,17.22,.88-.84,1.36-1.31,1.99-1.9,10.8,9.66,21.56,19.3,32.33,28.94l-.88,1.2c-1.28-.74-2.71-1.31-3.81-2.26-6.57-5.69-13.16-11.36-19.55-17.25-4.85-4.47-10.3-7.86-16.69-9.32-15.03-3.44-29-9.67-43.05-15.76-2.7-1.17-5.48-2.17-8.63-3.41,1.01,5.34,4.45,6.56,8.29,7.58,4.54,1.2,8.99,2.77,13.48,4.19-.11,.43-.21,.85-.32,1.28-2.95,.57-6,.82-8.81,1.79-2.64,.92-6.24,1.15-6.36,5.29-3.5-1.79-5.7-.63-8.52,2.42-3.27,3.54-7.36,6.32-11.31,9.6-1.93-3.69-3.3-6.31-4.67-8.92-.19,.09-.38,.19-.58,.28,1.19,2.69,2.38,5.39,3.65,8.27-1.12,.63-2.1,1.18-3.13,1.76-.98-1.23-1.8-2.28-2.63-3.32-.16,.08-.31,.16-.47,.24,.33,1.2,.66,2.39,.84,3.02-7.33,5.05-14.34,9.89-21.36,14.73,.21,.32,.42,.64,.63,.96,4.14-1.93,8.47-3.52,12.35-5.87,3.81-2.3,8.29-2.71,12.03-5.08,4.53-2.87,9.22-5.5,13.88-8.16,.55-.32,1.42-.35,2.06-.2,5.9,1.37,9.17-1.76,7.88-7.64-.17-.77-.53-1.49-.79-2.24Zm-69.61-31.61c-1.11-2.41-3.16-4.82-3.16-7.22,.01-7.11,1.04-14.21,1.25-21.33,.09-3.03,1.14-5,3.17-7.15,5.43-5.74,10.52-11.81,15.7-17.79,.33-.38,.29-1.08,.36-1.4-5.01,2.76-9.94,5.47-14.84,8.2-.45,.25-.82,.68-1.15,1.08-4.51,5.6-10.3,7.62-17.48,7.27-7.99-.39-16.01,.03-24.52-2.76,5.03-2.35,9.4-4.39,14.51-6.78-1.62-.58-2.27-.81-3.46-1.24,4.27-2.34,8.15-4.47,12.03-6.6-.25-.51-.51-1.02-.76-1.53-2.38,1.11-4.98,1.91-7.1,3.39-5.26,3.68-10.21,7.79-15.44,11.51-3.55,2.53-6.86,7-7.76,11.49,1.56-2.21,2.88-4.34,4.48-6.24,.64-.75,2.1-1.62,2.82-1.37,9.62,3.3,19.5,3.15,29.44,2.56,.82-.05,1.66,.24,3.8,.58-13.28,7.54-23.38,16.93-32.62,27.45-9.2,10.48-21.19,18.46-27.85,31.27,18.59-17.86,41.29-30.88,58.87-49.87-.23-.26-.46-.52-.69-.79-8.95,7.8-17.89,15.61-26.84,23.41-.39-.45-.78-.89-1.17-1.34,7.01-6.06,14-12.15,21.05-18.16,2.68-2.29,6.01-4.03,8.12-6.74,2.06-2.65,3.54-3,5.98-1.14-.46,2.91-.82,5.65-1.35,8.37-2.3,11.74-.88,22.65,5.4,33.18,4.1,6.87,6.72,14.61,10.15,21.88,1.46,3.09,3.31,6.01,5,8.99,2.17,3.82,4.37,7.62,6.29,10.96,.38-1.02,.95-2.91,1.79-4.68,6.33-13.36,12.75-26.68,19.05-40.06,2.15-4.55,1.19-6.48-3.78-8.52,2.08,4.73-4.18,21.57-10.71,27.62,2.11-5.91,4.12-11.93,7.14-17.39,3.9-7.05,.15-11.91-3.68-17.71v17.03c-.56-.47-1.56-.91-1.61-1.43-.32-3.33-.39-6.69-.61-10.03-.21-3.14-.51-6.27-.78-9.4-.82,5.72-1.17,11.33-.74,16.89,.6,7.68-.57,14.77-5.17,21.21-.08-4.3-.06-8.59,.42-12.84,.66-5.83,1.87-11.61,2.42-17.45,.24-2.57-.56-5.23-.88-7.85-.42,.04-.85,.08-1.27,.12,0,5,.78,10.16-.22,14.94-1,4.82-3.77,9.28-5.77,13.89-.3-.02-.6-.04-.89-.06,.93-10.63,1.86-21.25,2.79-31.88-.42-.04-.83-.09-1.25-.13-.12,.34-.3,.67-.36,1.02-1.44,9.37-2.96,18.72-4.19,28.12-.16,1.21,1.01,2.74,1.87,3.9,1.28,1.73,2.82,3.25,4.25,4.87-.25,.21-.5,.42-.75,.63-1.54-1.4-2.87-3.34-4.68-4.09-2.9-1.19-3.34-3.12-2.92-5.67,1.45-8.8,2.96-17.59,4.44-26.38-5.43,7.46-3.08,17.3-8.32,24.88,.97-5.85,1.94-11.7,2.91-17.56-4.06,4.88-10.37,9.05-4.35,16.88-.56,.04-1.12,.07-1.68,.11-1.61-3.75-3.22-7.5-4.83-11.25,.74,.04,1.9,.4,2.16,.07,4.92-6.49,9.79-13.02,14.53-19.65,.74-1.03,.79-2.56,1.16-3.86-1.38-.1-1.91,.07-2.2,.44-4.95,6.32-9.94,12.61-14.74,19.04-.74,1-.56,2.69-.8,4.07Zm-83.64-26.78c.74-1.35,1.49-2.69,2.23-4.04-8.77-11.28-17.53-22.55-26.29-33.81-.38,.26-.76,.52-1.14,.79,.69,1.67,1.18,3.47,2.12,4.97,2.53,4.02,5.14,8,7.95,11.83,4.98,6.79,10.13,13.45,15.22,20.17,1.55,2.7,3.1,5.39,4.64,8.09,2.93,5.13,7.4,9.98,8.39,15.47,1.36,7.51-2.51,14.05-8.96,18.92-4.82,3.64-9.47,7.69-13.5,12.18-9.44,10.51-18.51,21.36-27.59,32.18-1.07,1.27-1.27,3.27-1.55,4.05-1.59,.6-3.05,.74-3.86,1.53-10.59,10.47-21.13,21-31.59,31.6-1.94,1.97-3.49,4.33-5.22,6.52,.22,.17,.44,.33,.66,.5,11.63-9.88,23.26-19.76,34.29-29.14-1.59,.79-4.05,2.02-6.51,3.25,3.23-3.58,6.62-7.02,10.61-9.5,6.46-4.01,13.34-7.37,20.01-11.05,19.17-10.57,38.33-21.17,57.52-31.71,.86-.47,2.21-1.04,2.9-.7,3.28,1.62,6.44,3.51,9.6,5.38,2.97,1.75,6.19,3.04,7.07,7.21,.28,1.31,3.05,2.32,4.84,3.03,1.77,.71,3.94,.52,5.63,1.35,11.6,5.69,23.11,11.54,34.67,17.32,.23,.12,.62-.08,2.13-.32-3.1-2.87-5.23-5.74-8.08-7.31-8.99-4.95-18.24-9.43-27.41-14.02-.74-.37-1.72-.26-2.52-.37q-2.12-6.01-8.33-6.29c-.5-.02-1.05-.19-1.49-.44-4.04-2.32-8.05-4.67-12.07-7.02-.1-.39-.2-.79-.31-1.18,4.81-1.65,9.62-3.3,14.82-5.09,.19,4.22,.33,7.42,.47,10.62h1.42c.19-1.35,.67-2.73,.52-4.04-1.06-8.97,1.02-13.22,8.82-17.36,1.98-1.05,4.09-1.88,6.08-2.92,.63-.33,1.05-1.05,1.56-1.6-5.31,1.76-10.29,3.87-14.74,6.78-17.15,11.22-36.05,17.98-55.84,22.58-1.21,.28-2.6-.26-4.14-.45-.06,1.18-.12,2.17-.14,2.55-13.6,6.47-21.58,19.5-34.14,26.52,1.94-2.15,4.07-4.06,6.17-6.01,6.29-5.84,12.45-11.82,18.9-17.48,5.26-4.62,10.84-8.88,14.2-15.26,.41-.79,1.09-1.44,2.14-2.8-.65,3.22-1.11,5.48-1.67,8.24,1.61-.2,2.65-.33,2.99-.38-.62-1.3-1.73-2.49-1.53-3.37,2.7-11.87,6.55-23.37,11.91-34.31,1.56-3.19,3.83-6.04,5.37-9.23,.64-1.32,.22-3.15,.29-4.74-1.42,.17-3.06-.05-4.22,.59-2.73,1.49-5.23,3.39-7.77,5.1-1.03-.84-1.86-1.51-2.68-2.18-.22,.14-.44,.28-.66,.43,.7,1.78,1.39,3.56,2.09,5.36,1.66-.97,3.04-1.77,4.42-2.58,.17,.23,.35,.46,.52,.69-1.14,1.26-2.29,2.53-3.41,3.77,2.43,2.44,2.32,5.46-.3,7.76-.12-.73-.1-1.42-.35-1.98-1.77-4.02-.95-9.42-6.23-11.66-.25-.11-.11-2.65,.52-3.08,3.68-2.52,2.04-4.89,.05-7.26-2.33-2.78-4.22-.55-6.11,.71-1.2,.8-2.27,1.77-3.39,2.65Zm57.42-132.02c-.77-.48-1.53-.96-1.7-1.06-4.61,1.98-8.77,3.85-13,5.5-.59,.23-1.67-.43-2.38-.9-7.37-4.86-14.66-9.86-22.09-14.63-12.45-7.99-25-15.82-37.47-23.78-4.06-2.59-8-5.36-12.03-8.08-.94,1.19-2.18,2.77-3.92,4.97,15.67,17.43,25.43,39.99,45.87,53.79-1.92-6.43-4.13-12.7-6.5-18.91-.4-1.05-1.42-1.9-2.27-2.72-9.01-8.74-18.13-17.37-27.01-26.24-2.55-2.55-4.4-5.79-6.57-8.71,.34-.25,.69-.5,1.03-.75,1.91,2.39,3.58,5.03,5.78,7.11,9.1,8.64,18.33,17.14,27.58,25.63,.87,.8,2.15,1.22,3.31,1.62,4.04,1.37,8.1,2.65,12.16,3.97l-.2,.98h-5.74c1.92,1.44,3.91,2.02,5.86,2.74,6.79,2.49,13.87,4.43,20.27,7.68,10.83,5.51,21.17,11.97,31.81,17.84,8.88,4.9,8.7,4.77,8.06,14.87-.43,6.76-.52,13.64,2.87,19.91-.26-4.56-1.12-9.09-1.15-13.62-.03-4.56,.75-9.13,1.17-13.7,.4,0,.79,.01,1.19,.02,6.25,7.91,12.49,15.82,18.74,23.73,.38-.21,.76-.43,1.14-.64-.66-1.58-1.04-3.36-2.02-4.7-4.75-6.51-9.7-12.87-14.49-19.35-.61-.82-1.27-2.3-.94-3.01,3.39-7.09,6.98-14.07,10.51-21.09,.4,.19,.8,.38,1.21,.57-.94,1.94-1.64,4.07-2.89,5.79-2.3,3.16-2.43,6.15-.53,9.53,2.4,4.25,4.6,8.61,6.81,12.97,1.41,2.79,2.67,5.66,3.99,8.5-1.01-7.61-2.45-14.99-4.09-22.33-.8-3.56-1.98-7.03-2.98-10.54,.45-.13,.9-.26,1.35-.39,2.04,5.53,4.07,11.06,6.11,16.59-2.41-6.4,3.24-10.46,5.25-15.91,.39,4.46,.77,8.92,1.16,13.38,1.16-1.87,1.57-3.93,2.46-5.76,.84-1.75,2.18-3.25,3.31-4.87-1.83,9.74-7.15,18.69-5,29,1.24-4.52,1.65-9.25,3.03-13.67,1.35-4.35,3.69-8.39,5.79-12.99q6.69,10.38,9.49,9.29c-8.08-16.34-16.13-32.61-24.18-48.89l-.57,.22c.47,2.28,.94,4.55,1.41,6.83-.16,.06-.33,.11-.49,.17-.83-1.75-1.66-3.51-2.39-5.05-7.76,16.75-15.44,33.34-22.67,48.95-3.08-1.8-6.58-3.94-10.17-5.92-8.89-4.9-18.02-9.39-25.97-16.66,3.65-1.45,6.85-3.17,10.27-3.93,2.45-.55,2.67-1.56,2.28-3.47,2.92,2.61,5.31,1.81,6.96-1.36,3.21-6.16,9.51-8.26,14.8-11.75,7.52-4.97,14.93-10.11,22.32-15.28,.7-.49,.94-1.66,1.39-2.52-2.64,.9-4.61,2.22-6.64,3.42-9.05,5.34-18.13,10.65-27.2,15.97-1.75,1.03-3.42,2.64-5.29,2.95-5.74,.93-7.59,3.25-6.21,8.71Zm-108.38,308.97c.69-.62,1.41-1.2,2.06-1.86,8.43-8.53,20.14-13.13,27.06-23.7,3.24-4.95,8.82-8.38,13.36-12.47,3.01-2.72,6.05-5.4,8.91-7.95-3.26-3.67-5.71-6.57-8.31-9.34-2.88-3.07-5.8-6.12-8.92-8.95-.7-.63-2.45-.77-3.39-.37-20.9,8.83-41.83,17.61-62.58,26.78-5.58,2.46-10.6,6.18-15.88,9.32,5.2,8.28,14.5,12.45,23.32,11.06,2.6-.41,5.33-.06,7.45-.06,1.6-.36,2.59-.82,3.52-.72,.88,.1,1.71,1.2,2.52,1.15,5.78-.36,11.55-.86,17.31-1.41,4.15-.39,8.29-.92,12.43-1.38l.1,1.19c-17.82,3.62-35.99,3.39-54.31,4.35,6.17,6.06,12.53,11.54,18.94,16.95,5.36,4.52,5.98,4.51,11.58,.63,1.51-1.05,3.07-2.03,4.61-3.05-1.88,2.06-3.77,4.13-5.65,6.19,.12,.16,.25,.33,.37,.49,3.13-2.6,6.26-5.21,9.38-7.81-.14-.17-.28-.34-.42-.51-1.15,.5-2.31,1-3.46,1.5Zm-37.42-168.54c1.51,1.28,2.53,2.51,3.84,3.17,3.32,1.65,6.75,3.1,10.17,4.53,8.42,3.52,16.86,6.93,26.15,2.88,.41-.18,1.15,.46,1.75,.64,6.17,1.88,15.41-1.06,19.87-6.7-38.64-13.56-76.67-28.24-116.72-39.83,.66,1.58,.78,2.1,1.06,2.51,4.91,7.2,9.86,14.39,14.75,21.61,.46,.67,.57,1.58,.83,2.4-5.71-7.75-11.62-15.36-17.05-23.3-3.84-5.61-15.28-9.87-21.74-7.42-.43,.16-.73,.65-1.47,1.33,1.43,1.22,2.62,2.39,3.96,3.34,1.83,1.28,3.93,2.2,5.64,3.6,5.8,4.78,11.27,9.99,17.28,14.48,4.15,3.1,8.98,5.28,13.5,7.87,.35,.67,.55,1.53,1.09,1.98,5.87,4.91,11.86,9.68,17.67,14.66,2.75,2.35,5.61,3.67,9.3,3.25,1.21-.14,2.51,.5,3.76,.78-.05,.36-.11,.73-.16,1.09h-9.05c6.97,6.76,12.64,13.59,19.61,18.63,7.04,5.09,10.16,13.87,18.11,17.23,12.08-10.45,21.53-23.51,31.07-36.15-4.43,.62-9.24,1.54-14.1,1.91-8.63,.66-17.3,.86-25.93,1.51-2.21,.17-4.35,1.31-6.48,1.99-.57-4.12-.57-4.11,3.32-3.02,.49,.14,1.06,.1,1.58,.02,3.67-.54,7.33-1.11,10.99-1.67,.04-.38,.09-.76,.13-1.14-4.68-1.35-9.36-2.71-14.62-4.23m425.03-25.62c-2.8,3.57-5.6,7.15-8.4,10.72,10.59-4.74,38.56-27.38,41.46-32.64-5.28-1.23-9.97,.78-14.6,2.3-2.05,.68-3.96,2.38-5.44,4.05-4.51,5.12-8.78,10.46-13.14,15.71,2.56-3.62,5.13-7.23,7.68-10.86,1.66-2.36,3.3-4.74,4.95-7.11-.34-.51-.69-1.02-1.03-1.53-39.66,13.76-79.32,27.52-119.18,41.34,5.1,6.66,12.52,6.69,19.17,9.02-3.66-.43-7.33-.86-10.99-1.29l-.84,1.63c6.23,6.76,12.38,13.59,18.71,20.25,4.96,5.22,10.15,10.23,15.39,15.49,11.37-11.42,23.33-23.45,35.49-35.67-2.31-.15-4.31-.27-6.31-.4-.04-.51-.07-1.02-.11-1.54,1.55-.14,3.27-.78,4.62-.32,2.87,.97,4.73-.1,6.71-1.95,4.73-4.41,9.6-8.67,14.38-13.02,.62-.56,1.24-1.27,1.51-2.03,1.89-5.25,4.7-9.7,9.98-12.15Zm-184.48,185.89c1.02-.13,2.45,.12,3-.46,5.8-6.14,11.46-12.42,17.16-18.66,4.26-4.67,8.52-9.33,12.75-14.03,2.96-3.3,5.86-6.65,8.78-9.98l-1.59-.27c-.33-1.36-.66-2.73-.99-4.09,.36-.08,.71-.16,1.07-.24,.69,.95,1.39,1.91,2.4,3.3,.48-4.12-18.44-22.23-25.66-25.11-.75,2.7-1.49,5.35-2.22,8-.2-.03-.39-.06-.59-.09-.13-.94-.27-1.88-.44-3.08-1.03,.87-1.77,1.49-2.51,2.11,.09-1.61,.48-3.07,1.39-4.06,2.29-2.53,1.76-4.68,.19-7.44-3.47-6.11-9.57-8.82-15.06-12.94-1.63,4.77-3.13,9.17-4.63,13.56-.48,.12-.96,.24-1.44,.35-6.1-8.67-12.2-17.35-18.3-26.02,2.18,8.64,12.55,23.09,19.39,27.69-1.48,3.08-3.12,6.19-4.48,9.42-3.79,9.01-7.58,18.02-11.16,27.11-8.61,21.87-17.66,43.6-25.38,65.78-3.28,9.43-3.69,19.86-5.33,29.85-.17,1.07-.7,3.1,1.8,1.88,.72,.15,1.68,.67,2.12,.38,3.29-2.15,6.48-4.46,9.7-6.71,.19,.12,.39,.23,.58,.35-2.39,3.09-4.78,6.19-7.59,9.83,4.95-.4,9.49-.19,12.77-3.9,.94,1.53,1.9,3.09,2.98,4.86-.39,.24-.99,.88-1.65,.97-4.61,.58-9.26,.9-13.86,1.59-6.24,.95-6.37,1.29-4.52,7.3-4.02,2.01-3.4,5.18-2.27,8.64,3.52-.48,6.77-.95,10.02-1.36,14.76-1.84,29.6-3.19,44.26-5.67,10.19-1.72,20.32-4.4,30.14-7.66,18.08-6,35.09-14.32,51.59-24,24.05-14.1,45.32-31.4,64.29-51.65,3.61-3.85,6.35-8.51,8.91-11.99-2.66-2.65-4.67-4.66-7.01-7-14.01,14.93-28.61,29.67-46.65,40.82,1.78-5.35-.96-8.83-4.03-12.06-3.72-3.93-7.55-7.76-11.5-11.46-6.05-5.68-12.3-11.16-18.37-16.83-7.28-6.8-14.46-13.7-21.57-20.46-2.57,2.69-4.69,4.85-6.74,7.09-5.24,5.74-10.44,11.53-15.68,17.28-5.42,5.95-10.99,11.76-16.24,17.86-3.78,4.39-7.42,8.95-10.61,13.78-5.14,7.8-9.73,15.95-14.78,23.8-2.59,4.02-5.68,7.72-8.55,11.56-.19-.15-.38-.29-.58-.44,6.86-10.96,13.71-21.92,20.57-32.89-.47-.36-.94-.73-1.4-1.09-13.34,15.28-26.67,30.58-40.07,45.8-1.21,1.37-2.93,2.28-4.42,3.43,3.66-5.38,6.79-11.22,11.08-16.04,11.89-13.4,24.31-26.34,36.39-39.58,1.87-2.05,3.04-4.73,4.53-7.12h0ZM196.8,458.76c-10.71-8.36-21.62-16.47-32.45-24.67-.88-.66-1.9-1.14-2.85-1.7-.38,.19-.77,.39-1.15,.58,.61,2.84,1.27,5.66,1.8,8.51,.21,1.1,.23,2.27,.09,3.38-.03,.25-1.55,.64-1.64,.49-.66-1.03-1.42-2.13-1.6-3.3-.73-4.89-1.27-9.82-1.91-15.06-1.86,.45-2.92,.71-3.98,.97,.34,.25,.67,.5,1.01,.75-.93,1.88-1.85,3.76-2.78,5.64-.85-2.13-1.69-4.26-2.88-7.24-.74-.17-1.58-.24-2.31,.07m0,0c-.89,.38-1.6,1.32-1.7,3.34-.13,2.63-.44,5.28-.27,7.9,1.49,22.84,5.25,45.32,11.99,67.21,5.43,17.65,12.07,34.8,20.52,51.33,8.19,16.03,18.69,30.36,29.52,44.54,2.82,3.7,5.98,7.13,8.31,9.89,3.75-2.14,6.68-3.81,10.28-5.87-13.54-13.46-22.51-30.3-31.08-47.61,2.52,.01,5.75-1.2,4.6,3.62-.12,.5,.28,1.22,.61,1.72,3.4,5.21,6.83,10.4,10.26,15.62,5.65-5.95,6.16-13.72,5.61-21.82,.74,5.95,4.05,11.89-.62,17.85,1.21,.19,1.97,.31,2.73,.43l-.1-.12c-1.07,4.19-2.15,8.37-3.07,11.95,1.36,1.23,2.38,1.91,3.09,2.83,3.21,4.19,6.21,8.54,9.58,12.59,.68,.82,3.15,1.3,3.9,.74,2.99-2.25,6.33-4.51,8.26-7.58,8.23-13.08,16.05-26.42,23.91-39.72,4.03-6.82,7.81-13.8,11.79-20.66,1.19-2.05,.94-3.65-.69-5.3-3.22-3.28-6.35-6.65-9.61-10.08-3.76,3.09-7.11,5.62-10.18,8.46-2.54,2.34-5.49,4.72-4.12,9.08-.8-1.13-1.61-2.26-2.52-3.54,4.72-5.09,9.35-10.09,14.04-15.15-.69-.89-1.03-1.45-1.49-1.89-7.02-6.91-14.31-13.56-21.02-20.75m192.57,201.47c.49-.16,.97-.32,1.46-.48-.6-5.13-.97-10.29-1.83-15.37-3.88-22.99-13.71-44.11-21.17-65.96-4.51-13.21-10.61-25.87-15.98-38.79-3.8-9.14-7.53-18.32-11.42-27.43-.5-1.17-1.82-2-2.76-2.99-.8,.84-1.57,1.71-2.4,2.52-.84,.82-1.73,1.6-2.62,2.37-6.44,5.6-13.12,11.1-8.43,21.14,.09,.18-.11,.49-.49,2.04-1.55-4.27-2.73-7.51-3.93-10.84-8.64,5.44-26.65,22.67-26.65,25.7,.88-.52,1.6-.95,3.07-1.83-2.56,3.73-.54,5.77,1.17,7.68,4.04,4.5,8.21,8.88,12.35,13.29,17.63,18.79,35.47,37.39,52.81,56.44,8.44,9.27,15.94,19.39,23.87,29.11,.94,1.15,1.96,2.24,2.94,3.36ZM221.92,363.95c-4.72,4.41-8.97,9.31-13.64,13.77-10.7,10.21-21.66,20.14-32.24,30.47-4.3,4.2-7.89,9.13-11.8,13.74l.81,.83c29.1-12.36,60.07-19.99,88.3-35.06-.23-1.76,.14-.81-1.2-2.59,.19-.17,.38-.33,.57-.5,1.84,1.75,.4,1.33,2.65,2.36,17.3-6.49,34.72-13.03,52.75-19.79-3.76-3.75-7.62-4.79-11.53-4.3-1.69,.21-2.82,2.05-5.03,.29-1.3-1.03-3.72-.66-5.63-.93l.08-1.16h15.37c-3.87-4.05-8.24-5.59-11.17-9.86-4.94-7.2-11.89-13.02-17.93-19.49-3.14-3.37-6.15-6.86-9.52-10.64-2.65,5.85-9.4,8.52-11.32,15.01-9.39,6.41-17.12,14.53-25.2,24.02m336.3,3.84c-.11,.61-.23,1.23-.34,1.84,3.68,1.62,7.32,3.36,11.06,4.85,21.92,8.71,43.8,17.54,65.81,26,21.06,8.09,42.26,15.81,63.43,23.6,1.72,.63,3.72,.52,5.58,.75,.09-.31,.18-.61,.28-.92-21.37-19.87-42.74-39.73-64.08-59.57-2.61,2.62-4.87,4.9-7.32,7.36-.55-1.67-.93-2.85-1.31-3.99,2.53-1.26,4.88-2.43,7.88-3.91-11.89-13.77-25.7-24.48-35.72-38.85-6.38,7.07-12.07,13.5-17.91,19.78-5.87,6.31-11.9,12.47-17.86,18.7,6.57,.31,12.95,4.42,17.85-1.88,1.24,1.31,2.83,3.49,3.18,3.3,3.26-1.71,5.6-.1,8.52,1.12,3.56,1.49,7.69,1.61,11.55,2.43,1.61,.34,3.16,.95,4.74,1.44l-.32,1.66c-18.13-7.52-36.61-4.63-55.03-3.7Zm-32.15-116.48c-28.33-29.68-56.63-59.34-84.26-88.3,1.36,2.92,3.16,6.84,4.99,10.73,7.61,16.18,15.18,32.39,22.89,48.53,1.76,3.69,4.43,6.97,5.93,10.74,1.44,3.63,5.79,4.89,6.39,9.09,.52,3.66,1.62,7.24,2.46,10.86-.33,.08-.66,.17-.99,.25-1.66-3.68-3.23-7.41-5.04-11.02-.52-1.04-1.68-2.44-2.6-2.47-5.58-.23-11.18-.11-17.51-.11,7.94,18.71,15.73,37.07,24,56.56,4.83-4.8,9.22-9.08,13.51-13.46,5.38-5.49,5.34-5.53,.05-11.01-.18-.19-.5-.35-.54-.56-.11-.67-.12-1.36-.17-2.05,.69,.06,1.7-.15,2,.22,.98,1.21,1.66,2.66,2.53,3.98,2.18,3.31,3.76,3.47,6.53,.83,3.92-3.74,7.97-7.35,11.82-11.17,3.04-3.01,5.86-6.24,9.07-9.69-4.21-1.05-7.72-1.93-11.23-2.81,.1-.4,.2-.81,.3-1.21,3.27,.69,6.55,1.38,9.87,2.08Zm62.35,389.75c1.15,.48,1.69,.59,2.09,.89,2.06,1.54,4.2,4.5,6.07,4.33,2.31-.21,4.51-2.89,6.54-4.74,5.98-5.44,11.86-11,17.77-16.51-9.06,.3-17.81-2.1-26.94-.65-7.91-.68-16.4-1.41-24.88-2.15,.02-.47,.05-.95,.07-1.42,2.31-.24,4.63-.78,6.93-.67,5.85,.26,11.69,.89,17.54,1.21,3.95,.21,8.03-.46,11.84,.3,10.17,2.04,21.38-2.05,26.95-10.53-.73-.53-1.41-1.18-2.2-1.59-10.99-5.72-21.81-11.81-33.06-16.99-13.54-6.23-27.43-11.72-41.24-17.35-1.53-.62-4.18-.8-5.24,.09-6.24,5.24-12.15,10.85-18.68,16.8,7.01,6.34,12.84,11.66,18.74,16.9,1.39,1.24,3.03,2.2,4.56,3.3,1.47,2.59,2.89,4.21,6.81,2.78,1.67-.61,4.06,.76,6.12,1.23-.08,.25-.17,.51-.25,.76-2.61-.3-5.22-.61-7.83-.91-.12,.35-.23,.7-.35,1.05,10.09,9.51,20.18,19.02,30.15,28.41-.34-1.02-.81-2.42-1.51-4.53ZM329.65,251.72c-7.01-6.11-13.47-11.57-19.74-17.24-9.49-8.58-18.8-17.35-28.3-25.93-2.37-2.14-5.15-3.82-7.74-5.71-.34,.24-.68,.48-1.02,.72,.3,1.49,.6,2.98,.9,4.48-.31,.24-.61,.48-.92,.73-.92-1.15-1.84-2.29-3.2-3.99-3.13,6.74-9.92,9.54-15.66,14.3,3.93,1.71,6.98,3.04,10.23,4.46-2.86,2.14-8.29,.67-11.37-2.92-3.71,2.76-7.45,5.54-12.25,9.11,5.5,4,9.67,8.04,14.63,10.45,18.51,8.98,37.3,17.36,55.91,26.14,2.55,1.2,4.19,.71,5.94-1.07,2.95-3.01,5.99-5.93,8.89-8.98,1.42-1.49,2.61-3.21,3.68-4.55Zm-67.29,65.39c4.98-4.43,9.66-8.61,14.37-12.76,2.44-2.15,1.17-4.25,0-6.38-7.18-13.08-14.26-26.22-21.57-39.23-4.45-7.93-9.21-15.68-13.9-23.48-1.26-2.09-2.91-2.62-4.74-.52-6.18,7.12-12.35,14.25-18.1,20.87,1.66,3.68,2.49,6.64,4.18,9,3.75,5.25,7.94,10.19,11.92,15.27,.46,.59,.75,1.31,1.12,1.97l-.75,.52c-6.58-7.38-13.16-14.76-19.88-22.3-.2,.48-.78,1.34-.6,1.55,15.94,18.52,31.94,37,47.95,55.48Zm366.3-30.05c1.64-1.47,3.03-2.65,4.33-3.93,.74-.73,1.28-1.66,1.99-2.42,7.65-8.22,11.54-18.3,14.37-28.9,.08-.31,0-.75-.16-1.04-3.99-7.56-9.8-13.43-17.06-18.88-3.43,4.73-7.13,8.92-9.79,13.69-8.63,15.44-16.51,31.29-25.43,46.55-4.09,6.99-4.31,12.08,2.33,17.23,3.03,2.35,5.38,5.57,8.07,8.44,.89-.81,1.31-1.13,1.65-1.52,5.88-6.69,11.72-13.41,17.64-20.06,2.51-2.82,3.41-7.48,2.05-9.16Zm-90.33,169.29c-2.29-1.3-5.22-4.4-8.63-1.63-3.76,3.06-.22,5.74,1.01,7.54-2.58,6.7-4.91,12.77-6.82,17.71-1.33-3.53-3.08-8.16-4.98-13.2,1.13,.83,2.04,1.68,3.11,2.22,.69,.36,2.24,.56,2.33,.35,.85-1.88,1.65-3.84,1.98-5.86,.07-.41-1.8-1.44-2.89-1.68-2.03-.44-4.63,.17-6.12-.89-2.28-1.62-3.63-1.4-5.26,.37,5.6,16.08,15.73,30.26,18.15,47.48,.51-.59,.69-1.08,.61-1.52-1.09-6.37-2.38-12.7-3.24-19.1-.36-2.73-.69-6.02,.47-8.29,3.87-7.58,8.25-14.91,12.75-22.15,6.68-10.74,13.72-21.25,20.39-31.99,2.32-3.74,2.74-7.79,.52-12.05-4.06-7.83-7.29-16.1-13.91-22.38-1.97-1.87-3.41-4.35-4.88-6.69-2.19-3.49-4.13-7.15-6.31-10.65-1.04-1.66-2.47-3.07-3.57-4.7-2.64-3.89-5.25-7.81-7.72-11.81-.45-.73-.43-2.02-.15-2.91,2.3-7.37,3.81-15.25,11.94-19.01,1.02-.47,1.77-1.57,2.6-2.42,13.15-13.41,22.32-29.75,33-44.97,.37-.53,.27-1.4,.39-2.11-.26-.26-.53-.52-.79-.78-1.33,1-2.82,1.84-3.95,3.03-5.64,5.91-10.93,12.18-16.82,17.83-10.71,10.28-19.45,21.63-24.55,35.87-3.91,10.92-9.07,21.4-14.03,31.92-2.01,4.26-4.95,8.09-7.79,12.64,9.81-7.17,13.69-17.6,18.09-27.75,3.36,6.61,6.36,12.53,9.31,18.36-3.58,.08-4.35,.79-5.75,5.45-5.8,.93-11.35,2.35-14.95,7.8,2.88-.66,5.64-1.7,8.44-2.6,.79-.26,1.7-.12,2.56-.17-.03,.98,.27,2.14-.15,2.91-.81,1.48-2.03,2.73-3.08,4.08,5.25-1.72,8.43-5.34,10.04-9.22,3.01-.57,5.5-1.04,7.43-1.41,3.54,4.72,6.94,9.06,10.14,13.55,4.43,6.23,8.52,12.72,13.16,18.78,1.92,2.51,1.81,4.12,.07,6.47-6.76,9.13-13.44,18.31-19.97,27.59-1.14,1.62-1.44,3.82-2.22,5.99Zm-50.23-28.76c-.07,.35-.14,.69-.21,1.04,2.27,.96,4.56,1.86,6.8,2.89,6.44,3,12.7,5.86,20.1,2.37,5.7-2.69,11.86-4.39,17.71-6.78,1.27-.52,2.11-2.1,3.35-3.4,6.09,1.9,10.89-4.95,17.79-4.74-17.43-7.75-34.4-15.31-51.47-22.9-1.9,2.44-1.07,3.61,1.49,4.66,11.49,4.73,22.94,9.56,34.35,14.48,1.61,.7,2.93,2.08,4.38,3.15-.28,.44-.56,.89-.84,1.33-1.91-.95-3.85-1.83-5.72-2.85-4.92-2.68-9.64-6.07-15.79-4.22-.4,.12-.96-.31-2.26-.77,2.07-.47,3.21-.73,4.77-1.09-.77-.65-1.11-1.13-1.55-1.29-6.55-2.25-13.08-4.58-19.71-6.59-1.26-.38-3.1,.17-4.33,.88-3.54,2.05-6.87,4.46-10.35,6.61-1.95,1.2-4.04,2.18-6.07,3.25-.18-.29-.36-.59-.55-.88,7.87-4.32,15.39-9.04,20.53-17.88-2.62-.31-4.77-.56-7.09-.83,.77,7.18,.53,6.83-4.9,10.47-5.49,3.68-10.45,8.16-15.64,12.29l.83,1.5c1.37-.37,2.89-.48,4.09-1.15,5.42-3.03,10.64-6.42,16.15-9.25,2.85-1.47,6.15-2.06,9.25-3.05,.17,.49,.35,.99,.52,1.48-5.61,2.37-11.22,4.74-16.84,7.1,.13,.33,.25,.65,.38,.98,7.25-1.98,14.49-3.97,21.74-5.95-7.57,6.93-17.39,6.57-26.51,8.65,5.78-.14,11.56-.33,17.09-1.63,5.58-1.31,10.89-3.73,16.08-5.57-1.24,1.59-2.63,3.38-4.22,5.42-2.46,.41-5.49,.92-8.51,1.43,.03,.23,.05,.47,.08,.7h6.58c.2,.29,.39,.59,.59,.88-.7,.08-1.4,.16-2.1,.24,.18,.19,.37,.39,.55,.58,1.92,.19,3.84,.39,5.76,.58,.03,.37,.06,.75,.09,1.12-3.45,.97-6.9,1.95-10.36,2.92,.11,.45,.23,.9,.34,1.35,4.38-1.03,8.76-2.05,12.86-3.01-4.9,4.77-10.47,8.21-17.98,4.89-.59-.26-1.25-.39-1.88-.54-4.43-1.04-8.86-2.08-13.29-3.11,7.8,4.01,16.8,4.49,24.3,9.06-.12,.38-.24,.77-.36,1.15-6.67-2-13.34-4-20.02-6.01Zm-33.04,111.59c-.24-.27-.49-.54-.73-.8-3.83,2.21-7.61,4.53-11.51,6.6-6.02,3.19-7.61,8.11-7.28,14.72,.51,10.27,.13,20.58,.13,30.87-.87-.3-1.08-.63-1.1-.98-.6-10.8-1.11-21.6-1.82-32.4-.17-2.57-.06-6.23-1.61-7.44-5.28-4.14-11.24-7.41-17.76-11.53,6.86,21.93,13.26,42.42,19.95,63.81,1.77-1.92,3.07-2.71,3.41-3.8,6.17-19.66,12.23-39.36,18.3-59.04Zm26.46-304.99c-18.25-25.75-26.42-56.89-45.05-82.55,0,3.86,.15,7.66,.92,11.32,5.04,23.93,15.3,46.05,24.21,68.63,.43,1.09,1.94,2.43,3.01,2.48,5.36,.25,10.74,.12,16.91,.12Zm49.49,89.04c-.11-.39-.22-.78-.33-1.18-4.37,1.17-8.75,2.34-13.12,3.52,4.2-2.64,8.54-4.7,13.03-6.36,1.65-.61,3.69-.1,5.5-.41,.86-.15,1.59-1.05,2.38-1.61-2.38-2.26,.66-2.85,1.43-3.55,6.65-6.04,13.65-11.7,20.21-17.84,3.21-3.01,5.7-6.8,8.52-10.24-.49-.42-.97-.83-1.46-1.25-1.12,1.43-1.95,3.32-3.4,4.19-4.42,2.67-9.31,4.6-13.61,7.44-16.69,11.01-34.12,20.97-49.32,34.13-1.95,1.69-3.57,1.84-5.48,.09-.87-.79-1.95-1.35-2.96-1.97-5.19-3.21-5.49-3.18-9.88,.87-.48,.44-1.24,.65-1.58,1.17-1.48,2.29-2.88,4.64-4.24,7-.12,.21,.2,.68,.41,1.32,.85-.58,1.57-1.06,2.26-1.54,.48,.82,.95,1.64,1.36,2.35,4.03-2.44,5.69-5.53,3.99-10.44,2.96,1.64,5.92,3.28,8.97,4.97-3.42,2.26-7.16,3.93-9.84,6.65-5.84,5.92-13.47,8.63-20.54,12.3-2.01,1.04-2.68,1.61-2.64,3.83,.16,8.18,.18,16.36-.05,24.54-.08,2.94-1.02,5.86-1.57,8.79,.32,.11,.64,.23,.96,.34,.78-1.99,2.14-3.94,2.25-5.96,.47-8.56,.85-17.15,.64-25.72-.08-3.06,.96-3.92,3.36-5.11,5.91-2.93,11.8-5.98,17.33-9.56,10.7-6.92,21.59-13.24,34.12-16.32,4.52-1.11,8.87-2.94,13.3-4.43Zm-154.92,223.82c-.06-.2-.12-.4-.18-.59-20.27,7.01-40.53,14.01-61.62,21.3,6.39,6.86,12.02,12.89,17.68,18.97,7.69-7.16,15.04-13.96,22.33-20.81,.94-.88,1.59-2.07,2.47-3.03,1.27-1.4,2.74-2.64,3.9-4.12,.66-.84,.86-2.04,1.55-3.82,.72,2.16,1.11,3.31,1.33,3.97,4.24-4.01,8.39-7.94,12.54-11.86Zm186.36-185.44c3.16-.96,6.15-.97,7.65-2.47,6.03-6.03,11.62-12.51,17.35-18.85,6.09-6.74,12.15-13.51,18.25-20.29-4.93-5.55-9.34-10.51-14.17-15.94-9.76,19.32-19.13,37.87-29.07,57.55Zm-282.9-56.37c-3.26,2.89-5.87,5.06-8.33,7.39-7.12,6.75-8.5,4.72-.63,13.58,9.9,11.15,20.18,21.97,30.45,32.79,1.54,1.63,3.93,2.45,5.93,3.65,.28-.33,.55-.66,.83-.98-9.25-18.48-18.51-36.96-28.26-56.42Zm37.04-36.56c21.11,7.82,40.6,18.1,62.81,23.6-6.17-4.88-11.59-9.17-17.03-13.47-1.25,1.85-2.2,3.26-3.75,5.56-.31-1.85-.76-2.74-.49-3.2,2.27-3.82,.48-6.16-2.41-8.73-7.26-6.44-14.25-13.19-21.88-20.31-5.44,5.22-11.08,10.63-17.25,16.55Zm28.74,63.02c-.31,.29-.63,.58-.94,.88,.88,1.22,1.65,2.53,2.65,3.64,6.34,7.1,12.46,14.44,19.17,21.18,11.73,11.79,23.98,23.06,35.71,34.86,5.01,5.03,9.09,10.98,13.87,16.25,4.17,4.6,10.15,6.01,15.43,8.61,.32-.42,.63-.84,.95-1.27-18.26-19.77-36.53-39.54-54.79-59.31-.16,.14-.31,.29-.47,.43,.38,.9,.76,1.8,1.58,3.71-11.63-10.16-22.39-19.57-33.15-28.98Zm166.21,220.94q-3.02,9.5,3.44,15.37c1.76,1.6,3.6,3.1,5.38,4.68,4.99,4.43,9.97,8.88,15.56,13.85,5.63-6.23,11.13-12.31,16.8-18.59-13.4-4.98-27.17-10.1-41.19-15.31Zm-234.79-22.39c5.92-6.89,28.4-50.84,28.89-57.33-5.16,4.48-10.18,9.12-14.76,14.16-6.74,7.41-13.18,15.1-19.73,22.69-1.55,1.8-3.22,3.55-4.38,5.59-.54,.95-.5,2.92,.15,3.73,3.05,3.78,6.39,7.32,9.83,11.17ZM534.42,251.3c-8.33,7.49-16,14.3-23.56,21.23-3.11,2.85-.79,5.85,.26,8.66,1.1,2.94,3.43,1.35,5,.75,8.73-3.32,17.39-6.83,26.05-10.33,2.65-1.07,5.23-2.31,8.98-3.98-5.8-5.66-11.01-10.74-16.74-16.33Zm22.42,187.66c.24,.23,.48,.46,.72,.7,4.59-1.09,9.19-2.15,13.77-3.27,16.12-3.95,32.25-7.87,48.35-11.93,1.66-.42,3.11-1.65,4.65-2.5l-.52-1.37c-1.39,0-2.79-.05-4.18,0-5.54,.21-11.07,.59-16.61,.66-10.41,.13-20.82,.06-31.23,.17-1.23,.01-3.02,.17-3.59,.96-3.93,5.42-7.6,11.03-11.36,16.57Zm-242.57-19.07c14.4,4.62,28.13,8.4,41.34,13.52,7.85,3.04,14.41,2.83,21.14-1.86,1.69-1.18,3.65-1.97,5.48-2.94-.11-.22-.23-.45-.34-.67-7.11,1.75-14.21,3.5-21.32,5.25l-.27-1.17c8.7-2.6,17.4-5.19,26.1-7.79-8.61,1.26-17.02,3.36-25.48,5.17-1.99,.43-4.19-.15-6.29-.27,.05-.42,.1-.84,.15-1.27,.88,.19,1.75,.38,3.73,.8-5.98-2.61-10.88-4.74-15.78-6.88,.04-.34,.08-.67,.11-1,3.77,0,7.54-.08,11.3,.02,3.75,.1,7.5,.37,11.24,.57,.02-.53,.03-1.06,.05-1.59h-7.52c1.1-1.41,1.89-2.41,3.03-3.86-3.53-1.55-6.73-2.96-10.28-4.52,8.37-.68,13.18,7.15,20.52,8.22-3.05-2.57-6.46-4.54-9.41-7.05-5.38-4.57-6.72-4.13-13.45-1.8-6.94,2.4-13.02,6.9-20.42,8.02-.09,.01-.13,.44-.2,.74,2.15,.5,4.3,1,6.44,1.5-6.4,.55-12.38-4.19-19.88-1.16Zm-4.24,18.05c.39-.27,.78-.53,1.18-.8-3.37-4.1-7.02-8.01-10.03-12.35-2.15-3.11-4.72-3.6-8.06-3.3-5.16,.47-10.38,1.23-15.52,.91-9.08-.57-18.1-1.93-27.17-2.77-1.29-.12-2.68,.79-4.02,1.22,.06,.5,.13,1,.19,1.5,20.42,8.02,42.28,10.42,63.43,15.6Zm452.78-8.9c.17,7.04,6.36,13.21,13.07,13.04,6.57-.16,11.32-6.5,11.07-14.77-.2-6.53-6.11-12.56-12.06-12.31-6.72,.28-12.26,6.71-12.08,14.04Zm-202.31-24.89c2.11,5.73,4.74,12.04,9.53,13.34,6.98,1.89,14.88,1.18,22.25,.34,1.96-.22,3.25-.71,4.89,.47,.72,.52,1.66,1.01,2.5,1.01,7.54,.08,15.07,.05,22.61,.05,.05-.47,.11-.94,.16-1.41-19.75-7.57-40.64-10.27-61.93-13.8Zm-149.41-101.73c.33,.19,.67,.39,1,.58,5.63-3.59,11.34-7.06,16.82-10.86,1.45-1.01,2.89-2.96,3.11-4.65,.56-4.23,.31-8.57,.59-12.84,.65-9.79,1.44-19.57,2.17-29.36-.38-.19-.76-.38-1.15-.58-.85,1.38-2.01,2.67-2.51,4.17-2.9,8.6-5.44,17.33-8.51,25.87-2.35,6.56-5.3,12.91-7.99,19.34-1.16,2.78-2.36,5.55-3.54,8.32Zm-70.33,34.7c.54,2.95,1.1,5.9,1.61,8.86,.44,2.57,1.94,5.69,1.01,7.65-3.21,6.8-5.06,14.48-11.35,19.58-1.25,1.01-2.71,3-2.52,4.32,.49,3.42-2.04,4.67-3.65,6.64-.33,.41-.66,.83-.93,1.28-6.08,10.04-12.16,20.09-18.22,30.14-.51,.84-.88,1.77-1.31,2.65,13.42-8.27,15.75-24.85,27.3-34.83,1.01,.27,2.57,.59,4.05,1.12,2.81,1,4.39-.51,5.28-2.75,.95-2.4-.2-3.91-2.6-4.87-1.44-.58-2.61-1.81-3.91-2.74,.21-.35,.43-.71,.64-1.06,1.47,.16,2.94,.33,4.25,.47,1.53-5.97,2.99-11.68,4.52-17.68,3.52,6.53,6.61,12.94,10.33,18.98,3.71,6.02,8.04,11.66,12.09,17.47,.31-.16,.61-.32,.92-.48-11.34-17.12-21.17-34.96-27.51-54.73Zm-31.69,67.14c-19.72,2.73-38.76,6.88-57.37,13.45,3.91,1,7.79,1.78,11.67,1.8,4.62,.02,9.55,1.28,13.67-2.24,.34-.29,1.88,.04,2,.38,.92,2.73,3.11,1.92,4.94,1.87,2.5-.06,5-.39,7.51-.45,8-.2,15.26-6.05,17.58-14.81Zm362.23-149.91c-7.25-14.08-18.91-23.58-30.29-32.64-2.25,2.58-4.19,4.8-6.17,7.06,9.31,10.3,18.74,20.74,28.27,31.3,2.88-1.37,2.55-7.2,8.18-5.72Zm-215.95,46.79c.2-.27,.39-.55,.59-.82-6.5-17.61-13.01-35.22-19.51-52.82-.87,4.86-.91,9.34-.85,13.81,.06,4.62,1.03,9.38,.2,13.82-2.02,10.81,2.96,17.24,11.9,21.81,2.6,1.33,5.12,2.8,7.68,4.2Zm-54.52,92.1c-11.09-2.47-21.34-1.38-31.22,2.5-10.78,4.23-21.41,8.87-32.09,13.37-6.32,2.66-12.61,5.4-18.91,8.11,.15,.4,.3,.79,.46,1.19,18.1-4.65,36.01-9.8,52.49-20.35,.87,.66,2.33,1.57,3.54,2.75,5.01,4.87,10.1,9.67,14.83,14.81,2.3,2.5,4.4,2.73,7.47,1.14-7.67-6.64-17.01-11.1-22.67-19.58,.1-.54,.2-1.09,.3-1.63,8.42-.75,16.83-1.5,25.82-2.3Zm34.57,38.99c-1.86,2.64-3.17,5.82-5.54,7.59-3.54,2.63-3.02,5.27-1.7,8.51,2.9,7.1,5.75,14.22,8.4,20.8,.32-1.25,.7-3.04,1.23-4.78,1.68-5.53,3.44-11.04,5.11-16.58,.97-3.21,.87-6.09-1.86-8.68-2.15-2.05-3.82-4.6-5.64-6.85Zm-30.89-8.87c7.49-1.88,15.01,2.86,23.65,.67-2.7-2.98-4.43-5.59-6.8-7.29-1.84-1.32-4.84-2.61-6.72-2.01-7.18,2.29-14.12,5.34-21.07,8.08,5.55,2.91,10.8,5.87,16.22,8.45,5.59,2.67,12.27,1.26,16.28-2.6-6.94-1.7-14.29-3.51-21.55-5.29Zm36.54,.91c2.65,.44,4.19,1.05,5.64,.87,4.94-.62,9.84-1.54,14.77-2.28,1.12-.17,2.28-.02,3.27-.02-6.22,1.76-12.4,3.52-18.77,5.32,4.18,4.79,8.6,5.41,13.74,2.71,2.43-1.28,5.2-1.94,7.63-3.22,3.05-1.59,5.92-3.53,9.05-5.43-6.43-2.45-12.17-4.73-17.99-6.79-1.62-.57-4-1.29-5.14-.55-3.94,2.53-7.48,5.67-12.22,9.4Zm-12.16,343.67c-5.37-6.71-10.11-12.64-15.17-18.99-2.32,4.33-4.33,8.01-6.24,11.73-.72,1.4-1.3,2.89-1.8,4.38-1.52,4.52-.74,5.87,4.1,5.93,4.34,.06,8.7-.35,13.01-.87,1.84-.22,3.59-1.26,6.11-2.19Zm7.26-392.32c-1.13,3.55-1.9,5.91-2.62,8.28-1.42,4.66-3.06,9.27-4.14,14-1.07,4.73,2.65,13.25,6.65,15.61v-16.84c.22,0,.45,0,.67,0,.42,5.04,.83,10.08,1.25,15.12,.36,.06,.72,.11,1.08,.17,.62-1.07,1.23-2.15,1.86-3.21,2.83-4.76,1.81-9.67,.5-14.54-1.58-5.92-3.32-11.79-5.25-18.59Zm5.7,398.99c5.1,7.01,9.51,13.08,14.21,19.55,4.28-6.96,7.42-13.32,8.06-21.2-7.3,.54-14.04,1.04-22.27,1.66Zm14.84-24.74c-5.41,6.81-11.94,11-14.66,19.66,6.98,0,13.23,.06,19.49-.03,2.28-.03,2.52-1.65,1.85-3.35-2.05-5.16-4.2-10.27-6.68-16.28Zm-42.79,44.77c4.36-6.82,8.41-13.15,12.74-19.92h-20.63c.85,7.13,2.77,13.54,7.89,19.92Zm17.03-12.12c-8.27,2.65-10.84,9.26-15.44,14.93,6.07,2.39,11.48,4.53,16.89,6.66l1.12-.95c-.84-6.75-1.68-13.5-2.57-20.64Zm7.1-.09c-.33,7.3-.63,13.9-.99,21.85,6.38-2.76,11.47-4.97,16.89-7.32-4.53-6.2-8.94-11.3-15.9-14.53Zm-.5-40.5v22.89c5.61-6.01,10.67-11.42,16.55-17.73-5.94-1.85-11.22-3.5-16.55-5.16Zm-4.41-.25c-5.89,1.8-11.02,3.37-16.14,4.94-.04,.47-.08,.94-.12,1.41,5.92,4.35,8.82,11.88,16.26,15.07v-21.41Zm306.71-307.73c2.48,15.22,10.89,25.32,25.82,29.33,14.05,3.77,26.11-.37,36.11-10.59,5.61-5.73,9.66-17.23,7.85-21.9-3.38,18.22-13.2,30.61-31.91,31.55-19.32,.97-30.02-5.89-37.86-28.4Zm-443.97-152.77c-15.3-10.1-26.29-25.01-40.81-35.75-.32,.34-.65,.67-.97,1.01,12.7,12.68,25.4,25.37,38.08,38.03,1.96-1.74,3.08-2.73,3.7-3.28Zm235.56,205.07c-.29,.47-.59,.93-.88,1.4,4.68,2.67,9.35,5.34,14.03,8-.12,.29-.24,.58-.37,.87-3.87-1.26-7.73-2.52-11.6-3.78-.14,.29-.29,.57-.43,.86,1.23,.78,2.36,1.96,3.7,2.26,4.08,.93,8.42,.99,12.33,2.35,8.71,3.02,17.21,6.62,25.8,10,1.07,.42,2.11,.9,3.16,1.35-4.59-5.63-9.94-9.62-17-11.03-9.15-1.84-17.64-5.4-25.5-10.47-1.04-.67-2.17-1.2-3.26-1.8Zm86.71-239.92c-.57-.54-1.13-1.08-1.7-1.62-15.3,12.57-30.6,25.14-45.91,37.72,1.08,.23,1.94,.04,2.69-.35,3.38-1.73,5.19-7.04,10.44-4.59,.15,.07,.5-.17,.68-.34,4.12-3.8,8.22-7.63,12.36-11.41,7.13-6.49,14.28-12.95,21.43-19.42Zm-232.86,171.97c-8.2-2.16-16.67-3.68-23.02-10.27,8.05,2.8,16.1,5.61,24.74,8.62-3.95-4.13-7.33-7.95-11.03-11.41-1.56-1.46-4.15-3.44-5.68-3.02-4.18,1.16-8.04,3.46-12.14,5.37,7.83,7.5,16.81,10.81,27.14,10.71Zm-45.52,69.43c-10.39,11.41-23.22,17.94-39.03,19.56,.82,.99,1.23,1.49,1.56,1.88-3.97,2.86-10.11,.62-12.98,6.16,4.63-1.01,9.01-2.66,13.4-4.31,5.89-2.21,12.02-3.94,17.62-6.72,7.73-3.85,14.95-8.61,19.42-16.58Zm212.26-61.77c-.16-.49-.32-.98-.48-1.48-1.93,.7-3.86,1.39-5.78,2.1-14.44,5.38-30.55,5.97-44.13,15.61,.79,3.01,1.66,6.32,2.53,9.62q-.82-7.23,5.97-10.46c.59-.28,1.17-.62,1.76-.91,9.2-4.61,18.47-8.96,28.76-10.78,3.89-.69,7.6-2.43,11.39-3.7Zm-89.41,82.77c-.29,.16-.58,.31-.87,.47,3.5,2.99,7,5.98,10.77,9.2,1.74-1.42,3.51-2.86,4.45-3.63-1.48-3.85-3.05-6.77-3.7-9.89-.8-3.87-2.4-6.49-6.19-7.06,1.01,4.04,2.05,8.21,3.3,13.18-2.76-.81-5.26-1.54-7.75-2.27Zm-141.05-51.53c-7.89-6.89-44.59-8.99-62.06-3.75,20.94-2.58,41.7-2.43,62.06,3.75Zm-27.56,50.85c1.66-.12,3.13-.22,4.76-.34-.22-1.25-.38-2.18-.6-3.43,13.4-1.06,24.7-6.67,35.17-14.27-6.27,2.35-12.54,4.7-18.49,6.93,.15,.09,.78,.49,1.29,.8-7.49,3.32-18.2-1.46-22.14,10.31Zm238.17-28.05c.69,1.52,.91,2.98,1.76,3.67,2.02,1.64,4.18,3.37,6.57,4.27,10.62,4.01,21.34,7.74,31.84,11.49-3.22-5.46-8.94-7.51-15.01-9-5.07-1.25-10.31-2.05-15.17-3.88-3.3-1.24-6.06-3.91-9.98-6.56Zm79.24-88.91c-.14-.47-.27-.95-.41-1.42-6.91,2.12-13.77,4.44-20.76,6.29-6.95,1.84-14.03,3.21-22.14,5.03,16.74,2.9,29.73-4.68,43.3-9.9Zm-69.88,110.15c13.08,5.38,26.15,10.76,39.23,16.13-2.74-5.49-28.09-15.77-39.23-16.13Zm-173.62-57.27c.26-.73,.53-1.46,.79-2.19-9.71-7.14-21.26-9.11-33.01-10.53,11.43,2.37,20.73,10.51,32.22,12.72Zm-59.57-43.45c-16.33-3.88-31.79-7.55-47.25-11.23,14.57,7.53,30.01,11.31,47.25,11.23Zm182.44,145.7c-.14,.3-.28,.61-.43,.91,5.32,3.79,10.64,7.58,16.08,11.46,4.77-3.67,4.88-5.92-.73-8.26-4.73-1.97-9.93-2.78-14.93-4.11Zm19.13-94.85c4.18,1.46,8.06,2.81,11.93,4.16-1.14,.82-2.23,1.05-3.29,.95-1.16-.11-2.29-.53-4.34-1.04,3.29,3.48,7.11,4.12,10.65,2.05,1.4-.82,2.33-2.47,3.47-3.74-2.19-1.46-4.29-3.97-6.57-4.14-3.66-.27-7.44,1.02-11.85,1.76Zm36.05,4.69c.1,.47,.21,.93,.31,1.4,16.67-1.38,32.53-6.32,48.48-10.88-7.8,.97-15.45,2.64-23.1,4.28-6.8,1.46-13.6,2.9-20.41,4.31-1.75,.36-3.52,.6-5.29,.89Zm-77.14,132.41c-1.83-11.55-12.37-17.99-16.37-29.14-1.58,4.58,8.88,22.9,16.37,29.14Zm305.38-193.46c-14.8-2.99-35.39,13.5-34.56,33.2,1.42-8.79,5.18-16.42,11.55-22.56,6.37-6.15,13.85-10.22,23.02-10.64Zm-406.93-68.37c.48-.09,.95-.17,1.43-.26,.05-.35,.2-.73,.14-1.06-2.02-10.72-4.02-21.45-6.16-32.15-.19-.93-1.32-1.67-2.01-2.5-.37,.2-.73,.39-1.1,.59,2.57,11.79,5.14,23.58,7.7,35.37Zm-28.51,158.1c-.11-.33-.21-.66-.32-.99-.44,.15-.9,.26-1.32,.46-8.01,3.79-16.3,6.56-25.22,7.12-2.49,.16-5.03,.36-7.41,1.02-1.5,.41-2.75,1.71-4.12,2.61,.27,.47,.54,.94,.81,1.4,13.19-1.77,25.92-5.02,37.59-11.62Zm-19.74-106.49c.08-.22,.16-.43,.23-.65-1.65,0-3.35-.26-4.95,.04-13.38,2.57-25.52,9.74-39.37,10.75,5.21,1.47,10.24,.67,15.28-.97,9.58-3.12,19.2-6.12,28.8-9.17Zm150.54-49.42c.3,.24,.59,.49,.89,.73-1.14,5.47-2.28,10.95-3.32,15.91,4.48-3.12,6.19-8.87,8.02-14.44,.4-1.21-.01-3.4-.89-4.12-1.1-.9-3.51-1.52-4.56-.91-2.29,1.33-4.07,3.53-6.07,5.37,.2,.18,.4,.36,.61,.55,1.77-1.03,3.54-2.06,5.31-3.08Zm340.2,100.7c3.96-15.62-17.53-37.71-34.15-34.6,19.47,4.4,32.63,13.85,34.15,34.6Zm-412.16,152.11c.45,.2,.91,.4,1.36,.59,3.11-4.63,6.31-9.19,9.3-13.9,2.11-3.32,4.04-6.78,5.81-10.29,.59-1.17,.45-2.71,.73-4.7-5.11,7.3-9.83,13.73-14.17,20.41-1.5,2.31-2.05,5.24-3.04,7.88Zm108.41-304.43c-5.29,4.82-10.33,9.4-15.37,13.99,.2,.26,.39,.53,.59,.79,6.28-2.78,12.56-5.57,18.88-8.37-1.44-2.25-2.55-3.99-4.1-6.41Zm-99.55,56.84c.27-.27,.55-.54,.82-.81-1.1-.95-2.16-1.96-3.31-2.85-1.53-1.17-3.1-2.3-4.73-3.34-.9-.57-1.94-.93-2.91-1.38-.49,1.13-1.57,2.37-1.37,3.36,.86,4.23,1.89,8.46,3.31,12.53,.58,1.66,2.3,2.92,3.11,3.89-.32-3.63-.89-7.27-.86-10.9,.02-2.74,1.56-3.89,4.15-1.93,.61,.46,1.19,.95,1.79,1.42Zm23.6,40.19l1.71-.89c-4-8.51-8.01-17.02-12-25.53-3.02,5.85-1.6,12.85,3.58,17.74-.81-3.11-1.63-6.23-2.44-9.34,.17-.05,.34-.1,.52-.15,2.88,6.06,5.75,12.11,8.63,18.17Zm-144.87,147.08l.59,1.68c10.68-2.17,21.02-5.22,30.19-11.33-.16-.42-.32-.84-.48-1.26-10.1,3.64-20.2,7.27-30.3,10.91Zm71.52-.5c-.45-.11-.9-.22-1.36-.34-4.16,9.77-6.28,20.08-7.11,30.86,1.46-.99,2.51-2.21,2.91-3.61,.72-2.52,1.03-5.16,1.56-7.74,1.32-6.39,2.66-12.78,3.99-19.17Zm-87.18-77.86c-.02,.34-.03,.68-.05,1.02,1.42,0,2.85-.03,4.27,0,7.4,.2,14.76-1.19,22.19,1.5,7.37,2.67,15.21,4.01,22.85,5.93l.39-1.97c-16.42-3.09-32.27-10.18-49.65-6.48Zm187.23-214.66c-.5-.16-.99-.31-1.49-.47-4.01,6.16-8.18,12.23-11.92,18.55-1.01,1.71-.74,4.18-1.05,6.3,5.01-6.82,9.47-13.46,13.72-20.22,.7-1.1,.51-2.76,.74-4.16Zm-202.03,162.34c3.45,6.85,29.83,15.61,35.34,12.57-12.14-1.7-23.42-7.82-35.34-12.57Zm140.56,184.38c7.44-8.15,12.84-17.41,16.31-27.77-5.92,8.99-12.63,17.52-16.31,27.77Zm-98.14-243.39c-.23,.6-.46,1.2-.69,1.79,14.19,5.01,30.3,4.44,43.09,13.48-12.53-9.62-27.67-11.87-42.4-15.28Zm56.99,217.49c.44,.28,.87,.56,1.31,.84,.72-1.13,1.82-2.17,2.09-3.4,.86-3.97,1.39-8.01,2.1-12.01,1.04-5.85,2.13-11.69,3.2-17.54-1.46,.71-2.71,1.71-2.96,2.91-2.02,9.71-3.85,19.46-5.74,29.2Zm-14.42-69.11c-11.06,1.93-22.14,3.81-33.18,5.87-1.14,.21-2.08,1.47-3.11,2.24,13.08,.51,24.7-3.76,36.28-8.11Zm109.54,88.9c3.74,9.98,9.45,18.85,16.27,27.06-3.13-10.34-9.77-18.62-16.27-27.06Zm-148.7-229.98c-.12,.32-.23,.65-.35,.97,1.57,.7,3.09,1.69,4.74,2.04,3.47,.73,7.09,.83,10.49,1.74,4.44,1.19,8.73,2.91,13.08,4.41,3.78,1.3,7.55,2.62,11.98,4.16-2.67-4.55-29.96-13.21-39.95-13.32Zm158.87,17.3c-7.52,3.74-18.92,22.25-17.27,26.31,5.77-8.79,11.52-17.55,17.27-26.31Zm91.16,95.24c13.53-3.03,26.85-6.01,39.63-8.87-4.06-2.65-35.98,3.87-39.63,8.87Zm23.19-119.42c-.15-.38-.3-.77-.45-1.15-12.82,5.46-27.16,6.01-39.65,12.56,3.23-.82,6.28-2.31,9.5-3.11,3.43-.85,7.03-1.02,10.55-1.51,3.94-.55,7.88-1.1,11.81-1.69,1.77-.27,3.78-.24,5.22-1.11,1.33-.8,2.03-2.62,3.02-3.99Zm-205.08,182.09c-.66-.16-1.31-.32-1.97-.48-2.21,10.99-4.43,21.98-6.64,32.97,.47,.1,.93,.2,1.4,.3,5.96-10.14,4.12-22.01,7.21-32.79Zm-13.91-225.31c-.44,.21-.89,.43-1.33,.64,2.97,11.04,3.1,22.83,9.03,33.09-1.61-10.3-3.67-20.5-5.85-30.66-.24-1.1-1.22-2.05-1.86-3.07Zm152.56,258.97c.35-.18,.69-.36,1.04-.55-.3-9.88-.91-19.71-5.25-28.9,.56,8.91,1.29,17.79,2.22,26.65,.1,.99,1.3,1.86,1.99,2.79Zm-112.47-279.48c-.41,.23-.82,.47-1.23,.7,.96,2,1.78,4.09,2.91,6,3.55,6,7.18,11.94,10.86,17.86,.55,.88,1.55,1.48,2.34,2.21,.03-1.26,.52-2.77,0-3.73-2.25-4.16-4.7-8.22-7.27-12.19-2.4-3.7-5.06-7.24-7.6-10.85Zm63.13,278.19c-.52,.25-1.04,.5-1.56,.76,4.39,10.43,11.84,18.93,18.07,28.26,.35-.8,.59-1.58,.31-2.04-5.57-9.02-11.2-17.99-16.82-26.98Zm48.94-226.41c2.97-2.86,8.42-29.33,7.01-32.92-1.01,1.83-2.21,3.6-2.98,5.53-.59,1.48-.71,3.16-.93,4.76-1.03,7.38-2.03,14.77-3.1,22.63Zm-106.1,268.31c.43,.18,.86,.37,1.29,.55,4.77-7.38,9.62-14.7,14.25-22.17,.76-1.23,.52-3.09,.74-4.65-.32-.08-.65-.17-.97-.25-1.11,2.52-2.22,5.05-3.41,7.75-.47-.73-.73-1.13-1.28-1.97-2.52,7.89-9.38,12.93-10.61,20.74Zm3.76-280.81c.58-3.99-8.76-19.69-15.47-24.95,2.89,8.52,9.51,15.17,11.75,24.01,.4-.19,.81-.38,1.21-.56-.84-1.97-1.68-3.93-2.52-5.9,.33-.15,.67-.3,1-.45,1.32,2.57,2.64,5.14,4.02,7.84Zm26.8,116.53c1.73,1.21,.61,7.12,5.45,4.58,1.79-.94,3.32-4.56,3.07-6.73-.5-4.21-2.18-4.72-6.14-3.95-.88,2.27-1.58,4.06-2.37,6.1Zm90.13,127.84c-1.82-9.76-3.48-19.18-5.4-28.56-.3-1.46-1.77-2.69-2.7-4.02-.27,2.14,.27,3.86,.6,5.63,1.33,7.26,2.48,14.55,3.96,21.78,.37,1.82-.4,4.72,3.55,5.17Zm10.12-197.86c.18,.71,.36,1.42,.55,2.13,1.63-.51,3.27-.99,4.88-1.54,2.84-.98,5.6-2.33,8.52-2.94,6.02-1.25,12.15-1.98,18.17-3.25,1.44-.3,2.61-1.9,3.9-2.9-.21-.31-.43-.63-.64-.94-11.79,3.15-23.58,6.3-35.38,9.45Zm-33.25-28.28c.33,.03,.65,.07,.98,.1,3.18-12.23,6.37-24.47,9.81-37.69-3.38,2.32-11.03,31.47-10.78,37.59Zm-43.88,227.28c2.59,11.02,10.62,18.73,16.92,27.5-3.35-10.56-11.42-18.24-16.92-27.5Zm-20.03-319.22c4.72-2.2,16.35-19.74,15.78-23.17-6.53,7.23-11.95,14.7-15.78,23.17Zm15.19,400.42c.51-.31,1.01-.63,1.52-.94-4.35-8.17-9.52-15.81-16.12-22.82-.33,1.35-.45,2.76,.04,3.91,.54,1.26,1.67,2.27,2.51,3.42,4.02,5.48,8.03,10.96,12.05,16.44Zm58.82-115.67c-1.1,4.93,3.6,30.21,5.74,31.55,.17-10.73-1.29-20.93-5.74-31.55Zm133.46-77.34c.2-.36,.4-.71,.59-1.07-2.65-1.55-5.28-3.13-7.95-4.66-3.07-1.75-6.36-3.2-9.22-5.24-3.03-2.16-4.31-2.37-7.53,.23,8.16,3.29,15.11,9.41,24.1,10.74Zm-294.45-156.47c-.27,1.62-.45,2.03-.38,2.39,1.98,9.01,3.91,18.02,6.06,26.99,.33,1.36,1.66,2.48,2.52,3.7-1.29-9.89-3.31-19.26-5.49-28.59-.3-1.27-1.4-2.36-2.71-4.49Zm244.67,118.54c.22,.58,.43,1.15,.65,1.73,9.9-2.87,19.32-6.75,27.58-13.14-.17-.37-.34-.74-.51-1.11-9.24,4.17-18.48,8.35-27.72,12.52Zm-301.76-13.75l.1,.88c4.28-.54,8.54-1.19,12.83-1.59,3.26-.31,6.69,.23,9.8-.57,3.85-1,7.45-2.99,11.16-4.55-.16-.27-.31-.54-.47-.82-11.14,2.22-22.28,4.43-33.42,6.65Zm-20.36-3.53c.11,.36,.21,.73,.32,1.09,14.64-4.62,29.28-9.24,44.04-13.9-1.88,0-4-.46-5.82,.08-8.45,2.48-16.83,5.17-25.2,7.91-4.49,1.47-8.9,3.2-13.34,4.81Zm184.4,232.89c.5-.2,1.01-.41,1.51-.61,1.06-5.46-3.91-8.49-5.89-12.69-2.08-4.41-5-8.43-7.55-12.62-.51,.31-1.03,.62-1.54,.93,4.49,8.33,8.98,16.67,13.47,25Zm129.51-95.41c.19-.33,.37-.66,.56-.99-2.25-1.19-4.41-2.63-6.78-3.53-7.23-2.75-14.55-5.28-21.83-7.91-1.89-.68-3.76-1.43-5.96-2.27,10.04,8.61,22.27,11.06,34.01,14.69Zm-191.35,44.37c.37,.09,.75,.18,1.12,.27,2.98-4.75,6.08-9.43,8.91-14.27,2.31-3.95,4.37-8.06,6.39-12.17,.32-.66-.18-1.72-.35-2.98-1.36,2.87-2.16,5.25-3.51,7.26-3.58,5.34-7.54,10.43-11.01,15.83-1.07,1.66-1.06,4.02-1.54,6.06Zm126.29-254.76c5.36-9.61,6.08-20.62,8.44-31.18-4.28,5.38-3.07,12.33-5.45,19.17v-9.62c-.16,0-.31-.02-.47-.03-.84,7.22-1.68,14.44-2.53,21.66Zm-60.31,296.38c-2.78-9.54-10.01-16.55-14.48-25.12,2.19,9.87,7.95,17.71,14.48,25.12Zm-15.51-238.2c.21,.05,.42,.09,.63,.14,2.29-3.98,4.47-8.03,6.9-11.92,3.67-5.89,3.74-5.91-1-12.16-1.91,5.4-3.74,10.56-5.56,15.71l1.05,.43c1.7-3.71,3.39-7.41,5.09-11.12,.32,.13,.64,.27,.96,.4-2.69,6.17-5.38,12.35-8.07,18.52Zm-176.71,62.05c-.29-.37-.58-.73-.87-1.1-9.36,3.37-18.72,6.74-28.08,10.1,.14,.48,.29,.96,.43,1.44,2.01-.43,4.07-.7,6.02-1.32,6.16-1.96,12.32-3.96,18.39-6.17,1.53-.55,2.74-1.95,4.1-2.96Zm268.29,41.21c9.53,9.3,20.65,12.74,32.3,15.18-1.36-1.51-2.92-2.75-4.69-3.44-5.01-1.95-10.19-3.49-15.15-5.55-3.95-1.63-7.68-3.79-12.45-6.19Zm-135.59-219.28c5.87,9.67,11.12,18.31,16.73,27.55,.71-5.6-10.51-24.17-16.73-27.55Zm-151.18,138.48c-.16,.39-.31,.79-.47,1.18,5.11,4.73,24.27,13.47,28.23,12-9.73-4.62-18.75-8.9-27.76-13.18Zm186.93-182.17c-3.19-5.7-5.73-10.25-8.28-14.79-.48,.26-.95,.52-1.43,.78,3.04,5.86,6.08,11.72,9.33,17.97,3.54-6.35,8.53-11.08,9.02-18.11-2.7,4.42-5.4,8.84-8.64,14.15Zm-130.37,134.69c12.17,3.4,23.58,6.59,35.84,10.02-8.02-5.67-16.97-6.59-26.36-8.92,2.02-.53,3.17-.84,4.32-1.14-4.4,.43-8.98-2.19-13.8,.05Zm215.37,176.59c1.61,8.99,3.06,17.51,4.71,25.99,.45,2.31,1.51,4.5,2.3,6.75,.46-.16,.92-.31,1.38-.47-1.94-9.76-3.82-19.53-5.88-29.27-.22-1.05-1.52-1.86-2.5-3Zm-289.82-81.41c8.67-2.07,16.01-6.95,24.5-11.48-2.5-.98-4.22-1.64-5.94-2.31,.15,.46,.3,.92,.45,1.38-5.86,4.78-13.33,7.28-19.01,12.41Zm179.8,166.72c.42,.19,.84,.37,1.26,.56,.33-.39,.73-.75,.99-1.19,4-6.49,8.04-12.96,11.92-19.53,.48-.82,.07-2.17,.07-3.28-.53-.06-1.06-.13-1.58-.19-4.02,7.98-9.95,14.97-12.65,23.63Zm120.11-255.38c.78-.33,1.55-.69,2.33-.98,5.14-1.94,10.2-4.14,15.44-5.73,5.03-1.53,10.29-2.28,15.36-3.7,1.82-.51,3.38-1.98,5.06-3.01-.24-.38-.48-.76-.72-1.14-12.06,6-26.83,4.67-37.48,14.57Zm103.83,90.83c.15-.42,.29-.84,.44-1.27-9.16-3.37-18.32-6.74-27.48-10.11,.62,3.11,22.12,11.16,27.05,11.38Zm-293.49,109.75c.59,.26,1.19,.51,1.78,.77,.9-1.65,2.17-3.2,2.64-4.96,2.01-7.71,3.79-15.48,5.63-23.24,.06-.25-.23-.58-.74-1.71-6.37,9.29-5.27,20-9.3,29.15Zm89.28-307.57c1.36-4.11-9.07-21.55-14.83-24.13,4.82,7.84,9.65,15.69,14.83,24.13Zm-24.64,3.27c-.55,.26-1.11,.52-1.66,.79,4.93,8.72,9.85,17.44,14.78,26.16,.32-.17,.63-.33,.95-.5-1.84-10.33-9.43-17.6-14.06-26.45Zm-69.92,109.39c.03-.34,.05-.69,.08-1.03-8.92-.86-16.96-5.86-26.32-4.83,9.28,3.01,18.56,6.02,28.99,9.4-2.23-1.46-3.54-2.32-4.82-3.17,.66-.12,1.37-.24,2.08-.37Zm13.26-45.16c.36-.06,.73-.12,1.09-.18-2.06-9.18-4.09-18.38-6.24-27.54-.24-1.02-1.19-1.88-1.81-2.81-.33,.17-.67,.33-1,.5,2.65,10.01,3.18,20.58,7.95,30.03Zm-72.69,123.34c-.14-.4-.28-.8-.42-1.2-10.24,3.61-20.48,7.23-30.71,10.84,.14,.39,.27,.78,.41,1.16,11.02-1.36,20.72-6.51,30.72-10.8Zm59.9,39.45c-.06-.42-.13-.83-.19-1.25-.96,.07-2.02-.11-2.86,.25-7.32,3.09-15.07,3.83-22.86,4.52-1.05,.09-2.03,1.01-3.04,1.54,.19,.46,.39,.92,.58,1.38,9.99,.24,19.05-3.67,28.37-6.44Zm84.67,94.99l-1.25-.61c-7.04,6.49-14.78,21.08-13.44,25.08,4.87-8.11,9.78-16.29,14.69-24.47Zm5.41-319.09c.57-.3,1.15-.6,1.72-.9-3.32-9.27-10.15-16.7-14.62-25.37,1.8,10.07,8.47,17.58,12.9,26.27Zm-26.79,10.34l-1.84,1.05c5.27,8.42,10.53,16.83,15.8,25.25,.3-.18,.6-.35,.9-.53-3.21-9.6-9.42-17.46-14.86-25.77Zm157.92,198.01c12.62,1.2,24.06-4.6,36.24-6.25-12.59-1.11-23.84,5.86-36.24,6.25Zm-145.77-224.72c-.59,.28-1.19,.56-1.78,.84,4.56,8.19,9.13,16.39,13.69,24.58,.74-1.49,1.24-3.13,.66-4.16-4.06-7.16-8.35-14.19-12.57-21.26Zm34.03,23.99c5.05-7.67,12.21-14.03,15.41-22.84-.57-.35-1.14-.71-1.72-1.06-4.48,8.02-10.61,15.02-13.7,23.9Zm-6.21,340.16c1.74,9.78,8.06,21.3,14.7,25.56-4.72-8.21-9.44-16.41-14.7-25.56Zm-72.29-306.39c2.24,11.31,4.48,22.62,6.68,33.77,1.99-3.46-2.61-30.28-6.68-33.77Zm71.69-52.01c4.3-2.8,15.12-20.64,14.34-22.92-5.73,7.29-10.89,14.6-14.34,22.92Zm-144.85,82c-.23,.51-.47,1.03-.7,1.54,10.58,5.7,22.8,6.44,33.86,10.7,.13-.39,.26-.77,.39-1.16-11.18-3.7-22.36-7.39-33.54-11.09Zm219.35-6.44c5.85-9.59,3.91-21.04,6.96-31.34-4.04,10.02-4.88,20.8-6.96,31.34Zm-54.28,222.11c3.69,12.23,13.93,19.72,19.39,30.23-.71-3.1-1.69-6.11-3.44-8.59-5.03-7.16-10.36-14.1-15.96-21.64Zm-144.17-141.83c-5.94-1.49-11.47-3.1-17.1-4.22-5.52-1.1-11.14-1.72-16.72-2.55,11.97,4.74,31.32,8.5,33.81,6.77Zm75.33,164.04c.38,.06,.75,.11,1.13,.17,5.35-8.82,12.07-16.9,14.58-27.25-.77,.1-1.17,.42-1.42,.83-4.64,7.62-9.29,15.22-13.83,22.9-.53,.89-.33,2.22-.47,3.34Zm76.38-312.29c-5.28,1.69-16.62,20.73-15.51,24.97,5.07-8.16,10.04-16.16,15.51-24.97Zm-4.2,354.99c.54-.28,1.08-.56,1.62-.84-5.34-8.82-10.68-17.65-16.02-26.47-.36,.21-.72,.41-1.08,.62,3.16,10.03,10.43,17.74,15.48,26.7Zm-13.52-336.75c5.05-8,10.09-16.01,15.14-24.01-.46-.27-.92-.54-1.37-.81-5.01,8.03-12.88,14.36-13.76,24.82Zm264.23,152.39c-5.2-6.08-9.75-12.88-18.34-16.53,4.24,8.46,11.75,12,18.34,16.53Zm-368.73,108.66c-6.34,8.61-6.56,19.23-9.06,29.15,6.14-8.69,4.06-19.97,9.06-29.15Zm9.72-76.59c-2.91-3.31-5.92-3.49-8.86-.44-2.26,2.34-1.72,4.28,2.44,7.63,2.11-2.36,4.26-4.77,6.42-7.18Zm62.28,171.67c.35,.15,.69,.3,1.04,.45,4.31-7.45,8.63-14.89,12.9-22.36,.17-.3-.15-.89-.4-2.07-5.73,7.87-11.96,14.65-13.54,23.98Zm197.06-171.71c.23-.4,.46-.79,.69-1.19-7.73-4.36-15.46-8.73-23.46-13.25,.13-.18-.51,.32-.53,.83-.02,.52,.47,1.23,.94,1.55,7.06,4.76,14.1,9.59,22.36,12.05Zm27.44-53.01c-7.86,4.96-16.8,6.31-22.35,13.97,3.68,.32,19.66-9.5,22.35-13.97Zm-141.18,115.96c.22,3.01,.59,5.86,.59,8.71,.01,5.92-.29,11.85-.18,17.76,.03,1.4,1.19,2.78,1.83,4.17,1.23-14.32-.39-29.37-2.24-30.64Zm46.13-179.39c10.19-3.29,21.12-4.2,30.7-9.46-10.33,2.85-21.38,3.38-30.7,9.46Zm-125.18-67.78c.43-.25,.86-.5,1.3-.75-2.75-9.51-9.92-16.65-14.2-25.34-.52,.27-1.03,.55-1.55,.82,4.82,8.42,9.63,16.84,14.45,25.26Zm120.64,292.86l1.52-.32c-1.74-9.03-3.47-18.05-5.21-27.08-.46,.09-.91,.19-1.37,.28,1.53,9.07,1.09,18.53,5.06,27.12Zm56.91-125c3.57,5.81,19.26,12.61,24.93,10.98-8.18-3.6-16.56-7.3-24.93-10.98Zm-278.14-107.45c-8.56-5.74-18.49-7.61-28.35-9.66,8.95,4.59,18.81,6.69,28.35,9.66Zm-54.83,82.53c.25-.5,.5-1.01,.75-1.51-8.42-4.2-16.85-8.4-25.27-12.6-.22,.44-.44,.88-.66,1.32,8.16,4.74,16.11,9.88,25.17,12.8Zm292.44,154.58c-2.36-8.4-4.51-16.04-6.66-23.69-1.99,6.46,2.23,21.47,6.66,23.69Zm69.97-150.8c7.92-.77,12.98-7.09,19.83-10.02-9.05-1.51-12.85,7.35-19.83,10.02Zm-89.34-52.28c8.85-3.11,17.77-6.25,26.69-9.38-8.22-.85-23.46,5.21-26.69,9.38Zm-116.57,214.13c-5.35,9.23-10.08,17.36-14.8,25.5,.53,.31,1.05,.62,1.58,.92,4.62-7.6,9.27-15.18,13.8-22.83,.33-.56-.23-1.64-.58-3.6Zm122.19-39.38l-1.08,.23c-.46,7.88,3.78,24.34,6.99,25.35-2.01-8.7-3.96-17.14-5.91-25.58Zm-209.19-256.19c2.16,8.72,2.76,17.89,7.11,25.97-1.07-9.03-2.65-17.9-7.11-25.97Zm-.63,20.56c.49-.13,.97-.25,1.46-.38-2.11-7.99-4.22-15.99-6.33-23.98-.49,.14-.98,.28-1.47,.41,2.11,7.98,1.34,16.75,6.34,23.94Zm87.79,336.89c4.7-7.02,10.43-13.52,11.34-22.37-3.77,7.47-9.7,13.85-11.34,22.37Zm-14.61-337.5c.42-.24,.83-.48,1.25-.72-4.94-8.16-9.89-16.32-14.83-24.49-.35,.2-.7,.41-1.04,.61,2.63,9.5,9.76,16.39,14.63,24.59Zm70.39-26.43c-.64-.26-1.28-.52-1.92-.78-3.81,9.57-7.62,19.14-11.43,28.71,5.38-8.93,10.23-18.06,13.35-27.93Zm-184.01,174.9c-13.21-1.73-26.45-5.75-39.54,.54,13.17-2.72,26.36-2.92,39.54-.54Zm259.87-121.6c9.12-3.27,19.35-3.14,27.68-8.78-9.03,3.57-19.3,3.22-27.68,8.78Zm-84.7-71.46c-8.11,5.79-11.1,20.03-9.43,29.56,.78-10.59,2.99-20.72,9.43-29.56Zm0,276.67c-.5,.26-1,.51-1.5,.77,4.99,7.83,9.98,15.66,14.98,23.49,.32-.19,.65-.39,.97-.58-2.46-9.3-10.1-15.51-14.44-23.68Zm-155.83-212.15l.35-.98c-7.63-6.15-17.85-4.99-26.04-9.56-.22,.63-.45,1.27-.67,1.9,8.79,2.88,17.57,5.76,26.36,8.64Zm74.61,234.3c.39,.06,.78,.12,1.17,.18,.75-1.36,1.44-2.75,2.26-4.06,3.2-5.12,6.5-10.18,9.6-15.36,.54-.91,.27-2.31,.45-4.25-4.62,6.94-8.62,12.76-12.37,18.73-.82,1.3-.76,3.16-1.1,4.76Zm40.66,38.28c-.46-.22-.92-.43-1.38-.65-4.72,7.59-9.44,15.19-14.16,22.78,.45,.27,.9,.54,1.36,.81,3.89-8.15,11.73-13.93,14.18-22.94Zm114.32-316.88c-.42-.21-.85-.43-1.27-.64-.68,1.99-1.41,3.97-2.03,5.98-2,6.48-1.06,13.9-6.24,19.4-.3,.31,.02,1.2,.08,2.32,8.35-7.64,6.14-18.28,9.47-27.05Zm18.34,82.27l-.6-1.12c-3.8-.24-20.82,8.84-21.43,11.34,1.54-1,3.02-2.35,4.77-3.02,4.07-1.57,8.32-2.7,12.4-4.26,1.74-.66,3.24-1.94,4.86-2.94Zm-2.51,14.67c-.11,.4-.21,.79-.32,1.19,12.84,3.2,25.68,6.41,38.52,9.61,.1-.45,.21-.91,.31-1.36-12.84-3.15-25.68-6.3-38.52-9.44Zm-123.68,233.93l-.85-.54c-9.43,10.94-15.24,20.57-14.1,23.58,5.01-7.72,9.98-15.38,14.95-23.04Zm-81.13-222.01c-8.05-4.37-5.33-4.87-11.83,2.86,1.73,.94,3.42,1.87,4.35,2.38,2.87-2.01,5.11-3.58,7.48-5.24Zm-36.83-105.75c-.05,.12-.1,.25-.15,.37-1.21-2.55-2.41-5.09-3.62-7.64-.44,.21-.87,.42-1.31,.63,2.78,6.49,5.57,12.98,8.35,19.47,.47-.19,.94-.37,1.4-.56-1.4-5.41-2.8-10.83-4.19-16.24-.16,.03-.32,.06-.48,.08,0,1.29,0,2.59,0,3.88Zm56.54,234.26c-3.16,5.63-3.24,24.97,0,31.02v-31.02Zm73.47,126.12c.55-.31,1.11-.63,1.66-.94-4.22-6.63-8.45-13.25-12.67-19.88-.33,.19-.65,.38-.98,.58,1.85,8.01,7.66,13.69,11.99,20.25Zm-195.09-225.81c.45-.69,.91-1.38,1.36-2.07-6.14-4.03-12.28-8.06-18.42-12.09-.36,.54-.72,1.09-1.08,1.63,6.4,3.65,11.48,9.27,18.14,12.53Zm293.73,61.36c-.16,.56-.32,1.12-.49,1.68,6.41,2.52,12.81,5.04,19.22,7.56,.35-.59,.7-1.17,1.05-1.76-1.42-1.12-2.69-2.71-4.3-3.26-3.41-1.16-7.02-1.73-10.53-2.63-1.68-.43-3.3-1.05-4.95-1.59Zm137.32-49.19c.08-.37,.16-.75,.25-1.12-1.22-.31-2.47-.54-3.65-.95-5.35-1.86-11.65,.33-16.51-3.86-.44-.38-1.77,.26-3.5,.58,5.37,4.65,11.36,4.53,16.87,5.77-1.91-.67-3.83-1.34-5.74-2.01,.06-.23,.11-.45,.17-.68,4.04,.76,8.08,1.52,12.12,2.28Zm-125.25-106.94c.16,.5,.31,1,.47,1.5,9.5-1.74,18.78-4.11,26.92-9.74-4.64,1.26-9.03,3.26-13.59,4.73-4.51,1.45-9.2,2.36-13.8,3.51Zm-249.04-6.08c.17-.37,.33-.75,.5-1.12-7.29-4.48-15.87-5.3-23.65-8.38-.2,.59-.4,1.18-.6,1.77,7.91,2.58,15.83,5.16,23.74,7.74Zm112.9-105c1.42,9.03,7.66,15.54,12.13,22.96-1.87-8.79-8.66-15.01-12.13-22.96Zm50.44,54.15c-4.57,.7-9.47,10.83-8.2,17.65,2.67-5.74,5.33-11.48,8.2-17.65Zm-35.64-39.88c.33,.15,.67,.3,1,.45,1.89-2.82,4.02-5.51,5.61-8.49,1.56-2.91,5.32-4.87,3.92-9.17-3.56,5.72-9.58,10-10.53,17.22Zm205.46,203.69c-.08-.5-.15-1-.23-1.5-3.9,.7-7.8,1.4-12.71,2.28,7.31,4.57,13.75,8.71,21.76,9.42-5.71-2.55-11.41-5.09-17.12-7.64,.15-.37,.31-.74,.46-1.11,2.61-.48,5.22-.96,7.83-1.44Zm-243.32-115.6c.4-.17,.81-.35,1.21-.52-2.8-7.6-6.55-14.67-11.46-21.12-.38,.2-.75,.4-1.13,.6,3.79,7.01,7.59,14.03,11.38,21.04Zm42.57,461.31c-1.93-1.72-3.45-3.08-4.97-4.43-1.28,1.43-3.3,2.72-3.61,4.34-.28,1.47,1.29,3.3,2.35,5.66,2.38-2.12,4.05-3.62,6.22-5.56Zm121.32-459.35c4.52,1.31,23.06-5.88,25.38-9.47-8.78,3.28-17.08,6.37-25.38,9.47Zm-90.09-6.32c.31,.16,.61,.31,.92,.47,5.61-5.53,10.43-15.1,8.89-19.02-3.44,6.5-6.62,12.53-9.81,18.55Zm-68.19,204.52c-.33-.43-.67-.85-1-1.28-1.87,.4-3.98,.4-5.52,1.34-1.2,.73-2.02,2.55-2.38,4.04-.18,.76,1.01,2.64,1.57,2.64,1.26,0,2.83-.57,3.69-1.47,1.45-1.53,2.45-3.48,3.64-5.26Zm-181.01-73.54c.18,.59,.37,1.18,.55,1.77,6.55-3.04,13.09-6.07,19.64-9.11-.21-.51-.43-1.02-.64-1.53-7.53,.51-12.45,7.3-19.54,8.86Zm319.26-140.87l1.2,.33c4.72-6.9,3.43-15.46,6.29-22.86-.55-.15-1.09-.3-1.64-.45-1.95,7.66-3.9,15.32-5.85,22.98Zm-214.46,1.56c.4-8.3-3.29-20.26-6.65-22.08,2.26,7.14,2.58,14.65,6.65,22.08Zm174.95-6.02c-.58-.14-1.15-.29-1.73-.43-2,9.14-4.01,18.28-6.01,27.42,.39,.1,.78,.19,1.17,.29,2.19-9.09,4.38-18.19,6.57-27.28Zm-190.87,66.02c.18,1.11,.17,1.99,.36,2.04,7.66,1.95,15.33,3.81,23,5.69-7.35-3.46-14.74-6.83-23.36-7.73Zm250.37,162.65c6.68,6.56,15.89,5.6,23.61,9.2,.14-.44,.29-.88,.43-1.32-8.01-2.63-16.03-5.26-24.04-7.88Zm-69.15-127.07c-4.72-2.83-19.64,.06-22.89,3.58,6.98-1.09,14.84-2.32,22.89-3.58Zm-26.07-90.67c5.93-4.17,13.84-18.16,12.13-20.82-3.9,6.69-7.77,13.33-12.13,20.82Zm89.68-31.28c-.42-.18-.84-.36-1.26-.54-2.1,6.43-4.26,12.85-6.21,19.32-.19,.64,.88,1.66,1.8,3.26,2.04-7.93,3.86-14.99,5.67-22.05Zm-248.16,249.79c-7.8,2.06-15.61,4.07-23.37,6.27-.95,.27-1.6,1.6-2.4,2.44,7.93-5.48,18.54-2.2,25.77-8.71Zm79.53-93.29c-6.64,3.48-13.27,6.96-19.9,10.44,4.43,1.83,6.09,.99,19.9-10.44Zm-66.49,132.07c.49,.19,.98,.38,1.47,.57,3.15-7.75,4.58-15.99,6.44-24.11-.42-.12-.83-.25-1.25-.37-2.22,7.97-4.45,15.94-6.67,23.9Zm33.11-184.46c-1.89-3.17-3.46-5.81-4.75-7.97-1.57,2.37-3.11,4.68-4.82,7.26-.06-.08,.25,.65,.58,.66,2.81,.09,5.62,.05,8.99,.05Zm-26.55,183.83c6.43-6.98,3.32-15.53,3.95-24.47-1.42,8.81-2.69,16.64-3.95,24.47Zm107.04-333.34c-1.57-8.48-6.21-15.57-11.5-22.33,3.83,7.44,7.67,14.89,11.5,22.33Zm99.38,331.47c.38-.15,.76-.3,1.13-.44-.8-7.41-1.61-14.83-2.41-22.24-.32,6.8-.38,13.5-.25,20.2,.02,.84,1,1.66,1.53,2.49Zm-115.36-343.41c-.44,.24-.89,.48-1.33,.72,4.13,6.59,8.25,13.17,12.38,19.76,.44-.28,.89-.55,1.33-.83-4.13-6.55-8.25-13.1-12.38-19.64Zm-139.5,240.97c9.39,1.37,19.71,2.88,30.03,4.39-10.2-2.95-20.31-6.5-30.03-4.39Zm42.98,87.36c-.55-.29-1.1-.59-1.64-.88-3.28,6.23-6.56,12.47-9.84,18.7,.46,.24,.93,.48,1.39,.73,3.36-6.18,6.73-12.37,10.09-18.55Zm142.21-134.84c.18,.47,.37,.95,.56,1.42,7.73-3.08,15.46-6.16,23.19-9.23-.12-.32-.25-.64-.37-.96-7.79,2.93-15.58,5.85-23.37,8.78Zm-237.26-3.79c-.23,.58-.46,1.15-.69,1.73,6.82,1.56,11.34,7.68,17.96,9.63l.76-1.49c-6.01-3.29-12.02-6.58-18.04-9.87Zm107.14,68.15l-.27-1.15c-7.41,1.69-14.83,3.39-22.24,5.08,.13,.54,.26,1.09,.4,1.63l22.11-5.57Zm196.78,81.87c1.21-7.68-1.43-23.77-3.85-25.24,1.29,8.47,2.57,16.86,3.85,25.24Zm-56.29-20.76c-.45,.3-.9,.6-1.35,.9,3.63,5.28,7.26,10.57,10.89,15.85,.45-.3,.9-.6,1.35-.91-3.63-5.28-7.26-10.57-10.88-15.85Zm20.12,9.04c.27,.04,.53,.08,.8,.12v-24.84c-.27,0-.53,0-.8,0v24.72Zm54.02-154.44c3.16,4.02,8.1,4.87,17.17,2.35-6.04-.83-11.84-1.62-17.17-2.35Zm-244.27-109.5c.23-.11,.45-.22,.68-.33,2.38,3.14,4.77,6.29,7.15,9.43,.21-.15,.41-.3,.62-.44-1.51-3.99-3.02-7.97-4.54-11.96-.39,.13-.79,.26-1.18,.39,.53,1.83,1.07,3.66,1.74,5.99-1.71-1.18-3.09-2.13-4.47-3.08Zm181.12,262.51l.88-.44c-.44-1.29-.74-2.66-1.35-3.86-.71-1.39-2.12-2.52-2.48-3.96-.97-3.95-1.13-4.16-4.72-2.5,2.56,3.59,5.12,7.17,7.67,10.75Zm-155.46-74.38c-.31-.67-.62-1.35-.94-2.02-4.78,2.35-9.56,4.7-14.34,7.04,.21,.43,.41,.86,.62,1.3,4.89-2.11,9.77-4.21,14.66-6.32Zm195.92-158.88c.57,.1,1.14,.2,1.72,.3,1.85-6.14,2.48-12.48,1.86-19.03-1.19,6.24-2.38,12.49-3.57,18.73Zm-52.03-39.5c-.49-.24-.97-.48-1.46-.72-3.26,5.95-6.52,11.9-9.78,17.85,.41,.21,.81,.41,1.22,.62,3.34-5.92,6.68-11.83,10.02-17.75Zm-159.93,95.16c5.11,2.71,10.54,5.58,16.08,8.52-2.21-4.56-10.99-9.01-16.08-8.52Zm-23.24,178.34c3.83-4.13,7.44-8.02,11.05-11.91-.3-.32-.6-.65-.9-.97-4.22,3.55-6.33,10.3-14.05,9.2,1.45,1.37,2.45,2.31,3.9,3.68Zm340.84-118.28c2.79-.52,6.09-2.23,8.27-1.29,3.22,1.38,5.33,.34,8.29-.75-6.21-2.84-11.44-.65-16.55,2.05Zm-253.62,99.7c-.28-.03-.55-.05-.83-.08v19.56c.28,.02,.55,.04,.83,.06v-19.53Zm16.92-13.36c5.58-.18,5.91-3.87,3.83-10.28-1.46,3.91-2.59,6.95-3.83,10.28Zm-88.42,45.66c.63-4.64,7.95-3.94,7.26-9.72-3.54,2.75-6.95,5.38-10.57,8.19,1.15,.53,2.18,1.01,3.31,1.53Zm286.24-103.34c3.86,.8,7.55,1.56,11.89,2.46-7.05-5.65-7.83-5.81-11.89-2.46Zm-203.25-134.93c1.98-2.48-.29-7.52-5.78-12.27,1.87,3.96,3.73,7.93,5.78,12.27Zm2.91-4.96c.53-.27,1.06-.53,1.59-.8-2.61-4.82-5.23-9.63-7.84-14.45-.28,.14-.56,.27-.84,.41,2.36,4.95,4.72,9.89,7.09,14.84Zm93.25,5.81v-14.85c-.35,2.25-.55,4.45-1.08,6.57-.5,2.03-1.33,3.97-2.14,6.3,.34,.21,1.19,.73,3.22,1.98Zm-98.91,13.95c-1.22,.44-3.11,1.12-5,1.79-.01,.48-.03,.95-.04,1.43,2.56,1,5.11,1.99,8.62,3.36-1.49-2.74-2.32-4.26-3.58-6.58Zm139.72,42.57c.32-.43,.64-.87,.96-1.3-1.76-1.22-3.52-2.45-5.27-3.67-.89,2.16-1.77,4.31-2.66,6.47,.44,.19,.88,.38,1.32,.57,.72-1.12,1.45-2.25,2.25-3.49,1.13,.47,2.27,.95,3.41,1.42Zm18.2,95.75c4.47,1.91,9.2,3.93,13.93,5.95-2.63-4.15-11.87-7.1-13.93-5.95Zm12.21-104.46c-.23-.44-.46-.88-.69-1.32-4.78,2.48-9.56,4.97-14.34,7.45,.18,.35,.36,.7,.55,1.05,4.83-2.39,9.66-4.79,14.49-7.18Zm-101.89-81.8c1.22-5.34,2.45-10.67,3.86-16.82-4.42,5.4-4.55,11.01-3.86,16.82Zm105.07,278.39c.51-.15,1.01-.29,1.52-.44-1.39-5.19-2.78-10.37-4.17-15.56-.41,.11-.82,.22-1.23,.33,1.29,5.22,2.59,10.45,3.89,15.67ZM286.32,296.96c-.62,3.05,4.86,6.18,12.26,6.75-4.58-2.52-8.27-4.56-12.26-6.75Zm114.06,80.26c.3-.28,.61-.56,.91-.84-4.52-5.01-9.05-10.03-13.57-15.04-.19,.16-.37,.33-.56,.49,4.41,5.13,8.81,10.26,13.22,15.39Zm159.79-102.4c-4.26,7.46-5.31,12.18-3.66,14.52,1.29-5.11,2.48-9.81,3.66-14.52Zm-265.86,187.36c.05,.42,.1,.84,.15,1.26h18.25c-3.17-.78-6.31-1.11-9.47-1.24-2.97-.12-5.96-.03-8.93-.03Zm240.02-183.23c-3.43,5.66-3.17,11.81-2.63,19.05,.97-7.04,1.8-13.05,2.63-19.05ZM245.58,428.49c.28-.34,.57-.69,.85-1.03-1.53-1.41-3.21-2.7-4.55-4.27-2.61-3.05-4.9-2.55-7.32,.27,2.06,.17,4.23-.16,5.83,.63,1.97,.97,3.48,2.9,5.19,4.41Zm328.46-127.7c-1.09,.85-2.3,2.15-2.6,1.97-3.85-2.38-4.15,1.36-5.47,3.47,3.09-1.06,6.18-2.12,9.39-3.22-.48-.81-.86-1.45-1.32-2.23Zm-258.83,144.44c.23-.5,.46-1,.7-1.51-4.96-1.21-9.93-2.43-14.89-3.64-.09,.32-.18,.64-.27,.96,4.82,1.4,9.64,2.79,14.46,4.19Zm56.88-151.1c-.49,.07-.98,.15-1.46,.22,.79,5.16,1.59,10.33,2.38,15.49,.28-.05,.57-.09,.85-.14-.59-5.19-1.18-10.38-1.77-15.57Zm212.05,239.74c.07-.4,.14-.79,.21-1.19-4.26-1.23-8.52-2.47-12.78-3.7-.13,.5-.27,.99-.4,1.49,4.32,1.14,8.65,2.27,12.97,3.41Zm-15.08-93.92c.1,.45,.2,.91,.3,1.36,5.27-1.25,10.53-2.5,15.8-3.75-.08-.35-.15-.7-.23-1.05-5.29,1.15-10.58,2.29-15.87,3.44Zm188.91,16.35c-4.05-4.38-8.15-8.82-12.6-13.64,3.37,5.86,6.34,11.37,12.6,13.64Zm-191.68-13.91c-.11-.46-.23-.92-.34-1.38-4.32,.9-8.63,1.8-12.95,2.7,.11,.46,.21,.92,.32,1.38,4.32-.9,8.65-1.8,12.97-2.7Zm-249.54-74.36c-.31,.34-.62,.69-.94,1.03,3.05,2.42,6.1,4.84,9.14,7.26,.31-.37,.62-.74,.93-1.11-1.49-4.2-6.96-3.79-9.14-7.19Zm151.53-82.42c-.36-.09-.72-.19-1.08-.28-2.11,4.58-4.21,9.15-6.32,13.73l1.12,.48c2.09-4.64,4.19-9.28,6.28-13.93Zm-79.3,243.37c-5.78,0-6.46,1.21-5.89,10.48,1.7-4.35,.81-9.1,5.89-10.48Zm-182.45-105.07c-4.34-2.16-8.64-1.4-10.03,1.58,3.55-.56,6.79-1.07,10.03-1.58Zm285.59-115.11c.27,0,.54-.02,.82-.03,.91-4.68,1.82-9.36,2.73-14.04-.49-.08-.97-.15-1.46-.23-.7,4.76-1.39,9.53-2.09,14.29Zm-.34,199.35c-3.06-.64-6.2-1.3-9.78-2.05,.97,1.77,1.7,3.11,2.35,4.3,2.56-.77,5-1.51,7.43-2.25Zm-217.27-51.12c-.01,.35-.02,.71-.03,1.06h15.28c-3.6-.25-9.42-.65-15.25-1.06Zm-48.64-26.68c-.19-.35-.39-.71-.58-1.06-3.8,1.56-7.59,3.12-11.39,4.69,.16,.39,.32,.77,.48,1.16,3.83-1.6,7.66-3.19,11.49-4.79Zm88.77,130.48c.6,.26,1.2,.53,1.8,.79,1.24-3.37,2.47-6.75,3.71-10.12-.31-.13-.62-.27-.92-.4-1.53,3.25-3.06,6.49-4.59,9.74Zm22.63-28.44l-1.6-.47c-1.36,3.74-2.72,7.48-4.09,11.22,.34,.12,.69,.23,1.03,.35,1.55-3.7,3.1-7.4,4.65-11.1Zm165.31-208.64c.4,.04,.81,.09,1.21,.13,.7-4.52,1.4-9.04,2.1-13.57l-1.02-.17c-.76,4.53-1.52,9.07-2.28,13.6Zm-67.33-126.33c.31,.01,.63,.03,.94,.04v-15.34c-.31,0-.63,0-.94,0v15.3Zm-137.95,100.34c-.09,3.96,2.66,7.14,6.28,7.72-2-2.46-3.96-4.86-6.28-7.72Zm72.09,236.84c-.52-.05-1.03-.09-1.55-.14-.25,3.28-.5,6.55-.74,9.83,.49,.04,.97,.08,1.46,.12,.28-3.27,.56-6.54,.83-9.81Zm8.72-239.15c-.26,.03-.52,.05-.78,.08v12.42c.26-.01,.52-.03,.78-.04v-12.46Zm16.15,242.26l-.97-1.01c-2.52,2.65-5.03,5.3-7.55,7.95,.34,.32,.68,.65,1.02,.97,2.5-2.64,5-5.28,7.5-7.92Zm147.06-160.8c.32,.38,.64,.76,.95,1.14,2.68-1.96,5.37-3.91,8.05-5.87-.27-.37-.54-.74-.81-1.12-2.73,1.95-5.47,3.89-8.2,5.84Zm7.24-35.66c-.07-.3-.14-.59-.21-.89-4.56,1.6-9.12,3.21-13.68,4.81,.09,.25,.18,.51,.27,.76,4.54-1.56,9.08-3.12,13.61-4.69Zm-120.82,308.91c.39,.23,.78,.46,1.17,.68,1.34-3.57,2.68-7.15,4.02-10.72l-1.02-.39c-1.39,3.47-2.78,6.95-4.17,10.42Zm7.06,15c2.59-4.65,.59-9.52,.81-14.28-.27,4.76-.54,9.52-.81,14.28Zm-53.67-181.7s0-.07,0-.1c3.14-2.9,6.27-5.8,8.11-7.5-1.85,1.73-4.97,4.67-8.1,7.61Zm192.29,52.61c4,2.81,5.38,2.65,8.68-1.05-2.96,.36-5.65,.68-8.68,1.05Z"/>
  </g>
  <g>
    <circle class="cls-3" cx="106.34" cy="425.01" r="4.81"/>
    <circle class="cls-3" cx="91.36" cy="425.01" r="4.81"/>
    <circle class="cls-3" cx="79.06" cy="425.01" r="3.21"/>
    <circle class="cls-3" cx="67.83" cy="425.01" r="1.6"/>
    <circle class="cls-3" cx="771.11" cy="425.01" r="4.81"/>
    <circle class="cls-3" cx="786.08" cy="425.01" r="4.81"/>
    <circle class="cls-3" cx="798.39" cy="425.01" r="3.21"/>
    <circle class="cls-3" cx="809.62" cy="425.01" r="1.6"/>
    <circle class="cls-3" cx="141.1" cy="423.93" r="21.39"/>
    <circle class="cls-3" cx="734.26" cy="422.32" r="21.39"/>
    <g>
      <circle class="cls-3" cx="155.06" cy="382.29" r="6.33"/>
      <circle class="cls-3" cx="158.89" cy="361.11" r="6.33"/>
      <circle class="cls-3" cx="165.3" cy="339.92" r="6.33"/>
      <circle class="cls-3" cx="172.79" cy="318.73" r="6.33"/>
      <circle class="cls-3" cx="181.97" cy="298.88" r="6.33"/>
      <circle class="cls-3" cx="190.08" cy="280.9" r="6.33"/>
      <circle class="cls-3" cx="199.7" cy="266.13" r="6.33"/>
      <circle class="cls-3" cx="211.47" cy="252.43" r="6.33"/>
      <circle class="cls-3" cx="223.12" cy="237.37" r="6.33"/>
      <circle class="cls-3" cx="236.2" cy="224.02" r="6.33"/>
      <circle class="cls-3" cx="248.51" cy="211.32" r="6.33"/>
      <circle class="cls-3" cx="262" cy="200.31" r="6.33"/>
      <circle class="cls-3" cx="292.72" cy="179.43" r="6.33"/>
      <circle class="cls-3" cx="311.43" cy="169.51" r="6.33"/>
      <circle class="cls-3" cx="401.89" cy="142.35" r="6.33"/>
      <circle class="cls-3" cx="419.52" cy="140.51" r="6.33"/>
      <circle class="cls-3" cx="363.71" cy="149.62" r="6.33"/>
      <circle class="cls-3" cx="381.34" cy="144.57" r="6.33"/>
      <circle class="cls-3" cx="328.41" cy="161.39" r="6.33"/>
      <circle class="cls-3" cx="276.94" cy="189.85" r="6.33"/>
      <circle class="cls-3" cx="346.47" cy="154.55" r="6.33"/>
    </g>
    <g>
      <circle class="cls-3" cx="725.98" cy="382.29" r="6.33"/>
      <circle class="cls-3" cx="722.16" cy="361.11" r="6.33"/>
      <circle class="cls-3" cx="715.74" cy="339.92" r="6.33"/>
      <circle class="cls-3" cx="708.25" cy="318.73" r="6.33"/>
      <circle class="cls-3" cx="699.07" cy="298.88" r="6.33"/>
      <circle class="cls-3" cx="690.96" cy="280.9" r="6.33"/>
      <circle class="cls-3" cx="681.34" cy="266.13" r="6.33"/>
      <circle class="cls-3" cx="669.57" cy="252.43" r="6.33"/>
      <circle class="cls-3" cx="657.92" cy="237.37" r="6.33"/>
      <circle class="cls-3" cx="644.84" cy="224.02" r="6.33"/>
      <circle class="cls-3" cx="632.53" cy="211.32" r="6.33"/>
      <circle class="cls-3" cx="619.04" cy="200.31" r="6.33"/>
      <circle class="cls-3" cx="588.32" cy="179.43" r="6.33"/>
      <circle class="cls-3" cx="569.61" cy="169.51" r="6.33"/>
      <circle class="cls-3" cx="479.15" cy="142.35" r="6.33"/>
      <circle class="cls-3" cx="461.52" cy="140.51" r="6.33"/>
      <circle class="cls-3" cx="517.33" cy="149.62" r="6.33"/>
      <circle class="cls-3" cx="499.7" cy="144.57" r="6.33"/>
      <circle class="cls-3" cx="552.63" cy="161.39" r="6.33"/>
      <circle class="cls-3" cx="604.1" cy="189.85" r="6.33"/>
      <circle class="cls-3" cx="534.57" cy="154.55" r="6.33"/>
    </g>
    <g>
      <circle class="cls-3" cx="724.96" cy="472.22" r="6.33"/>
      <circle class="cls-3" cx="721.13" cy="493.41" r="6.33"/>
      <circle class="cls-3" cx="714.71" cy="514.59" r="6.33"/>
      <circle class="cls-3" cx="707.23" cy="535.78" r="6.33"/>
      <circle class="cls-3" cx="698.05" cy="555.63" r="6.33"/>
      <circle class="cls-3" cx="689.94" cy="573.61" r="6.33"/>
      <circle class="cls-3" cx="680.31" cy="588.38" r="6.33"/>
      <circle class="cls-3" cx="668.55" cy="602.08" r="6.33"/>
      <circle class="cls-3" cx="656.9" cy="617.14" r="6.33"/>
      <circle class="cls-3" cx="643.81" cy="630.5" r="6.33"/>
      <circle class="cls-3" cx="631.5" cy="643.19" r="6.33"/>
      <circle class="cls-3" cx="618.02" cy="654.21" r="6.33"/>
      <circle class="cls-3" cx="587.3" cy="675.08" r="6.33"/>
      <circle class="cls-3" cx="568.58" cy="685" r="6.33"/>
      <circle class="cls-3" cx="478.13" cy="712.17" r="6.33"/>
      <circle class="cls-3" cx="460.49" cy="714" r="6.33"/>
      <circle class="cls-3" cx="516.31" cy="704.89" r="6.33"/>
      <circle class="cls-3" cx="498.67" cy="709.94" r="6.33"/>
      <circle class="cls-3" cx="551.61" cy="693.12" r="6.33"/>
      <circle class="cls-3" cx="603.07" cy="664.66" r="6.33"/>
      <circle class="cls-3" cx="533.54" cy="699.96" r="6.33"/>
    </g>
    <g>
      <circle class="cls-3" cx="154.03" cy="472.22" r="6.33"/>
      <circle class="cls-3" cx="157.86" cy="493.41" r="6.33"/>
      <circle class="cls-3" cx="164.28" cy="514.59" r="6.33"/>
      <circle class="cls-3" cx="171.77" cy="535.78" r="6.33"/>
      <circle class="cls-3" cx="180.94" cy="555.63" r="6.33"/>
      <circle class="cls-3" cx="189.05" cy="573.61" r="6.33"/>
      <circle class="cls-3" cx="198.68" cy="588.38" r="6.33"/>
      <circle class="cls-3" cx="210.45" cy="602.08" r="6.33"/>
      <circle class="cls-3" cx="222.1" cy="617.14" r="6.33"/>
      <circle class="cls-3" cx="235.18" cy="630.5" r="6.33"/>
      <circle class="cls-3" cx="247.49" cy="643.19" r="6.33"/>
      <circle class="cls-3" cx="260.98" cy="654.21" r="6.33"/>
      <circle class="cls-3" cx="291.7" cy="675.08" r="6.33"/>
      <circle class="cls-3" cx="310.41" cy="685" r="6.33"/>
      <circle class="cls-3" cx="400.86" cy="712.17" r="6.33"/>
      <circle class="cls-3" cx="418.5" cy="714" r="6.33"/>
      <circle class="cls-3" cx="362.68" cy="704.89" r="6.33"/>
      <circle class="cls-3" cx="380.32" cy="709.94" r="6.33"/>
      <circle class="cls-3" cx="327.38" cy="693.12" r="6.33"/>
      <circle class="cls-3" cx="275.92" cy="664.66" r="6.33"/>
      <circle class="cls-3" cx="345.45" cy="699.96" r="6.33"/>
    </g>
  </g>
  <path class="cls-3" d="M437.94,709.89c1.28,9.02,6.56,14.18,15.64,17.62-8.35,2.32-13.73,6.32-14.65,14.95-1.14-8.54-5.95-12.88-14.32-14.4,8.24-3.44,12.63-9.31,13.33-18.17Zm5.62,16.97c-1.95-1.95-3.69-3.69-4.71-4.72-2.07,1.62-4.09,3.2-6,4.69,1.9,1.68,3.71,3.28,5.48,4.85,1.79-1.65,3.41-3.15,5.22-4.83Z"/>
</svg>