<?xml version="1.0" encoding="UTF-8"?>
<svg id="Layer_1" data-name="Layer 1" xmlns="http://www.w3.org/2000/svg" viewBox="0 0 308 291">
  <defs>
    <style>
      .cls-1 {
        fill: #f7f4e7;
      }
    </style>
  </defs>
  <path class="cls-1" d="M45.48,60.91c-3.28-8.56-9.6-19.35-18.23-23.43h29.91c-6.32,4.64-2.72,17.51-.48,23.43l.96,2.56,.96-2.56c6.88-18.07,.4-22.87-.32-23.43h24.79c-1.68,.56-16.47,5.44-23.35,23.51l-1.52,3.92v5.12c0,18.07,8.4,22.87,9.36,23.43h-29.19c.96-.56,9.36-5.36,9.36-23.43v-3.12l-2.24-6Z"/>
  <path class="cls-1" d="M77.51,93.46c8.24-4.08,13.35-15.03,15.51-23.43l7.2-27.11c-1.68-1.92-4.08-4.32-6.4-5.44h29.51c-.8,.56-7.92,5.36-3.04,23.43l2.4,9.12c4.88,18.07,14.55,22.87,15.67,23.43h-29.59c.8-.56,7.92-5.36,3.04-23.43l-1.04-4c-9.52,.32-15.59,7.92-18.15,13.75,0,10.32,4.16,13.35,4.64,13.67h-19.75Zm31.91-32.55c-2.16-7.92-5.36-13.35-8.32-17.03l-6.96,26.15c-.72,2.64-1.12,5.04-1.36,7.12,3.12-5.6,9.12-11.76,17.67-12.15l-1.04-4.08Z"/>
  <path class="cls-1" d="M106.74,132.33c-9.92,6.32-5.04,28.55-29.11,28.55-14.55,0-26.39-12.56-26.39-27.99s11.84-27.99,26.39-27.99c9.12,0,17.19,4.96,21.91,12.55l-9.04,7.36c0-10.16-2.96-17.59-8.96-18.55-8.64-1.28-17.43,9.52-19.67,24.23-2.24,14.71,2.96,27.67,11.67,29.03,5.36,.8,13.99-.56,13.99-11.12,0-6.8-2.8-14.07-10-16.07h29.19Z"/>
  <path class="cls-1" d="M136.85,104.9c-.96,.56-9.36,5.36-9.36,23.43v21.59c0,5.44,4.4,9.92,9.92,9.92s9.92-4.48,9.92-9.92v-21.59c0-18.07-8.4-22.87-9.36-23.43h29.19c-.96,.56-9.36,5.36-9.36,23.43v16.31c0,11.28-9.12,16.23-20.39,16.23s-20.39-4.96-20.39-16.23v-16.31c0-18.07-8.4-22.87-9.36-23.43h29.19Z"/>
  <path class="cls-1" d="M162.35,160.88c8.24-4.08,13.35-15.03,15.51-23.43l7.2-27.11c-1.68-1.92-4.08-4.32-6.4-5.44h29.51c-.8,.56-7.92,5.36-3.04,23.43l2.4,9.12c4.88,18.07,14.55,22.87,15.67,23.43h-29.59c.8-.56,7.92-5.36,3.04-23.43l-1.04-4c-9.52,.32-15.59,7.92-18.15,13.75,0,10.32,4.16,13.35,4.64,13.67h-19.75Zm31.91-32.55c-2.16-7.92-5.36-13.35-8.32-17.03l-6.96,26.15c-.72,2.64-1.12,5.04-1.36,7.12,3.12-5.6,9.12-11.76,17.67-12.15l-1.04-4.08Z"/>
  <path class="cls-1" d="M34.4,228.3c.96-.56,9.36-5.36,9.36-23.43v-9.12c0-18.07-8.4-22.87-9.36-23.43h29.11c5.84,0,21.03,1.28,21.03,10,0,6-4.96,9.28-11.6,9.28-1.2,0-2.48-.16-3.76-.4,8.64,4.88,11.67,9.12,14.15,22.79,.4,1.92,3.36,11.36,8.48,14.31h-7.68c-6.72,0-12.24-5.44-12.24-12.24v-2.08c0-14.23-2.56-22.31-16.63-28.07-.64,2.8-1.04,6-1.04,9.84v9.12c0,18.07,8.4,22.87,9.36,23.43h-29.19Zm23.43-42.54c3.6,1.52,16.23,4.24,16.23-4.48,0-6.32-5.28-7.92-11.84-7.92-1.84,1.52-4.88,5.04-6.64,11.51,.16,.08,2.16,.88,2.24,.88Z"/>
  <path class="cls-1" d="M121.32,204.87c0,13.67,5.28,20.07,7.92,22.39,7.76,0,17.91-2.08,22.15-9.44v10.48h-49.9c.96-.56,9.36-5.36,9.36-23.43v-9.12c0-18.07-8.4-22.87-9.36-23.43h49.9v10.48c-4.24-7.36-14.39-9.44-22.15-9.44-2.64,2.32-7.92,8.72-7.92,22.39v4.08c7.68,0,17.99-2.08,22.23-9.36v19.67c-4.24-7.28-14.55-9.28-22.23-9.28v4Z"/>
  <path class="cls-1" d="M170.11,253.3c1.44-.64,14.07-6.32,14.07-54.94h-1.92c-18.07,0-22.87,8.48-23.43,9.44v-10.48h51.74v10.48c-.56-.96-5.36-9.44-23.43-9.44h-1.92c0,48.62,12.71,54.3,14.07,54.94h-29.19Z"/>
  <path class="cls-1" d="M241.67,229.87c0,13.67,5.28,20.07,7.92,22.39,7.76,0,17.91-2.08,22.15-9.44v10.48h-49.9c.96-.56,9.36-5.36,9.36-23.43v-9.12c0-18.07-8.4-22.87-9.36-23.43h49.9v10.48c-4.24-7.36-14.39-9.44-22.15-9.44-2.64,2.32-7.92,8.72-7.92,22.39v4.08c7.68,0,17.99-2.08,22.23-9.36v19.67c-4.24-7.28-14.55-9.28-22.23-9.28v4Z"/>
  <path class="cls-1" d="M251.58,178.7c1.15-2.81,4.55-3.89,6.97-2.19,2.51,1.77,2.64,5.34,.28,7.3l-11.29,9.3-.93-.66,4.97-13.76Z"/>
  <g>
    <path class="cls-1" d="M150.26,38.24c-.26,.03-.49-.03-.69-.19s-.3-.36-.33-.61c-.03-.26,.03-.49,.19-.68,.15-.19,.36-.3,.63-.33,.25-.03,.48,.03,.67,.18,.19,.15,.3,.36,.33,.62,.03,.25-.04,.48-.19,.67s-.36,.3-.61,.33Z"/>
    <path class="cls-1" d="M167.19,42.34c-.82-.03-1.52-.2-2.11-.52-.59-.32-1.04-.75-1.35-1.29-.31-.54-.45-1.16-.43-1.86l1.4,.05c-.02,.43,.07,.84,.26,1.21,.19,.37,.47,.68,.85,.91,.38,.23,.85,.36,1.43,.38,.75,.03,1.34-.13,1.77-.48,.43-.35,.65-.79,.67-1.33,.02-.45-.07-.81-.25-1.08-.18-.28-.43-.51-.75-.69-.32-.18-.68-.34-1.1-.49s-.85-.3-1.3-.48c-.85-.33-1.47-.72-1.87-1.17s-.58-1.04-.56-1.75c.01-.59,.17-1.12,.47-1.57,.3-.45,.72-.8,1.25-1.04,.53-.24,1.16-.35,1.88-.32,.71,.03,1.32,.18,1.84,.46,.51,.28,.91,.67,1.18,1.14,.27,.48,.41,1.01,.4,1.61l-1.4-.05c.01-.31-.06-.62-.21-.92-.15-.31-.38-.56-.7-.77-.32-.2-.72-.31-1.21-.33-.6-.03-1.1,.1-1.5,.41s-.61,.74-.63,1.3c-.02,.48,.1,.85,.37,1.11,.26,.26,.63,.49,1.11,.67,.48,.18,1.04,.39,1.67,.63,.52,.21,.99,.45,1.41,.72,.42,.27,.73,.61,.96,1.02,.22,.41,.32,.93,.3,1.55-.02,.53-.18,1.03-.47,1.49-.29,.46-.72,.83-1.29,1.11s-1.27,.4-2.11,.37Z"/>
    <path class="cls-1" d="M180.63,43.67c-1.08-.17-1.98-.57-2.72-1.17-.73-.61-1.26-1.38-1.57-2.31-.32-.93-.38-1.96-.2-3.08s.57-2.07,1.16-2.85,1.34-1.34,2.23-1.69c.89-.35,1.87-.44,2.95-.26,1.09,.18,2,.57,2.73,1.18,.73,.61,1.26,1.38,1.57,2.31,.31,.93,.38,1.95,.19,3.07s-.57,2.07-1.16,2.86c-.59,.79-1.33,1.35-2.22,1.7s-1.88,.43-2.97,.25Zm.19-1.16c.81,.13,1.54,.07,2.22-.2s1.23-.7,1.68-1.32c.45-.62,.75-1.4,.9-2.34s.11-1.78-.12-2.5-.62-1.32-1.18-1.78c-.55-.46-1.23-.76-2.04-.89-.81-.13-1.54-.07-2.22,.2-.67,.26-1.23,.7-1.68,1.31-.45,.62-.75,1.39-.9,2.34s-.11,1.78,.12,2.51,.62,1.33,1.18,1.79c.55,.46,1.23,.76,2.04,.89Z"/>
    <path class="cls-1" d="M190.7,45.56l3.11-10.69,1.28,.37-2.82,9.67,4.98,1.45-.3,1.02-6.26-1.82Z"/>
    <path class="cls-1" d="M208.06,51.67l5-9.95,3.06,1.54c1.75,.88,2.82,1.98,3.2,3.28s.18,2.74-.6,4.29c-.77,1.53-1.79,2.52-3.06,2.99-1.28,.47-2.79,.26-4.54-.62l-3.06-1.54Zm1.69-.4l1.83,.92c.97,.49,1.82,.71,2.55,.68,.73-.03,1.37-.28,1.92-.75s1.02-1.11,1.43-1.92c.42-.83,.66-1.61,.71-2.33,.05-.72-.12-1.39-.54-2-.41-.61-1.1-1.16-2.07-1.64l-1.83-.92-4,7.96Z"/>
    <path class="cls-1" d="M220.32,58.25l6.14-9.29,5.75,3.8-.61,.92-4.63-3.06-2.14,3.24,4.23,2.8-.6,.9-4.23-2.8-2.19,3.32,4.63,3.06-.61,.92-5.75-3.8Z"/>
    <path class="cls-1" d="M235.61,69.66l7.63-8.11,.97,.92-6.9,7.33,3.78,3.56-.73,.78-4.75-4.47Z"/>
    <path class="cls-1" d="M243.15,76.97l11.15-4.07,.92,1.08-5.85,10.32-.92-1.08,1.53-2.63-3.07-3.62-2.85,1.06-.91-1.07Zm4.84-.39l2.55,3.01,2.92-5.06-5.47,2.06Z"/>
    <path class="cls-1" d="M257.6,97.13c-.41-.71-.63-1.4-.67-2.07s.08-1.28,.38-1.83c.3-.55,.75-1,1.36-1.35l.7,1.21c-.38,.22-.67,.5-.89,.86-.22,.36-.32,.76-.32,1.2,0,.44,.15,.91,.43,1.41,.38,.65,.82,1.07,1.34,1.25,.52,.18,1.01,.13,1.48-.14,.39-.22,.65-.48,.79-.78,.14-.3,.2-.63,.19-1-.01-.37-.07-.76-.17-1.19-.1-.43-.19-.88-.28-1.35-.17-.89-.17-1.63,0-2.21,.17-.58,.57-1.04,1.19-1.4,.51-.3,1.04-.45,1.58-.43s1.06,.19,1.54,.52c.49,.33,.91,.8,1.27,1.43,.35,.62,.55,1.22,.58,1.8,.03,.59-.08,1.12-.34,1.61s-.64,.88-1.15,1.18l-.7-1.21c.27-.15,.49-.37,.67-.66,.18-.29,.28-.62,.28-1,0-.38-.12-.78-.36-1.2-.29-.53-.67-.88-1.14-1.06s-.95-.13-1.43,.15c-.41,.24-.66,.54-.75,.9-.09,.36-.08,.79,.02,1.3,.1,.5,.22,1.09,.35,1.74,.1,.55,.14,1.08,.13,1.57,0,.49-.13,.95-.36,1.35-.23,.41-.62,.77-1.16,1.08-.46,.26-.96,.39-1.51,.39s-1.09-.17-1.62-.51c-.53-.33-1.01-.87-1.43-1.59Z"/>
    <path class="cls-1" d="M261.76,104.59l10.21-4.45,2.75,6.32-1.01,.44-2.22-5.09-3.56,1.55,2.03,4.65-.99,.43-2.03-4.65-3.65,1.59,2.22,5.09-1.01,.44-2.75-6.32Z"/>
    <path class="cls-1" d="M266.23,115.57l10.62-3.34,.4,1.28-9.61,3.02,1.55,4.95-1.02,.32-1.95-6.22Z"/>
    <path class="cls-1" d="M269.62,127.8l10.03-6.39,.3,1.42-8.79,5.44,10.24,1.47,.29,1.39-11.76-1.8-.32-1.53Z"/>
    <path class="cls-1" d="M271.12,135.56l11.48,2.99,.14,1.41-10.68,5.16-.14-1.41,2.75-1.29-.46-4.72-2.95-.75-.14-1.39Zm4.2,2.43l.39,3.93,5.29-2.5-5.67-1.42Z"/>
    <path class="cls-1" d="M276.47,157.57c.01-.27,.11-.48,.3-.64s.4-.24,.66-.23c.26,.01,.48,.11,.64,.3,.16,.18,.23,.41,.22,.67-.01,.25-.11,.46-.29,.63-.18,.17-.4,.24-.67,.23-.25-.01-.46-.11-.63-.3s-.24-.4-.23-.66Z"/>
  </g>
</svg>