<?xml version="1.0" encoding="UTF-8"?>
<svg id="Layer_1" data-name="Layer 1" fill="#f7f4e7" xmlns="http://www.w3.org/2000/svg" viewBox="0 0 1274 333">
  <defs>
    <style>
      .cls-1 {
        fill: #f7f4e7;
      }
    </style>
  </defs>
  <g>
    <path class="cls-1" d="M1140.64,186.49c0,33.82,13.05,49.64,19.58,55.37,19.18,0,44.3-5.14,54.78-23.34v25.91h-123.4c2.37-1.38,23.14-13.25,23.14-57.94v-22.55c0-44.69-20.76-56.56-23.14-57.94h123.4v25.91c-10.48-18.19-35.6-23.34-54.78-23.34-6.53,5.74-19.58,21.56-19.58,55.37v10.09c18.99,0,44.5-5.14,54.98-23.14v48.65c-10.48-18-35.99-22.94-54.98-22.94v9.89Z"/>
    <path class="cls-1" d="M1171.42,53.51c2.83-6.95,11.26-9.62,17.24-5.41,6.21,4.38,6.53,13.21,.7,18.06l-27.93,23.01-2.3-1.62,12.29-34.04Z"/>
  </g>
  <path class="cls-1" d="M69.42,163.94c-8.11-21.16-23.73-47.86-45.09-57.94H98.29c-15.62,11.47-6.72,43.31-1.19,57.94l2.37,6.33,2.37-6.33c17.01-44.69,.99-56.56-.79-57.94h61.31c-4.15,1.38-40.74,13.45-57.75,58.14l-3.76,9.69v12.66c0,44.69,20.76,56.56,23.14,57.94H51.82c2.37-1.38,23.14-13.25,23.14-57.94v-7.71l-5.54-14.83Z"/>
  <path class="cls-1" d="M142.53,244.43c20.37-10.09,33.03-37.18,38.37-57.94l17.8-67.04c-4.15-4.75-10.08-10.68-15.82-13.45h72.98c-1.98,1.38-19.58,13.25-7.52,57.94l5.93,22.55c12.06,44.69,35.99,56.56,38.76,57.94h-73.17c1.97-1.38,19.58-13.25,7.51-57.94l-2.57-9.89c-23.53,.79-38.56,19.58-44.89,34.02,0,25.51,10.28,33.03,11.47,33.82h-48.85Zm78.91-80.49c-5.34-19.58-13.25-33.03-20.57-42.12l-17.21,64.67c-1.78,6.53-2.77,12.46-3.36,17.6,7.71-13.84,22.55-29.07,43.71-30.06l-2.57-10.09Z"/>
  <path class="cls-1" d="M486.53,106c-2.37,1.38-23.14,13.25-23.14,57.94v53.4c0,13.45,10.88,24.52,24.52,24.52s24.52-11.07,24.52-24.52v-53.4c0-44.69-20.76-56.56-23.14-57.94h72.18c-2.37,1.38-23.14,13.25-23.14,57.94v40.34c0,27.88-22.55,40.15-50.43,40.15s-50.43-12.26-50.43-40.15v-40.34c0-44.69-20.76-56.56-23.14-57.94h72.19Z"/>
  <path class="cls-1" d="M545.61,244.43c20.37-10.09,33.03-37.18,38.37-57.94l17.8-67.04c-4.15-4.75-10.08-10.68-15.82-13.45h72.98c-1.98,1.38-19.58,13.25-7.52,57.94l5.93,22.55c12.06,44.69,35.99,56.56,38.76,57.94h-73.17c1.98-1.38,19.58-13.25,7.51-57.94l-2.57-9.89c-23.53,.79-38.56,19.58-44.89,34.02,0,25.51,10.28,33.03,11.47,33.82h-48.85Zm78.91-80.49c-5.34-19.58-13.25-33.03-20.57-42.12l-17.2,64.67c-1.78,6.53-2.77,12.46-3.36,17.6,7.71-13.84,22.55-29.07,43.71-30.06l-2.57-10.09Z"/>
  <path class="cls-1" d="M697.28,244.43c2.38-1.38,23.14-13.25,23.14-57.94v-22.55c0-44.69-20.76-56.56-23.14-57.94h71.99c14.44,0,52.01,3.16,52.01,24.72,0,14.83-12.26,22.94-28.68,22.94-2.97,0-6.13-.4-9.29-.99,21.36,12.06,28.87,22.54,35,56.36,.99,4.75,8.31,28.08,20.96,35.4h-18.98c-16.61,0-30.26-13.45-30.26-30.26v-5.14c0-35.2-6.33-55.18-41.13-69.41-1.58,6.92-2.57,14.83-2.57,24.32v22.55c0,44.69,20.76,56.56,23.14,57.94h-72.19Zm57.95-105.21c8.9,3.76,40.15,10.48,40.15-11.08,0-15.62-13.05-19.58-29.27-19.58-4.55,3.76-12.06,12.46-16.41,28.48,.4,.2,5.34,2.18,5.54,2.18Z"/>
  <path class="cls-1" d="M418.36,173.83c-24.52,15.62-12.46,70.6-71.99,70.6-35.99,0-65.26-31.05-65.26-69.22s29.27-69.22,65.26-69.22c22.55,0,42.52,12.26,54.19,31.05l-22.35,18.2c0-25.12-7.32-43.51-22.15-45.88-21.36-3.16-43.11,23.53-48.65,59.92-5.54,36.39,7.32,68.43,28.87,71.79,13.25,1.98,34.61-1.38,34.61-27.49,0-16.81-6.92-34.81-24.72-39.75h72.18Z"/>
  <path class="cls-1" d="M889.5,186.49c0,33.82,13.05,49.64,19.58,55.37,19.18,0,44.3-5.14,54.78-23.34v25.91h-123.4c2.37-1.38,23.14-13.25,23.14-57.94v-22.55c0-44.69-20.76-56.56-23.14-57.94h123.4v25.91c-10.48-18.19-35.6-23.34-54.78-23.34-6.53,5.74-19.58,21.56-19.58,55.37v10.09c18.98,0,44.5-5.14,54.98-23.14v48.65c-10.48-18-35.99-22.94-54.98-22.94v9.89Z"/>
  <path class="cls-1" d="M991.63,244.43c3.56-1.58,34.81-15.62,34.81-135.86h-4.74c-44.69,0-56.56,20.96-57.95,23.34v-25.91h127.96v25.91c-1.39-2.37-13.25-23.34-57.95-23.34h-4.74c0,120.24,31.45,134.28,34.81,135.86h-72.18Z"/>
</svg>
