<?xml version="1.0" encoding="UTF-8"?>
<svg id="Layer_1" data-name="Layer 1" xmlns="http://www.w3.org/2000/svg" viewBox="0 0 390 386">
  <path d="M187.73,332.12c-1.86-26.94-3.72-53.88-5.58-80.82-1.46-.56-2.91-1.12-4.37-1.68-15.73,23.15-31.47,46.31-47.2,69.46-.99-.52-1.98-1.04-2.97-1.56,9.88-20.02,19.76-40.04,29.64-60.06-.73-.88-1.46-1.77-2.19-2.65-18.93,13.54-37.87,27.08-56.8,40.62-1.43-1.86-2.87-3.71-4.3-5.57,22.35-19.81,44.71-39.61,67.06-59.42-.43-.77-.87-1.54-1.3-2.31-5.21,2.76-10.31,5.75-15.64,8.25-21.62,10.14-43.3,20.14-64.96,30.18-2.13,.99-4.2,2.53-6.41,2.77-2.45,.27-5.04-.66-7.57-1.07,1.56-2.27,2.6-5.47,4.75-6.67,24.94-13.88,50.06-27.45,75.09-41.17,1.41-.77,2.5-2.14,7.37-6.42H76.04c-.1-1.86-.2-3.72-.3-5.58,21.24-2.62,42.47-5.25,63.45-7.84-7.69-7.15-7.67-7.49-46.77-9.78-16.47-.97-33.04-.16-49-.16,33.32-14.4,67.58-14.65,103.3-1.23,1.39-6.79,1.36-11.98-8.83-15.1-22.77-6.98-40.91-21.29-55.07-40.83,24.7,11.68,49.39,23.36,74.09,35.04,.63-.74,1.25-1.47,1.88-2.21-23.09-21.75-46.17-43.49-69.26-65.24,.82-.95,1.63-1.89,2.45-2.84,23.99,19.11,47.98,38.22,71.97,57.33,1.03-.57,2.06-1.14,3.09-1.71-7.18-12.73-14.09-25.62-21.61-38.14-7.7-12.82-16.01-25.27-23.06-38.7,24.27,19.09,36.19,48.57,58,70.95,5.54-33.62,.54-67.5,7.1-100.2,1.68,0,3.36-.01,5.04-.02,1.97,33.41,3.94,66.81,6.14,103.98,25.92-22.74,31.16-54.65,50.54-76.78,1.32,.47,2.64,.94,3.96,1.41-1.32,4.71-2.13,9.65-4.06,14.11-8.92,20.55-18.24,40.93-27.16,61.48-1.15,2.65-.82,5.93-1.4,10.8,21.73-26.01,44.38-47.35,72.03-62.56,.84,.95,1.68,1.91,2.51,2.86-15.15,15.04-30.47,29.92-45.33,45.25-3.06,3.16-4.38,8-6.51,12.06,4.49-.55,9.37-.17,13.4-1.83,15.22-6.27,30.17-13.21,46.31-17.5-13.63,17.05-34.36,19.81-53.51,27.61-.64,8.98,2.41,12.67,12.66,12.08,18.73-1.08,37.54-.73,56.33-.75,4.4,0,8.8,.91,13.2,1.4,.02,1.24,.04,2.47,.06,3.71-8.82,1.05-17.61,2.38-26.46,3.07-14.95,1.17-29.99,1.51-44.88,3.18-3.61,.4-6.8,4.59-10.19,7.04,.65,1.34,1.29,2.68,1.94,4.03,19.8,2.19,39.61,4.38,59.41,6.56-22.71,10.48-47.9-.33-70.69,7.46-.25,1.48-.5,2.96-.75,4.43,22.96,13.62,45.91,27.24,68.87,40.86-.84,1.67-1.68,3.34-2.52,5.01-26.01-12.17-52.02-24.35-78.03-36.52-.83,.65-1.66,1.31-2.49,1.96,17.77,19.73,35.54,39.47,53.32,59.2-.61,.83-1.22,1.66-1.84,2.48-3.61-2.1-7.6-3.74-10.77-6.37-13.85-11.53-27.69-23.1-41.01-35.23-3.03-2.76-4-7.79-7.34-11.24,2.94,26.68,23.5,47.79,25.19,74.95-12.84-18.08-16.15-42.36-38.67-54.31-.29,.72,.75-.6,.66-1.83-.28-3.75-.7-7.56-1.83-11.11-.18-.58-5.87-.57-6.2,.27-1.19,3.05-1.49,6.56-1.58,9.9-.62,24.35-1.11,48.69-1.64,73.04-2.14,.08-4.29,.16-6.43,.25Zm-26.58-117.31c12.3,15.61,30.84,21.81,47.12,15.05,14.26-5.92,15.84-18.25,15.23-31.47-.54-11.89-21.34-32.29-31.66-31.12-13.21,1.5-27.29,19.54-26.91,33.5,.11,4.11-2.15,8.28-3.78,14.05Z"/>
</svg>