<?xml version="1.0" encoding="UTF-8"?>
<svg id="Layer_1" data-name="Layer 1" fill="#f7f4e7" xmlns="http://www.w3.org/2000/svg" viewBox="0 0 473 333">
 
  <polygon class="cls-1" points="327.77 256.83 431.2 257.83 327.77 258.83 327.77 256.83 327.77 256.83"/>
  <polygon class="cls-1" points="327.52 229.67 379.49 216.96 328.03 231.61 327.52 229.67 327.52 229.67"/>
  <polygon class="cls-1" points="316.54 212.66 405.71 158.49 317.6 214.36 316.54 212.66 316.54 212.66"/>
  <polygon class="cls-1" points="304.11 191.43 341.53 152.37 305.58 192.79 304.11 191.43 304.11 191.43"/>
  <polygon class="cls-1" points="285.63 179.4 335.41 91.24 287.38 180.37 285.63 179.4 285.63 179.4"/>
  <polygon class="cls-1" points="262.33 172.04 274.5 118.75 264.29 172.45 262.33 172.04 262.33 172.04"/>
  <polygon class="cls-1" points="239.66 167.66 240.66 59.02 241.66 167.66 239.66 167.66 239.66 167.66"/>
  <polygon class="cls-1" points="213.84 167.93 201.13 118.75 215.77 167.39 213.84 167.93 213.84 167.93"/>
  <polygon class="cls-1" points="192.8 180.38 142.85 91.24 194.53 179.39 192.8 180.38 192.8 180.38"/>
  <polygon class="cls-1" points="174.31 192.83 133.97 152.37 175.71 191.39 174.31 192.83 174.31 192.83"/>
  <polygon class="cls-1" points="160.83 214.37 66.81 158.49 161.83 212.64 160.83 214.37 160.83 214.37"/>
  <polygon class="cls-1" points="154.25 231.61 97 216.56 154.73 229.67 154.25 231.61 154.25 231.61"/>
  <polygon class="cls-1" points="154.49 258.83 38.21 257.83 154.49 256.83 154.49 258.83 154.49 258.83"/>
  <path class="cls-1" d="M451.1,257.88c1.45,0,1.45-2.25,0-2.25s-1.45,2.25,0,2.25h0Z"/>
  <path class="cls-1" d="M471,259.13c1.45,0,1.45-2.25,0-2.25s-1.45,2.25,0,2.25h0Z"/>
  <path class="cls-1" d="M397.62,211.87c1.45,0,1.45-2.25,0-2.25s-1.45,2.25,0,2.25h0Z"/>
  <path class="cls-1" d="M423.74,150.93c1.45,0,1.45-2.25,0-2.25s-1.45,2.25,0,2.25h0Z"/>
  <path class="cls-1" d="M442.4,139.73c1.45,0,1.45-2.25,0-2.25s-1.45,2.25,0,2.25h0Z"/>
  <path class="cls-1" d="M352.85,136c1.45,0,1.45-2.25,0-2.25s-1.45,2.25,0,2.25h0Z"/>
  <path class="cls-1" d="M344.15,68.85c1.45,0,1.45-2.25,0-2.25s-1.45,2.25,0,2.25h0Z"/>
  <path class="cls-1" d="M356.58,50.19c1.45,0,1.45-2.25,0-2.25s-1.45,2.25,0,2.25h0Z"/>
  <path class="cls-1" d="M279.48,96.21c1.45,0,1.45-2.25,0-2.25s-1.45,2.25,0,2.25h0Z"/>
  <path class="cls-1" d="M240.43,42.73c1.45,0,1.45-2.25,0-2.25s-1.45,2.25,0,2.25h0Z"/>
  <path class="cls-1" d="M240.43,21.59c1.45,0,1.45-2.25,0-2.25s-1.45,2.25,0,2.25h0Z"/>
  <path class="cls-1" d="M193.66,94.96c1.45,0,1.45-2.25,0-2.25s-1.45,2.25,0,2.25h0Z"/>
  <path class="cls-1" d="M130.24,70.09c1.45,0,1.45-2.25,0-2.25s-1.45,2.25,0,2.25h0Z"/>
  <path class="cls-1" d="M121.53,55.17c1.45,0,1.45-2.25,0-2.25s-1.45,2.25,0,2.25h0Z"/>
  <path class="cls-1" d="M119.05,138.49c1.45,0,1.45-2.25,0-2.25s-1.45,2.25,0,2.25h0Z"/>
  <path class="cls-1" d="M53.13,152.17c1.45,0,1.45-2.25,0-2.25s-1.45,2.25,0,2.25h0Z"/>
  <path class="cls-1" d="M33.23,139.73c1.45,0,1.45-2.25,0-2.25s-1.45,2.25,0,2.25h0Z"/>
  <path class="cls-1" d="M79.25,214.35c1.45,0,1.45-2.25,0-2.25s-1.45,2.25,0,2.25h0Z"/>
  <path class="cls-1" d="M22.04,259.13c1.45,0,1.45-2.25,0-2.25s-1.45,2.25,0,2.25h0Z"/>
  <path class="cls-1" d="M.9,257.88c1.45,0,1.45-2.25,0-2.25s-1.45,2.25,0,2.25H.9Z"/>
</svg>
