<?xml version="1.0" encoding="UTF-8"?>
<svg id="Layer_1" data-name="Layer 1" xmlns="http://www.w3.org/2000/svg" viewBox="0 0 922 525">
  <defs>
    <style>
      .cls-1 {
        fill: #1a1a1a;
      }
    </style>
  </defs>
  <g>
    <g>
      <path class="cls-1" d="M827.1,340.77c0,23.77,9.17,34.89,13.76,38.92,13.48,0,31.13-3.61,38.5-16.4v18.21h-86.73c1.67-.97,16.26-9.31,16.26-40.73v-15.85c0-31.41-14.59-39.75-16.26-40.73h86.73v18.21c-7.37-12.79-25.02-16.4-38.5-16.4-4.59,4.03-13.76,15.15-13.76,38.92v7.09c13.34,0,31.27-3.61,38.64-16.26v34.19c-7.37-12.65-25.3-16.12-38.64-16.12v6.95Z"/>
      <path class="cls-1" d="M848.74,247.31c1.99-4.89,7.92-6.76,12.12-3.8,4.37,3.08,4.59,9.29,.49,12.69l-19.63,16.17-1.62-1.14,8.64-23.92Z"/>
    </g>
    <path class="cls-1" d="M74.19,324.93c-5.7-14.87-16.68-33.64-31.69-40.73h51.99c-10.98,8.06-4.73,30.44-.83,40.73l1.67,4.45,1.67-4.45c11.95-31.41,.7-39.75-.56-40.73h43.09c-2.92,.97-28.64,9.45-40.59,40.87l-2.64,6.81v8.9c0,31.41,14.59,39.75,16.26,40.73H61.82c1.67-.97,16.26-9.31,16.26-40.73v-5.42l-3.89-10.42Z"/>
    <path class="cls-1" d="M125.58,381.5c14.32-7.09,23.21-26.13,26.97-40.73l12.51-47.12c-2.92-3.34-7.09-7.51-11.12-9.45h51.29c-1.39,.97-13.76,9.31-5.28,40.73l4.17,15.85c8.48,31.41,25.3,39.75,27.24,40.73h-51.43c1.39-.97,13.76-9.31,5.28-40.73l-1.81-6.95c-16.54,.56-27.1,13.76-31.55,23.91,0,17.93,7.23,23.21,8.06,23.77h-34.33Zm55.46-56.57c-3.75-13.76-9.31-23.21-14.46-29.61l-12.09,45.45c-1.25,4.59-1.95,8.76-2.36,12.37,5.42-9.73,15.85-20.43,30.72-21.13l-1.81-7.09Z"/>
    <path class="cls-1" d="M367.36,284.2c-1.67,.97-16.26,9.31-16.26,40.73v37.53c0,9.45,7.64,17.24,17.24,17.24s17.24-7.78,17.24-17.24v-37.53c0-31.41-14.59-39.75-16.26-40.73h50.73c-1.67,.97-16.26,9.31-16.26,40.73v28.36c0,19.6-15.85,28.22-35.44,28.22s-35.44-8.62-35.44-28.22v-28.36c0-31.41-14.59-39.75-16.26-40.73h50.74Z"/>
    <path class="cls-1" d="M408.88,381.5c14.32-7.09,23.21-26.13,26.97-40.73l12.51-47.12c-2.92-3.34-7.09-7.51-11.12-9.45h51.29c-1.39,.97-13.76,9.31-5.28,40.73l4.17,15.85c8.48,31.41,25.3,39.75,27.24,40.73h-51.43c1.39-.97,13.76-9.31,5.28-40.73l-1.81-6.95c-16.54,.56-27.1,13.76-31.55,23.91,0,17.93,7.23,23.21,8.06,23.77h-34.33Zm55.46-56.57c-3.75-13.76-9.31-23.21-14.46-29.61l-12.09,45.45c-1.25,4.59-1.95,8.76-2.36,12.37,5.42-9.73,15.85-20.43,30.72-21.13l-1.81-7.09Z"/>
    <path class="cls-1" d="M515.49,381.5c1.67-.97,16.26-9.31,16.26-40.73v-15.85c0-31.41-14.59-39.75-16.26-40.73h50.6c10.15,0,36.56,2.22,36.56,17.37,0,10.43-8.62,16.12-20.16,16.12-2.08,0-4.31-.28-6.53-.69,15.01,8.48,20.29,15.85,24.6,39.61,.7,3.34,5.84,19.74,14.73,24.88h-13.34c-11.68,0-21.27-9.45-21.27-21.27v-3.61c0-24.74-4.45-38.78-28.91-48.79-1.11,4.86-1.81,10.42-1.81,17.1v15.85c0,31.41,14.59,39.75,16.26,40.73h-50.74Zm40.73-73.95c6.25,2.64,28.22,7.37,28.22-7.78,0-10.98-9.17-13.76-20.57-13.76-3.2,2.64-8.48,8.76-11.54,20.02,.28,.14,3.75,1.53,3.89,1.53Z"/>
    <path class="cls-1" d="M319.45,331.88c-17.24,10.98-8.76,49.62-50.6,49.62-25.3,0-45.87-21.82-45.87-48.65s20.57-48.65,45.87-48.65c15.85,0,29.89,8.62,38.09,21.82l-15.71,12.79c0-17.65-5.14-30.58-15.57-32.25-15.01-2.22-30.3,16.54-34.19,42.12-3.89,25.58,5.14,48.09,20.29,50.46,9.31,1.39,24.33-.97,24.33-19.32,0-11.82-4.87-24.46-17.38-27.94h50.73Z"/>
    <path class="cls-1" d="M650.59,340.77c0,23.77,9.17,34.89,13.76,38.92,13.48,0,31.13-3.61,38.5-16.4v18.21h-86.73c1.67-.97,16.26-9.31,16.26-40.73v-15.85c0-31.41-14.59-39.75-16.26-40.73h86.73v18.21c-7.37-12.79-25.02-16.4-38.5-16.4-4.59,4.03-13.76,15.15-13.76,38.92v7.09c13.34,0,31.27-3.61,38.64-16.26v34.19c-7.37-12.65-25.3-16.12-38.64-16.12v6.95Z"/>
    <path class="cls-1" d="M722.37,381.5c2.5-1.11,24.46-10.98,24.46-95.49h-3.33c-31.41,0-39.75,14.73-40.73,16.4v-18.21h89.93v18.21c-.97-1.67-9.31-16.4-40.73-16.4h-3.33c0,84.51,22.1,94.38,24.46,95.49h-50.73Z"/>
  </g>
  <g>
    <polygon class="cls-1" points="540.07 236.93 629.21 237.93 540.07 238.93 540.07 236.93 540.07 236.93"/>
    <polygon class="cls-1" points="539.81 213.53 584.64 202.71 540.33 215.47 539.81 213.53 539.81 213.53"/>
    <polygon class="cls-1" points="530.32 198.88 607.25 152.32 531.38 200.58 530.32 198.88 530.32 198.88"/>
    <polygon class="cls-1" points="519.58 180.62 551.92 147.05 521.05 181.97 519.58 180.62 519.58 180.62"/>
    <polygon class="cls-1" points="503.63 170.27 546.66 94.36 505.38 171.24 503.63 170.27 503.63 170.27"/>
    <polygon class="cls-1" points="483.53 163.97 494.16 118.07 485.49 164.38 483.53 163.97 483.53 163.97"/>
    <polygon class="cls-1" points="463.99 160.22 464.99 66.58 465.99 160.22 463.99 160.22 463.99 160.22"/>
    <polygon class="cls-1" points="441.75 160.49 430.92 118.07 443.67 159.95 441.75 160.49 441.75 160.49"/>
    <polygon class="cls-1" points="423.62 171.25 380.69 94.36 425.36 170.26 423.62 171.25 423.62 171.25"/>
    <polygon class="cls-1" points="407.72 182.01 373.04 147.05 409.11 180.58 407.72 182.01 407.72 182.01"/>
    <polygon class="cls-1" points="396.12 200.6 315.16 152.32 397.12 198.87 396.12 200.6 396.12 200.6"/>
    <polygon class="cls-1" points="390.49 215.47 341.17 202.37 390.96 213.53 390.49 215.47 390.49 215.47"/>
    <polygon class="cls-1" points="390.73 238.93 290.51 237.93 390.73 236.93 390.73 238.93 390.73 238.93"/>
    <path class="cls-1" d="M646.36,238.14c1.45,0,1.45-2.25,0-2.25s-1.45,2.25,0,2.25h0Z"/>
    <path class="cls-1" d="M663.51,239.21c1.45,0,1.45-2.25,0-2.25s-1.45,2.25,0,2.25h0Z"/>
    <path class="cls-1" d="M600.27,198.48c1.45,0,1.45-2.25,0-2.25s-1.45,2.25,0,2.25h0Z"/>
    <path class="cls-1" d="M622.78,145.96c1.45,0,1.45-2.25,0-2.25s-1.45,2.25,0,2.25h0Z"/>
    <path class="cls-1" d="M638.86,136.31c1.45,0,1.45-2.25,0-2.25s-1.45,2.25,0,2.25h0Z"/>
    <path class="cls-1" d="M561.69,133.09c1.45,0,1.45-2.25,0-2.25s-1.45,2.25,0,2.25h0Z"/>
    <path class="cls-1" d="M554.18,75.21c1.45,0,1.45-2.25,0-2.25s-1.45,2.25,0,2.25h0Z"/>
    <path class="cls-1" d="M564.9,59.13c1.45,0,1.45-2.25,0-2.25s-1.45,2.25,0,2.25h0Z"/>
    <path class="cls-1" d="M498.45,98.79c1.45,0,1.45-2.25,0-2.25s-1.45,2.25,0,2.25h0Z"/>
    <path class="cls-1" d="M464.79,52.7c1.45,0,1.45-2.25,0-2.25s-1.45,2.25,0,2.25h0Z"/>
    <path class="cls-1" d="M464.79,34.48c1.45,0,1.45-2.25,0-2.25s-1.45,2.25,0,2.25h0Z"/>
    <path class="cls-1" d="M424.49,97.72c1.45,0,1.45-2.25,0-2.25s-1.45,2.25,0,2.25h0Z"/>
    <path class="cls-1" d="M369.82,76.28c1.45,0,1.45-2.25,0-2.25s-1.45,2.25,0,2.25h0Z"/>
    <path class="cls-1" d="M362.32,63.42c1.45,0,1.45-2.25,0-2.25s-1.45,2.25,0,2.25h0Z"/>
    <path class="cls-1" d="M360.18,135.24c1.45,0,1.45-2.25,0-2.25s-1.45,2.25,0,2.25h0Z"/>
    <path class="cls-1" d="M303.37,147.03c1.45,0,1.45-2.25,0-2.25s-1.45,2.25,0,2.25h0Z"/>
    <path class="cls-1" d="M286.22,136.31c1.45,0,1.45-2.25,0-2.25s-1.45,2.25,0,2.25h0Z"/>
    <path class="cls-1" d="M325.88,200.62c1.45,0,1.45-2.25,0-2.25s-1.45,2.25,0,2.25h0Z"/>
    <path class="cls-1" d="M276.57,239.21c1.45,0,1.45-2.25,0-2.25s-1.45,2.25,0,2.25h0Z"/>
    <path class="cls-1" d="M258.35,238.14c1.45,0,1.45-2.25,0-2.25s-1.45,2.25,0,2.25h0Z"/>
  </g>
</svg>